<svg version="1.1" xmlns="http://www.w3.org/2000/svg" style="display: block;" viewBox="0 0 2048 2048" width="1024" height="1024" preserveAspectRatio="none">
<defs>
	<linearGradient id="Gradient1" gradientUnits="userSpaceOnUse" x1="1456.66" y1="1461.23" x2="1404.39" y2="1400.9">
		<stop class="stop0" offset="0" stop-opacity="1" stop-color="rgb(242,254,85)"/>
		<stop class="stop1" offset="1" stop-opacity="1" stop-color="rgb(255,255,163)"/>
	</linearGradient>
	<linearGradient id="Gradient2" gradientUnits="userSpaceOnUse" x1="1542.24" y1="1553.23" x2="1509.01" y2="1124.82">
		<stop class="stop0" offset="0" stop-opacity="1" stop-color="rgb(236,254,68)"/>
		<stop class="stop1" offset="1" stop-opacity="1" stop-color="rgb(255,255,194)"/>
	</linearGradient>
	<linearGradient id="Gradient3" gradientUnits="userSpaceOnUse" x1="1147.21" y1="1220.26" x2="837.199" y2="1222.23">
		<stop class="stop0" offset="0" stop-opacity="1" stop-color="rgb(233,253,52)"/>
		<stop class="stop1" offset="1" stop-opacity="1" stop-color="rgb(255,255,156)"/>
	</linearGradient>
	<linearGradient id="Gradient4" gradientUnits="userSpaceOnUse" x1="1086.89" y1="1162.31" x2="1176.82" y2="1039.94">
		<stop class="stop0" offset="0" stop-opacity="1" stop-color="rgb(251,255,120)"/>
		<stop class="stop1" offset="1" stop-opacity="1" stop-color="rgb(255,255,188)"/>
	</linearGradient>
	<linearGradient id="Gradient5" gradientUnits="userSpaceOnUse" x1="1342.26" y1="487.517" x2="1327.42" y2="387.57">
		<stop class="stop0" offset="0" stop-opacity="1" stop-color="rgb(197,249,53)"/>
		<stop class="stop1" offset="1" stop-opacity="1" stop-color="rgb(255,255,120)"/>
	</linearGradient>
	<linearGradient id="Gradient6" gradientUnits="userSpaceOnUse" x1="1466.81" y1="675.045" x2="1644.46" y2="564.847">
		<stop class="stop0" offset="0" stop-opacity="1" stop-color="rgb(252,255,148)"/>
		<stop class="stop1" offset="1" stop-opacity="1" stop-color="rgb(255,255,219)"/>
	</linearGradient>
	<linearGradient id="Gradient7" gradientUnits="userSpaceOnUse" x1="360.974" y1="1248.41" x2="685.291" y2="1500.29">
		<stop class="stop0" offset="0" stop-opacity="1" stop-color="rgb(122,209,9)"/>
		<stop class="stop1" offset="1" stop-opacity="1" stop-color="rgb(196,246,48)"/>
	</linearGradient>
	<linearGradient id="Gradient8" gradientUnits="userSpaceOnUse" x1="839.609" y1="1484.1" x2="791.369" y2="1596.61">
		<stop class="stop0" offset="0" stop-opacity="1" stop-color="rgb(132,212,10)"/>
		<stop class="stop1" offset="1" stop-opacity="1" stop-color="rgb(206,252,60)"/>
	</linearGradient>
	<linearGradient id="Gradient9" gradientUnits="userSpaceOnUse" x1="945.536" y1="905.277" x2="759.638" y2="298.055">
		<stop class="stop0" offset="0" stop-opacity="1" stop-color="rgb(255,255,161)"/>
		<stop class="stop1" offset="1" stop-opacity="1" stop-color="rgb(255,255,220)"/>
	</linearGradient>
	<linearGradient id="Gradient10" gradientUnits="userSpaceOnUse" x1="988.355" y1="1144.98" x2="1092.04" y2="261.805">
		<stop class="stop0" offset="0" stop-opacity="1" stop-color="rgb(157,230,29)"/>
		<stop class="stop1" offset="1" stop-opacity="1" stop-color="rgb(217,255,57)"/>
	</linearGradient>
	<linearGradient id="Gradient11" gradientUnits="userSpaceOnUse" x1="1173.53" y1="1515.73" x2="686.023" y2="327.425">
		<stop class="stop0" offset="0" stop-opacity="1" stop-color="rgb(29,62,11)"/>
		<stop class="stop1" offset="1" stop-opacity="1" stop-color="rgb(42,89,11)"/>
	</linearGradient>
</defs>
<path transform="translate(0,0)" fill="url(#Gradient11)" d="M 682.841 477.097 C 691.37 467.247 709.226 450.934 718.983 441.323 C 743.445 417.01 768.116 392.909 792.995 369.023 C 828.322 334.889 864.069 301.192 900.228 267.941 C 919.523 250.163 937.99 232.644 958.363 216.313 C 994.821 187.087 1024.85 199.977 1056.12 228.796 C 1138.01 304.264 1220.66 380.346 1300.01 458.507 C 1299.47 424.829 1294.33 391.281 1319.43 366.754 C 1343.31 343.423 1362.82 342.695 1393.67 342.335 C 1415.71 342.201 1437.74 342.181 1459.78 342.277 C 1492.65 342.361 1525.52 337.883 1550.47 362.82 C 1569.08 381.422 1569.77 400.389 1569.82 425.143 L 1569.81 619.871 C 1569.76 652.241 1568.65 692.766 1570.11 724.542 C 1581.85 736.918 1596.23 749.9 1608.73 761.714 L 1670.07 819.349 C 1679.96 828.507 1689.82 837.719 1699.63 846.94 C 1712.27 858.828 1723.53 868.312 1728.76 885.427 C 1735.56 907.673 1727.7 930.978 1711.13 946.669 C 1690.29 966.212 1666.48 965.149 1639.74 965.097 C 1626.41 965.04 1613.08 965.056 1599.75 965.147 L 1599.94 1029.68 C 1599.95 1041.72 1601.01 1054.92 1599 1066.81 C 1598.11 1072.03 1596.38 1078.17 1592.47 1081.98 C 1583.78 1090.44 1530.65 1106.24 1518.09 1105.43 C 1511.53 1105 1505.41 1102.46 1499.95 1098.91 C 1478.91 1084.33 1484.03 1054.24 1483.96 1031.62 C 1483.84 989.632 1483.72 947.522 1484.51 905.559 C 1484.61 900.317 1485.83 892.376 1488.24 887.78 C 1495.1 865.444 1517.72 861.981 1537.72 861.98 C 1527.01 851.882 1507.06 833.476 1497.87 822.806 C 1491.81 817.736 1481.2 806.975 1475.24 801.264 C 1457.85 784.597 1440.75 767.625 1423.95 750.358 C 1409.51 737.55 1390.92 717.887 1376.93 703.927 L 1289.6 617.157 L 1003.24 335.759 C 989.01 351.267 971.904 367.584 956.884 382.533 L 879.828 459.328 L 605.313 732.088 C 564.685 772.526 518.166 816.899 478.977 858.108 C 498.296 857.495 525.22 854.374 540.312 868.194 C 542.803 870.474 548.306 876.612 549.426 879.833 C 553.396 886.45 555.628 894.922 555.674 902.643 C 555.898 939.877 556.725 977.95 555.93 1015.13 L 556.006 1309.36 L 556.033 1414.49 C 556.041 1430.63 556.666 1450.52 556.082 1466.28 L 794.305 1466.38 L 855.676 1466.22 C 875.787 1466.16 898.729 1465.15 918.125 1469.64 C 946.989 1476.39 973.892 1493.94 994.54 1514.94 C 1007.86 1529.09 1024.59 1547.18 1026.24 1567.47 C 1027.18 1579.02 1015.03 1585.15 1005.42 1585.46 C 971.366 1586.56 934.775 1586.84 900.814 1585.91 C 874.09 1587.23 836.904 1586.1 809.379 1586.09 L 647.552 1585.91 C 644.283 1586.11 639.451 1585.92 636.052 1585.89 C 626.038 1586.37 614.787 1586.17 604.7 1586.03 C 539.85 1585.12 474.276 1587.33 409.493 1585.74 C 383.111 1588.93 358.479 1584.5 340.491 1563.82 C 326.82 1548.7 325.303 1525.48 331.054 1506.74 C 339.384 1484.82 351.473 1474.91 373.112 1467.3 C 382.466 1465.71 421.131 1465.44 430.307 1466.96 C 429.455 1447.31 430.082 1422.8 430.073 1402.83 L 430.043 1284 L 430.22 962.895 C 422.442 963.116 414.482 962.997 406.686 962.966 C 406.27 962.987 405.854 963.008 405.438 963.028 C 370.607 961.707 340.047 970.419 312.495 943.195 C 291.464 924.164 284.307 886.182 300.752 862.227 C 310.675 847.772 329.195 830.117 342.052 817.151 L 400.946 758.029 L 585.166 573.824 C 614.407 544.116 652.485 504.904 682.841 477.097 z"/>
<path transform="translate(0,0)" fill="rgb(2,11,1)" d="M 406.686 962.966 C 412.7 960.183 426.204 960.569 433.264 960.386 C 434.669 978.518 434.115 1000.12 434.122 1018.59 L 434.076 1108.72 L 433.997 1351.43 C 434.064 1388.64 433.1 1429.22 434.231 1466.12 L 432.177 1467.86 L 430.307 1466.96 C 429.455 1447.31 430.082 1422.8 430.073 1402.83 L 430.043 1284 L 430.22 962.895 C 422.442 963.116 414.482 962.997 406.686 962.966 z"/>
<path transform="translate(0,0)" fill="rgb(2,11,1)" d="M 647.552 1585.91 C 651.28 1584.41 654.745 1583.71 658.749 1583.46 C 680.895 1582.09 895.589 1583.14 899.959 1585.33 C 900.266 1585.49 900.529 1585.72 900.814 1585.91 C 874.09 1587.23 836.904 1586.1 809.379 1586.09 L 647.552 1585.91 z"/>
<path transform="translate(0,0)" fill="rgb(2,11,1)" d="M 1499.95 1098.91 C 1478.91 1084.33 1484.03 1054.24 1483.96 1031.62 C 1483.84 989.632 1483.72 947.522 1484.51 905.559 C 1484.61 900.317 1485.83 892.376 1488.24 887.78 C 1489.92 890.731 1487.33 915.248 1487.29 921.987 C 1487 971.638 1486.99 1021.29 1486.93 1070.95 C 1486.91 1082.8 1499.26 1092.42 1499.95 1098.91 z"/>
<path transform="translate(0,0)" fill="rgb(2,11,1)" d="M 409.493 1585.74 C 419.285 1582.5 447.278 1583.52 458.44 1583.44 C 480.367 1583.28 508.09 1582.8 529.348 1583.44 C 546.473 1583.95 627.611 1580.22 636.052 1585.89 C 626.038 1586.37 614.787 1586.17 604.7 1586.03 C 539.85 1585.12 474.276 1587.33 409.493 1585.74 z"/>
<path transform="translate(0,0)" fill="rgb(17,44,5)" d="M 682.841 477.097 C 679.673 486.339 637.484 524.807 627.57 535.309 C 619.781 543.562 596.91 566.871 587.966 573.74 L 585.166 573.824 C 614.407 544.116 652.485 504.904 682.841 477.097 z"/>
<path transform="translate(0,0)" fill="rgb(17,44,5)" d="M 549.426 879.833 C 553.396 886.45 555.628 894.922 555.674 902.643 C 555.898 939.877 556.725 977.95 555.93 1015.13 C 552.87 1003.35 555.155 994.932 554.462 983.269 C 552.834 955.843 552.948 928.497 552.708 901.042 C 552.65 894.487 547.956 886.303 549.426 879.833 z"/>
<path transform="translate(0,0)" fill="rgb(2,11,1)" d="M 1423.95 750.358 C 1432.82 752.429 1458.45 781.306 1466.52 788.523 C 1472.76 794.106 1496.34 816.804 1497.87 822.806 C 1491.81 817.736 1481.2 806.975 1475.24 801.264 C 1457.85 784.597 1440.75 767.625 1423.95 750.358 z"/>
<path transform="translate(0,0)" fill="rgb(17,44,5)" d="M 434.231 1466.12 L 433.856 1469.48 C 431.154 1471.27 382.474 1469.71 375.405 1469.19 L 373.112 1467.3 C 382.466 1465.71 421.131 1465.44 430.307 1466.96 L 432.177 1467.86 L 434.231 1466.12 z"/>
<path transform="translate(0,0)" fill="rgb(17,44,5)" d="M 331.054 1506.74 C 333.677 1513.09 329.527 1529.67 331.88 1539.77 C 333.814 1548.09 341.008 1558.02 340.491 1563.82 C 326.82 1548.7 325.303 1525.48 331.054 1506.74 z"/>
<path transform="translate(0,0)" fill="url(#Gradient10)" d="M 758.654 444.36 C 812.611 391.917 865.208 337.951 920.533 286.867 C 940.93 268.034 960.78 247.101 982.687 230.227 C 1009.33 209.706 1039.98 245.797 1058.36 263.077 L 1107.96 309.99 C 1173.67 372.412 1238.71 435.538 1303.06 499.356 L 1341.13 536.823 C 1344.39 540.008 1355.14 550.926 1358.32 553.173 C 1363.39 553.534 1373.45 564.363 1377.41 568.35 C 1402.85 593.975 1428.86 619.133 1453.76 645.278 C 1455.39 646.989 1455.1 647.708 1454.84 649.923 C 1465.08 661.342 1477.4 672.117 1487.32 683.545 L 1489.05 686.564 C 1491.14 692.124 1497.12 697.224 1501.51 701.495 C 1501.57 704.887 1501.84 713.769 1502.58 717.069 C 1503.97 723.246 1506.24 724.971 1505.81 732.193 L 1504.29 733.182 C 1493.81 729.686 1478.73 706.183 1469.3 703.099 L 1474.72 708.914 C 1490.89 723.844 1513.91 746.896 1528.7 763.352 L 1598.48 832.125 C 1606.62 840.101 1624.64 858.535 1633.25 865.223 C 1644.5 874.541 1673.9 897.631 1681.77 907.946 L 1682.68 909.132 C 1682.86 909.374 1683.04 909.616 1683.21 909.857 C 1684.88 915.309 1685.28 919.168 1689.91 922.562 C 1672.66 934.716 1661.35 935.165 1640.81 935.11 C 1619.28 935.052 1597.57 934.93 1576.03 935.055 L 1575.98 1017.51 C 1575.99 1031.24 1576.47 1048.64 1575.75 1062.13 C 1565.65 1066.61 1548.03 1071.11 1536.98 1074.04 C 1533.87 1074.92 1528.57 1076.41 1525.47 1076.74 C 1522.1 1077.11 1518.74 1076.01 1516.24 1073.72 C 1512.06 1069.88 1511.84 1064.25 1511.83 1058.71 C 1511.73 1008.76 1511.14 958.702 1511.58 908.781 C 1511.73 905.163 1514.2 896.35 1517.32 894.148 C 1529.55 885.499 1558.02 889.392 1572.76 888.899 C 1576.44 887.396 1594.87 885.801 1600.16 885.232 C 1603.93 888.484 1603.1 888.028 1607.78 887.527 C 1589.22 871.416 1567.24 848.269 1548.77 830.62 C 1492.79 776.47 1437.22 721.894 1382.06 666.9 L 1001.67 286.79 C 983.538 306.479 960.558 327.09 941.184 346.065 L 830.518 455.094 L 557.276 727.488 L 459.372 825.749 C 441.28 844.065 422.569 861.351 406.096 881.142 C 407.084 881.743 419.807 882.578 422.332 882.899 C 452.34 882.989 483.429 881.995 513.164 884.913 C 519.09 885.495 525.657 893.307 526.091 899.24 C 527.394 917.037 526.828 935.264 526.794 953.161 L 526.675 1055.86 C 526.668 1056.04 526.662 1056.23 526.655 1056.41 C 520.991 1079.62 537.816 1088.94 504.167 1088.75 L 503.885 1090.5 C 497.528 1090.48 487.867 1090.78 482.869 1087.49 C 482.895 1080.85 482.988 1074.2 483.149 1067.56 C 482.805 1055.13 482.071 1037.83 482.911 1025.7 C 481.916 1004.66 482.133 979.853 481.792 958.539 C 481.868 953.338 481.582 947.241 481.453 941.968 C 477.322 939.912 470.46 935.931 466.158 937.759 C 466.194 935.233 466.083 935.104 465.466 932.62 C 460.607 931.219 449.998 932.248 444.575 931.947 C 424.933 930.855 375.306 934.343 359.144 930.68 C 337.605 925.241 325.829 913.842 322.987 891.733 C 325.15 874.378 345.142 858.552 357.681 845.315 L 356.069 844.685 C 356.851 843.004 394.919 802.713 398.127 799.842 C 428.688 772.489 456.663 743.117 485.433 713.937 C 488.602 710.724 494.959 704.57 499.078 703.202 C 503.63 700.703 534.624 668.764 539.237 663.315 L 539.08 660.566 C 542.389 654.315 590.162 607.2 598.108 599.253 L 705.414 491.97 C 725.489 471.931 746.954 451.187 766.48 430.754 L 767.332 431.936 C 765.382 435.944 760.612 438.351 756.973 443.359 L 758.654 444.36 z"/>
<path transform="translate(0,0)" fill="url(#Gradient9)" d="M 758.654 444.36 C 812.611 391.917 865.208 337.951 920.533 286.867 C 940.93 268.034 960.78 247.101 982.687 230.227 C 1009.33 209.706 1039.98 245.797 1058.36 263.077 L 1107.96 309.99 C 1173.67 372.412 1238.71 435.538 1303.06 499.356 L 1341.13 536.823 C 1344.39 540.008 1355.14 550.926 1358.32 553.173 C 1363.39 553.534 1373.45 564.363 1377.41 568.35 C 1402.85 593.975 1428.86 619.133 1453.76 645.278 C 1455.39 646.989 1455.1 647.708 1454.84 649.923 C 1465.08 661.342 1477.4 672.117 1487.32 683.545 L 1489.05 686.564 C 1491.14 692.124 1497.12 697.224 1501.51 701.495 C 1501.57 704.887 1501.84 713.769 1502.58 717.069 C 1503.97 723.246 1506.24 724.971 1505.81 732.193 L 1504.29 733.182 C 1493.81 729.686 1478.73 706.183 1469.3 703.099 C 1466.51 701.23 1448.48 682.579 1445.16 679.161 C 1442.71 675.397 1408.45 642.167 1403.77 637.878 C 1393.57 627.32 1383.94 617.468 1373.3 607.376 C 1371.32 604.922 1360.46 594.448 1358.06 592.784 C 1351.98 585.229 1335.34 569.513 1327.69 561.875 L 1267.76 502.059 L 1178.22 412.594 C 1162.51 396.915 1143.65 377.201 1127.36 362.62 L 1125.6 360.78 C 1107.11 340.793 1072.58 307.69 1052.31 289.208 C 1045.4 282.161 1037.81 275.253 1030.72 268.471 C 1002.25 241.214 987.445 246.939 963.764 275.307 C 936.191 302.036 907.779 331.308 880.672 358.738 C 873.333 364.635 859.445 379.308 852.104 386.672 L 800.074 438.799 L 622.924 616.143 L 433.929 805.244 L 384.86 854.14 C 372.271 866.605 356.991 880.894 346.597 894.753 C 343.502 895.449 344.392 894.823 342.15 896.621 L 344.533 898.137 C 339.21 900.872 334.947 904.401 329.042 902.155 C 324.992 898.709 325.991 896.196 322.987 891.733 C 325.15 874.378 345.142 858.552 357.681 845.315 L 356.069 844.685 C 356.851 843.004 394.919 802.713 398.127 799.842 C 428.688 772.489 456.663 743.117 485.433 713.937 C 488.602 710.724 494.959 704.57 499.078 703.202 C 503.63 700.703 534.624 668.764 539.237 663.315 L 539.08 660.566 C 542.389 654.315 590.162 607.2 598.108 599.253 L 705.414 491.97 C 725.489 471.931 746.954 451.187 766.48 430.754 L 767.332 431.936 C 765.382 435.944 760.612 438.351 756.973 443.359 L 758.654 444.36 z"/>
<path transform="translate(0,0)" fill="rgb(33,73,10)" d="M 539.237 663.315 L 539.08 660.566 C 542.389 654.315 590.162 607.2 598.108 599.253 L 705.414 491.97 C 725.489 471.931 746.954 451.187 766.48 430.754 L 767.332 431.936 C 765.382 435.944 760.612 438.351 756.973 443.359 L 758.654 444.36 L 623.229 579.927 L 570.983 632.336 C 561.62 641.7 549.066 654.945 539.237 663.315 z"/>
<path transform="translate(0,0)" fill="rgb(33,73,10)" d="M 357.681 845.315 L 356.069 844.685 C 356.851 843.004 394.919 802.713 398.127 799.842 C 428.688 772.489 456.663 743.117 485.433 713.937 C 488.602 710.724 494.959 704.57 499.078 703.202 C 491.484 712.301 477.725 725.356 469.041 734.05 L 415.245 787.928 L 375.837 827.483 C 372.341 830.984 361.112 842.674 357.681 845.315 z"/>
<path transform="translate(0,0)" fill="rgb(17,44,5)" d="M 1358.32 553.173 C 1363.39 553.534 1373.45 564.363 1377.41 568.35 C 1402.85 593.975 1428.86 619.133 1453.76 645.278 C 1455.39 646.989 1455.1 647.708 1454.84 649.923 C 1449.83 645.469 1444.52 639.836 1439.79 635.033 C 1412.81 607.648 1384.85 580.961 1358.32 553.173 z"/>
<path transform="translate(0,0)" fill="rgb(250,254,125)" d="M 422.332 882.899 C 452.34 882.989 483.429 881.995 513.164 884.913 C 519.09 885.495 525.657 893.307 526.091 899.24 C 527.394 917.037 526.828 935.264 526.794 953.161 L 526.675 1055.86 C 526.668 1056.04 526.662 1056.23 526.655 1056.41 C 520.991 1079.62 537.816 1088.94 504.167 1088.75 C 503.331 1074.18 503.876 1055.09 503.917 1040.25 L 504.131 955.296 C 504.155 942.59 504.3 929.763 504.035 917.067 C 503.897 910.44 503.489 907.995 496.993 905.691 C 481.388 900.157 385.95 907.718 377.777 902.026 L 378.388 900.166 C 396.703 885.628 399.727 883.145 422.332 882.899 z"/>
<path transform="translate(0,0)" fill="rgb(250,254,125)" d="M 1572.76 888.899 C 1576.44 887.396 1594.87 885.801 1600.16 885.232 C 1603.93 888.484 1603.1 888.028 1607.78 887.527 C 1608.29 888.446 1608.73 889.019 1608.95 889.986 C 1611.76 893.286 1611.78 893.836 1613.26 898.037 C 1613.07 899.499 1613.31 900.531 1612.11 901.563 C 1601.98 910.261 1546.04 897.394 1533.95 907.204 C 1532.34 908.509 1532.09 911.376 1531.77 913.314 C 1528.5 933.623 1535.35 1054.52 1530.6 1062.31 C 1529.63 1063.91 1527.22 1066.84 1526.88 1068.57 C 1530.44 1069.96 1534.93 1066.66 1536.98 1074.04 C 1533.87 1074.92 1528.57 1076.41 1525.47 1076.74 C 1522.1 1077.11 1518.74 1076.01 1516.24 1073.72 C 1512.06 1069.88 1511.84 1064.25 1511.83 1058.71 C 1511.73 1008.76 1511.14 958.702 1511.58 908.781 C 1511.73 905.163 1514.2 896.35 1517.32 894.148 C 1529.55 885.499 1558.02 889.392 1572.76 888.899 z"/>
<path transform="translate(0,0)" fill="rgb(17,44,5)" d="M 1572.76 888.899 C 1576.44 887.396 1594.87 885.801 1600.16 885.232 C 1603.93 888.484 1603.1 888.028 1607.78 887.527 C 1608.29 888.446 1608.73 889.019 1608.95 889.986 C 1596.73 889.18 1585 889.072 1572.76 888.899 z"/>
<path transform="translate(0,0)" fill="rgb(154,224,25)" d="M 1127.36 362.62 C 1143.65 377.201 1162.51 396.915 1178.22 412.594 L 1267.76 502.059 L 1327.69 561.875 C 1335.34 569.513 1351.98 585.229 1358.06 592.784 C 1352.18 590.705 1336.02 573.21 1330.93 568.118 L 1278.66 515.594 L 1182.46 419.434 C 1174.16 411.221 1128.75 368.918 1127.36 362.62 z"/>
<path transform="translate(0,0)" fill="rgb(250,254,125)" d="M 322.987 891.733 C 325.991 896.196 324.992 898.709 329.042 902.155 C 334.947 904.401 339.21 900.872 344.533 898.137 L 342.15 896.621 C 344.392 894.823 343.502 895.449 346.597 894.753 C 347.002 912.447 357.111 917.527 370.903 925.56 C 366.706 925.042 364.362 924.747 360.289 923.731 L 358.691 924.702 C 358.717 926.695 359.176 929.33 359.144 930.68 C 337.605 925.241 325.829 913.842 322.987 891.733 z"/>
<path transform="translate(0,0)" fill="rgb(134,204,18)" d="M 1633.25 865.223 L 1631.98 866.148 C 1623.4 861.933 1538.5 776.909 1528.01 764.691 L 1528.7 763.352 L 1598.48 832.125 C 1606.62 840.101 1624.64 858.535 1633.25 865.223 z"/>
<path transform="translate(0,0)" fill="rgb(134,204,18)" d="M 963.764 275.307 L 964.299 277.538 C 955.199 286.805 886.465 357.672 880.672 358.738 C 907.779 331.308 936.191 302.036 963.764 275.307 z"/>
<path transform="translate(0,0)" fill="rgb(181,240,42)" d="M 1125.6 360.78 L 1123.52 360.448 C 1115.98 354.833 1053.48 294.338 1052.31 289.208 C 1072.58 307.69 1107.11 340.793 1125.6 360.78 z"/>
<path transform="translate(0,0)" fill="rgb(154,224,25)" d="M 1474.72 708.914 C 1476.05 711.778 1477.71 713.026 1479.95 715.408 L 1479.32 716.579 C 1476.03 714.766 1446 683.64 1445.16 679.161 C 1448.48 682.579 1466.51 701.23 1469.3 703.099 L 1474.72 708.914 z"/>
<path transform="translate(0,0)" fill="rgb(181,240,42)" d="M 482.911 1025.7 C 484.203 1022.63 484.723 1021.66 484.545 1018.19 L 485.997 1016.9 C 486.562 1021.82 484.245 1063.36 483.149 1067.56 C 482.805 1055.13 482.071 1037.83 482.911 1025.7 z"/>
<path transform="translate(0,0)" fill="rgb(154,224,25)" d="M 1403.77 637.878 C 1398.49 637.459 1373.95 611.19 1373.3 607.376 C 1383.94 617.468 1393.57 627.32 1403.77 637.878 z"/>
<path transform="translate(0,0)" fill="rgb(250,254,125)" d="M 466.158 937.759 C 470.46 935.931 477.322 939.912 481.453 941.968 C 481.582 947.241 481.868 953.338 481.792 958.539 C 482.133 979.853 481.916 1004.66 482.911 1025.7 C 482.071 1037.83 482.805 1055.13 483.149 1067.56 C 482.988 1074.2 482.895 1080.85 482.869 1087.49 C 487.867 1090.78 497.528 1090.48 503.885 1090.5 L 504.167 1088.75 C 537.816 1088.94 520.991 1079.62 526.655 1056.41 L 526.524 1490.08 L 773.262 1490.12 L 838.917 1490.28 C 859.244 1490.35 884.879 1489.88 904.461 1494.23 C 929.394 1499.87 952.192 1512.52 970.162 1530.7 C 976.075 1536.47 981.391 1542.83 986.028 1549.67 C 988.543 1553.5 988.649 1552.41 988.672 1556.29 C 985.278 1560.49 979.24 1559.44 974.398 1559.07 C 970.542 1559.66 948.066 1559.28 942.469 1559.27 C 918.614 1559.34 894.758 1559.22 870.904 1558.92 C 769.062 1560.81 661.649 1559.09 559.228 1559.07 L 450.902 1559.04 C 431.801 1559.03 411.523 1559.48 392.512 1558.26 C 382.915 1557.65 374.792 1555.23 367.518 1548.47 C 360.955 1542.35 357.105 1533.86 356.821 1524.89 C 355.625 1487.76 401.045 1488.7 426.342 1489.94 C 439.144 1490.56 453.184 1490.02 466.045 1490.02 L 466.06 1151.13 C 466.045 1095.92 465.487 1039.66 466.202 984.509 C 465.742 969.376 466.095 952.989 466.158 937.759 z"/>
<path transform="translate(0,0)" fill="rgb(250,254,125)" d="M 504.167 1088.75 C 537.816 1088.94 520.991 1079.62 526.655 1056.41 L 526.524 1490.08 L 773.262 1490.12 L 838.917 1490.28 C 859.244 1490.35 884.879 1489.88 904.461 1494.23 C 929.394 1499.87 952.192 1512.52 970.162 1530.7 C 976.075 1536.47 981.391 1542.83 986.028 1549.67 C 988.543 1553.5 988.649 1552.41 988.672 1556.29 C 985.278 1560.49 979.24 1559.44 974.398 1559.07 C 970.542 1559.66 948.066 1559.28 942.469 1559.27 C 918.614 1559.34 894.758 1559.22 870.904 1558.92 C 879.836 1556.32 894.492 1560.24 899.555 1552.62 L 899.012 1551.66 C 892.271 1551.17 887.023 1549.17 880.57 1548.21 C 847.752 1543.35 813.691 1543.1 780.555 1541.95 C 776.109 1537.33 724.522 1541.08 712.62 1540.01 C 708.483 1540.61 685.959 1540.43 680.765 1540.46 C 675.634 1540.55 672.549 1540.84 667.486 1539.75 C 662.163 1538.33 652.95 1538.86 649.23 1535.2 C 650.033 1533.72 650.761 1532.19 649.764 1530.59 C 646.163 1524.79 652.594 1517.78 651.16 1514.01 C 645.43 1512.09 615.29 1513.09 606.373 1512.7 C 613.947 1512.53 621.012 1512.37 628.565 1511.8 C 624.102 1507.87 620.187 1510.33 613.352 1509.1 C 593.489 1506.73 517.536 1509.83 505.698 1505.62 C 502.765 1497.64 504.183 1418.29 504.179 1405.43 L 504.12 1199.92 C 504.116 1164.97 505.083 1125.08 503.885 1090.5 L 504.167 1088.75 z"/>
<path transform="translate(0,0)" fill="url(#Gradient8)" d="M 628.565 1511.8 C 643.544 1510.76 663.665 1511.61 678.993 1511.47 C 720.412 1511.18 761.308 1511.92 802.738 1513.4 C 827.708 1514.3 852.701 1512.73 877.965 1512.74 C 887.162 1512.74 907.926 1515.7 917.951 1518.43 C 918.638 1518.12 919.324 1517.81 920.01 1517.5 C 923.966 1518.9 933.959 1522.66 937.11 1525.24 C 943.668 1528.15 982.762 1551.17 983.972 1551.24 L 986.028 1549.67 C 988.543 1553.5 988.649 1552.41 988.672 1556.29 C 985.278 1560.49 979.24 1559.44 974.398 1559.07 C 970.542 1559.66 948.066 1559.28 942.469 1559.27 C 918.614 1559.34 894.758 1559.22 870.904 1558.92 C 879.836 1556.32 894.492 1560.24 899.555 1552.62 L 899.012 1551.66 C 892.271 1551.17 887.023 1549.17 880.57 1548.21 C 847.752 1543.35 813.691 1543.1 780.555 1541.95 C 776.109 1537.33 724.522 1541.08 712.62 1540.01 C 708.483 1540.61 685.959 1540.43 680.765 1540.46 C 675.634 1540.55 672.549 1540.84 667.486 1539.75 C 662.163 1538.33 652.95 1538.86 649.23 1535.2 C 650.033 1533.72 650.761 1532.19 649.764 1530.59 C 646.163 1524.79 652.594 1517.78 651.16 1514.01 C 645.43 1512.09 615.29 1513.09 606.373 1512.7 C 613.947 1512.53 621.012 1512.37 628.565 1511.8 z"/>
<path transform="translate(0,0)" fill="rgb(232,253,80)" d="M 680.765 1540.46 L 682.359 1538.69 C 680.837 1534.99 677.817 1533.63 674.091 1532.65 L 672.329 1535.62 L 668.01 1536.67 L 667.062 1535.85 C 666.694 1528.33 664.059 1533.17 664.263 1526.91 C 668.681 1523.62 669.962 1525.72 674.518 1528.58 C 680.755 1528.78 680.766 1528.39 684.527 1523.43 C 688.604 1522.15 698.338 1526.25 702.417 1528.14 C 703.408 1532.11 704.06 1534.74 702.239 1538.44 C 706.664 1540.41 708.982 1537.5 712.62 1540.01 C 708.483 1540.61 685.959 1540.43 680.765 1540.46 z"/>
<path transform="translate(0,0)" fill="rgb(181,240,42)" d="M 937.11 1525.24 C 943.668 1528.15 982.762 1551.17 983.972 1551.24 L 986.028 1549.67 C 988.543 1553.5 988.649 1552.41 988.672 1556.29 C 985.278 1560.49 979.24 1559.44 974.398 1559.07 C 978.039 1557.88 980.807 1558.37 984.546 1557.53 C 981.7 1553.64 965.066 1540.44 960.766 1540.5 L 960.291 1541.17 C 965.094 1546.29 973.144 1548.77 978.658 1554.16 L 977.49 1555.62 C 969.643 1556.27 954.825 1544.22 948.604 1539.46 C 944.667 1536.45 940.967 1529.62 937.11 1525.24 z"/>
<path transform="translate(0,0)" fill="rgb(134,204,18)" d="M 613.352 1509.1 L 783.224 1509.96 C 815.726 1509.93 894.339 1506.44 920.01 1517.5 C 919.324 1517.81 918.638 1518.12 917.951 1518.43 C 907.926 1515.7 887.162 1512.74 877.965 1512.74 C 852.701 1512.73 827.708 1514.3 802.738 1513.4 C 761.308 1511.92 720.412 1511.18 678.993 1511.47 C 663.665 1511.61 643.544 1510.76 628.565 1511.8 C 624.102 1507.87 620.187 1510.33 613.352 1509.1 z"/>
<path transform="translate(0,0)" fill="url(#Gradient7)" d="M 482.869 1087.49 C 487.867 1090.78 497.528 1090.48 503.885 1090.5 C 505.083 1125.08 504.116 1164.97 504.12 1199.92 L 504.179 1405.43 C 504.183 1418.29 502.765 1497.64 505.698 1505.62 C 517.536 1509.83 593.489 1506.73 613.352 1509.1 C 620.187 1510.33 624.102 1507.87 628.565 1511.8 C 621.012 1512.37 613.947 1512.53 606.373 1512.7 C 615.29 1513.09 645.43 1512.09 651.16 1514.01 C 652.594 1517.78 646.163 1524.79 649.764 1530.59 C 650.761 1532.19 650.033 1533.72 649.23 1535.2 C 652.95 1538.86 662.163 1538.33 667.486 1539.75 C 662.583 1542.13 656.04 1540.67 650.289 1540.63 C 640.028 1540.56 629.768 1540.3 619.499 1540.29 L 446.122 1539.88 C 436.504 1539.94 407.254 1538.64 400.47 1541.36 C 373.121 1539.06 372.191 1512.19 393.893 1508.67 C 418.828 1504.62 451.653 1509.71 477.179 1507.43 C 480.741 1507.12 481.039 1505.93 482.757 1503.32 C 484.017 1479.33 482.305 1447.71 482.631 1422.66 C 483.519 1354.48 481.92 1285.52 483.048 1217.38 C 482.186 1208.99 482.848 1184.3 482.834 1175.01 C 482.653 1145.84 482.665 1116.67 482.869 1087.49 z"/>
<path transform="translate(0,0)" fill="rgb(134,204,18)" d="M 483.048 1217.38 C 485.889 1227.11 485.1 1268.61 485.123 1281.28 C 485.336 1332.05 484.997 1382.82 484.106 1433.58 C 484 1444.42 487.166 1496.35 484.065 1503.97 C 482.865 1503.6 483.213 1503.94 482.757 1503.32 C 484.017 1479.33 482.305 1447.71 482.631 1422.66 C 483.519 1354.48 481.92 1285.52 483.048 1217.38 z"/>
<path transform="translate(0,0)" fill="rgb(154,224,25)" d="M 712.62 1540.01 C 724.522 1541.08 776.109 1537.33 780.555 1541.95 C 767.075 1543.09 732.368 1542.02 718.142 1541.97 L 596.751 1542.01 L 468.17 1542.22 C 451.747 1542.24 415.744 1543.18 400.47 1541.36 C 407.254 1538.64 436.504 1539.94 446.122 1539.88 L 619.499 1540.29 C 629.768 1540.3 640.028 1540.56 650.289 1540.63 C 656.04 1540.67 662.583 1542.13 667.486 1539.75 C 672.549 1540.84 675.634 1540.55 680.765 1540.46 C 685.959 1540.43 708.483 1540.61 712.62 1540.01 z"/>
<path transform="translate(0,0)" fill="rgb(232,253,80)" d="M 466.158 937.759 C 470.46 935.931 477.322 939.912 481.453 941.968 C 481.582 947.241 481.868 953.338 481.792 958.539 C 481.226 954.348 480.787 950.846 480.491 946.633 L 467.104 945.252 C 466.84 954.142 467.099 977.347 466.202 984.509 C 465.742 969.376 466.095 952.989 466.158 937.759 z"/>
<path transform="translate(0,0)" fill="rgb(232,253,80)" d="M 1374.36 370.076 C 1402.81 369.722 1431.26 369.613 1459.71 369.751 C 1505.78 369.751 1545.5 362.418 1545.65 424.967 C 1545.82 500.087 1545.81 575.267 1545.8 650.393 L 1545.76 710.507 C 1545.74 719.576 1545.19 732.336 1545.89 741.082 C 1547.85 743.088 1550.85 746.334 1552.93 747.971 L 1555.39 747.791 C 1561.42 753.046 1583.88 773.069 1585.84 779.999 C 1590.23 786.026 1600.09 793.916 1605.79 799.302 L 1652.01 843.547 C 1665.5 856.318 1684.86 873.251 1695.9 887.765 C 1699.18 892.073 1699.79 899.48 1699.74 904.873 C 1697.18 912.761 1695.67 916.145 1689.91 922.562 C 1685.28 919.168 1684.88 915.309 1683.21 909.857 C 1683.04 909.616 1682.86 909.374 1682.68 909.132 L 1681.77 907.946 C 1673.9 897.631 1644.5 874.541 1633.25 865.223 C 1624.64 858.535 1606.62 840.101 1598.48 832.125 L 1528.7 763.352 C 1513.91 746.896 1490.89 723.844 1474.72 708.914 L 1469.3 703.099 C 1478.73 706.183 1493.81 729.686 1504.29 733.182 L 1505.81 732.193 C 1506.24 724.971 1503.97 723.246 1502.58 717.069 C 1501.84 713.769 1501.57 704.887 1501.51 701.495 C 1497.12 697.224 1491.14 692.124 1489.05 686.564 L 1487.32 683.545 C 1487.49 681.643 1486.73 665.421 1486.7 661.66 L 1486.55 606.159 L 1486.6 421.866 L 1381.88 421.89 L 1381.78 513.505 C 1381.78 519.324 1382.24 546.37 1381.38 550.253 L 1379.5 550.938 C 1371.59 543.142 1324.83 501.673 1323.26 495.454 C 1321.26 478.738 1321.06 420.878 1325.02 406.461 C 1327.29 397.889 1331.74 390.05 1337.93 383.71 C 1348.52 373.052 1359.93 370.085 1374.36 370.076 z"/>
<path transform="translate(0,0)" fill="url(#Gradient6)" d="M 1374.36 370.076 C 1402.81 369.722 1431.26 369.613 1459.71 369.751 C 1505.78 369.751 1545.5 362.418 1545.65 424.967 C 1545.82 500.087 1545.81 575.267 1545.8 650.393 L 1545.76 710.507 C 1545.74 719.576 1545.19 732.336 1545.89 741.082 C 1547.85 743.088 1550.85 746.334 1552.93 747.971 L 1555.39 747.791 C 1561.42 753.046 1583.88 773.069 1585.84 779.999 C 1590.23 786.026 1600.09 793.916 1605.79 799.302 L 1652.01 843.547 C 1665.5 856.318 1684.86 873.251 1695.9 887.765 C 1699.18 892.073 1699.79 899.48 1699.74 904.873 C 1697.18 912.761 1695.67 916.145 1689.91 922.562 C 1685.28 919.168 1684.88 915.309 1683.21 909.857 C 1683.04 909.616 1682.86 909.374 1682.68 909.132 L 1681.77 907.946 C 1673.9 897.631 1644.5 874.541 1633.25 865.223 C 1624.64 858.535 1606.62 840.101 1598.48 832.125 L 1528.7 763.352 C 1513.91 746.896 1490.89 723.844 1474.72 708.914 L 1469.3 703.099 C 1478.73 706.183 1493.81 729.686 1504.29 733.182 L 1505.81 732.193 C 1506.24 724.971 1503.97 723.246 1502.58 717.069 C 1501.84 713.769 1501.57 704.887 1501.51 701.495 C 1497.12 697.224 1491.14 692.124 1489.05 686.564 L 1492.2 688.601 C 1504.57 701.837 1509.17 703.857 1520 720.398 C 1519.17 713.074 1519.64 700.134 1519.7 692.346 L 1519.89 644.762 L 1519.9 479.839 C 1519.94 459.348 1520.22 438.712 1519.81 418.224 C 1519.63 409.185 1517.82 403.01 1511.52 396.397 C 1503.06 383.364 1440.57 388.943 1423.44 387.955 C 1412.81 387.341 1383.03 387.155 1373.74 388.794 L 1372.23 388.711 C 1360.25 385.695 1355.88 400.635 1347.33 403.917 L 1344.22 400.754 C 1343.96 399.031 1343.42 395.19 1342.76 393.774 C 1336.06 379.257 1350.51 376.389 1360.91 373.307 C 1365.96 371.813 1369.66 372.799 1374.36 370.076 z"/>
<path transform="translate(0,0)" fill="rgb(232,253,80)" d="M 1683.21 909.857 C 1692.8 911.721 1689.15 907.305 1699.74 904.873 C 1697.18 912.761 1695.67 916.145 1689.91 922.562 C 1685.28 919.168 1684.88 915.309 1683.21 909.857 z"/>
<path transform="translate(0,0)" fill="rgb(17,44,5)" d="M 1552.93 747.971 L 1555.39 747.791 C 1561.42 753.046 1583.88 773.069 1585.84 779.999 C 1575.39 771.3 1562.43 757.89 1552.93 747.971 z"/>
<path transform="translate(0,0)" fill="rgb(154,224,25)" d="M 1323.26 495.454 C 1321.26 478.738 1321.06 420.878 1325.02 406.461 C 1327.29 397.889 1331.74 390.05 1337.93 383.71 C 1348.52 373.052 1359.93 370.085 1374.36 370.076 C 1369.66 372.799 1365.96 371.813 1360.91 373.307 C 1350.51 376.389 1336.06 379.257 1342.76 393.774 C 1343.42 395.19 1343.96 399.031 1344.22 400.754 L 1347.33 403.917 C 1355.88 400.635 1360.25 385.695 1372.23 388.711 L 1373.74 388.794 C 1380.81 388.838 1398.96 388.752 1405.25 389.931 C 1393.67 390.363 1381.93 390.106 1370.48 391.021 C 1366.13 391.369 1359.29 398.72 1356.24 401.27 C 1346.86 409.106 1338.8 439.34 1343.52 450.472 C 1347.06 452.682 1353.6 449.484 1357.51 448.055 C 1357.52 440.331 1356.46 420.826 1360.34 415.449 C 1367.55 414.625 1378.88 398.35 1385.51 391.995 C 1388.61 391.979 1393.61 391.614 1396.34 392.497 C 1385.12 393.423 1384.46 394.023 1376.76 403.081 L 1362.13 420.516 C 1361.95 449.994 1360.96 491.578 1363.12 520.217 C 1371.05 525.716 1373.41 527.61 1378.7 536.134 C 1378.91 540.788 1378.98 546.395 1379.5 550.938 C 1371.59 543.142 1324.83 501.673 1323.26 495.454 z"/>
<path transform="translate(0,0)" fill="url(#Gradient5)" d="M 1323.26 495.454 C 1321.26 478.738 1321.06 420.878 1325.02 406.461 C 1327.29 397.889 1331.74 390.05 1337.93 383.71 C 1348.52 373.052 1359.93 370.085 1374.36 370.076 C 1369.66 372.799 1365.96 371.813 1360.91 373.307 C 1350.51 376.389 1336.06 379.257 1342.76 393.774 C 1343.42 395.19 1343.96 399.031 1344.22 400.754 L 1347.33 403.917 C 1355.88 400.635 1360.25 385.695 1372.23 388.711 C 1335.33 403.459 1341.85 433.835 1341.04 466.482 C 1340.79 476.533 1343.11 489.428 1338.55 498.386 L 1336.6 498.345 L 1338.75 498.369 L 1337.71 497.809 C 1339.99 491.446 1336.23 478.802 1327.37 478.576 C 1322.48 482.893 1325.05 489.109 1323.26 495.454 z"/>
<path transform="translate(0,0)" fill="rgb(154,224,25)" d="M 1511.52 396.397 C 1517.82 403.01 1519.63 409.185 1519.81 418.224 C 1520.22 438.712 1519.94 459.348 1519.9 479.839 L 1519.89 644.762 L 1519.7 692.346 C 1519.64 700.134 1519.17 713.074 1520 720.398 C 1509.17 703.857 1504.57 701.837 1492.2 688.601 C 1496.9 689.536 1505.56 696.896 1509.01 700.462 C 1511.05 702.565 1510.6 707.35 1514.69 708.49 C 1513.87 693.192 1513.42 677.876 1513.35 662.555 C 1511.23 669.159 1514.43 683.32 1509.13 688.282 L 1507.82 687.806 C 1511.1 669.592 1511.12 654.469 1511.75 635.967 L 1514.05 573.003 C 1515.58 519.988 1518.08 467.116 1517.03 414.006 C 1516.9 407.481 1512.34 402.132 1511.52 396.397 z"/>
<path transform="translate(0,0)" fill="rgb(254,254,216)" d="M 1411.55 452.043 L 1459.93 452.078 L 1459.88 621.18 C 1458.56 619.896 1455.4 616.576 1454.02 615.825 C 1448.47 614.173 1414.53 580.225 1411.81 574.381 L 1411.55 452.043 z"/>
<path transform="translate(0,0)" fill="rgb(17,44,5)" d="M 1411.81 574.381 C 1416.77 576.8 1449.73 610.135 1454.02 615.825 C 1448.47 614.173 1414.53 580.225 1411.81 574.381 z"/>
<path transform="translate(0,0)" fill="rgb(33,73,10)" d="M 893.162 917.042 C 908.671 871.683 965.066 895.317 997.555 907.104 C 1113.81 949.28 1235.13 1025.07 1289.31 1140.76 C 1304.34 1173.58 1315.85 1218.69 1315.43 1255.13 C 1398.79 1164.22 1488.45 1123.49 1607.66 1096.76 C 1642.93 1088.98 1679.62 1081.54 1715.61 1079.05 C 1753.07 1076.47 1775.45 1093.47 1775.14 1132.7 C 1773.54 1330.44 1710.36 1538.82 1493.86 1587.85 C 1454.42 1596.36 1410.11 1598.19 1370.21 1593.68 C 1362.97 1592.87 1347.18 1591.33 1340.5 1589.03 C 1331.23 1604.74 1305.2 1629.63 1286.76 1634.6 C 1265.45 1640.34 1238.78 1629.86 1233.29 1606.84 C 1228.89 1588.42 1235.62 1576.9 1244.76 1562.01 C 1216.31 1562.38 1200.45 1558.57 1173.61 1549.94 C 1167.96 1548.12 1151.49 1547.1 1144.88 1546.37 C 1042.08 1535.76 947.904 1484.14 883.659 1403.19 C 839.739 1348.17 815.657 1286.73 808.709 1216.74 C 805.652 1185.94 799.174 1142.01 827.491 1120.36 C 848.827 1104.04 882.923 1109.62 907.468 1113.26 L 905.29 1104.56 C 894.252 1069.36 883.208 950.616 893.162 917.042 z"/>
<path transform="translate(0,0)" fill="rgb(2,11,1)" d="M 893.162 917.042 C 896.124 921.65 892.845 954 892.881 962.052 C 893.023 993.629 894.223 1025.68 898.632 1056.98 C 900.146 1067.72 907.703 1093.76 905.731 1102.85 C 905.606 1103.42 905.437 1103.99 905.29 1104.56 C 894.252 1069.36 883.208 950.616 893.162 917.042 z"/>
<path transform="translate(0,0)" fill="rgb(2,11,1)" d="M 1340.5 1589.03 L 1341.07 1587.64 C 1341.37 1587.51 1341.68 1587.38 1341.98 1587.26 C 1379.14 1591.54 1417.11 1595.59 1454.5 1590.72 C 1464.7 1589.39 1488.57 1585.28 1493.86 1587.85 C 1454.42 1596.36 1410.11 1598.19 1370.21 1593.68 C 1362.97 1592.87 1347.18 1591.33 1340.5 1589.03 z"/>
<path transform="translate(0,0)" fill="rgb(154,224,25)" d="M 917.159 958.369 C 916.947 950.325 915.802 927.692 918.72 921.496 C 927.872 902.065 967.377 923.413 981.627 927.266 C 986.834 928.673 995.885 932.754 1000.79 934.72 C 1022.88 942.967 1044.02 953.379 1064.74 964.317 C 1145.54 1006.97 1226.4 1068.45 1264.41 1153.99 C 1267.5 1160.95 1272.44 1171.78 1273.8 1179.05 C 1285.23 1204.48 1291.94 1259.67 1279.91 1286.09 C 1270.84 1306.03 1258.18 1339.87 1242.61 1355.13 L 1243.12 1342.02 L 1243.28 1315.21 C 1243.18 1237.9 1223.12 1175.07 1171.27 1116.77 C 1161.52 1105.8 1150.81 1095.79 1140.41 1085.4 C 1128.05 1075.9 1115.44 1064.68 1102.71 1055.89 C 1073.62 1035.81 1042.34 1017.27 1011.2 1000.56 C 1002.49 995.888 977.383 982.733 968.536 980.281 C 967.515 982.288 967.949 987.523 967.98 990.172 C 970.037 1008.69 973.409 1029.37 975.142 1047.31 C 985.273 1100.89 993.536 1142.69 1015.44 1193.8 C 1024.04 1213.88 1034.72 1231.45 1042.61 1249.21 C 1031.13 1245.13 1021.54 1241.47 1010.32 1236.71 C 1001.19 1233.16 992.151 1229.39 983.203 1225.4 C 947.979 1213.36 916.657 1200.02 879.598 1188.07 C 881.332 1199.68 882.977 1210.32 885.252 1221.82 C 886.875 1230.02 890.143 1240.26 891.501 1247.9 C 918.07 1326.73 975.441 1391.44 1050.52 1427.26 C 1080.9 1442.1 1100.88 1448.19 1134.82 1452.65 C 1139.83 1460.47 1158.98 1502.14 1147.77 1508.69 C 1139.74 1513.38 1088.58 1505.29 1080.28 1500.29 C 1076.68 1499.77 1070.51 1498.07 1067 1496.99 C 987.059 1472.43 917.061 1412.27 877.607 1338.95 C 853.97 1294.68 839.553 1244.93 836.218 1194.9 C 835.176 1179.26 831.707 1147.65 849.91 1141.39 C 876.152 1132.37 925.41 1148.22 950.143 1157.98 C 923.652 1109.57 917.987 1013.37 917.159 958.369 z"/>
<path transform="translate(0,0)" fill="url(#Gradient4)" d="M 998.355 959.852 L 998.424 959.144 C 994.261 955.45 990.58 956.591 986.333 953.287 C 985.79 950.511 985.741 949.886 983.965 947.688 C 983.498 942.639 983.017 936.487 987.641 933.546 C 993.62 933.277 996.804 936.528 1000.79 934.72 C 1022.88 942.967 1044.02 953.379 1064.74 964.317 C 1145.54 1006.97 1226.4 1068.45 1264.41 1153.99 C 1267.5 1160.95 1272.44 1171.78 1273.8 1179.05 C 1285.23 1204.48 1291.94 1259.67 1279.91 1286.09 C 1270.84 1306.03 1258.18 1339.87 1242.61 1355.13 L 1243.12 1342.02 C 1249.1 1329.7 1241.89 1265.64 1239.85 1250 L 1241.2 1250.01 L 1242.65 1246.67 C 1247.93 1250.58 1247.94 1265 1253.42 1266.3 L 1255.17 1265.29 L 1256.91 1266.23 C 1257.18 1267.62 1257.42 1268.91 1257.64 1270.3 C 1257.43 1265.54 1256.94 1262.01 1258.12 1257.39 C 1250.45 1198.61 1237.34 1158.58 1200.73 1110.44 C 1193.69 1101.19 1187.51 1092.77 1179.02 1084.67 C 1166.04 1070.52 1152.05 1057.32 1137.17 1045.19 C 1115.55 1027.67 1072.1 995.865 1047.02 984.397 C 1031.44 975.082 1014.1 968.468 998.355 959.852 z"/>
<path transform="translate(0,0)" fill="rgb(232,253,80)" d="M 1248.6 1163.62 C 1251.44 1159.26 1254.83 1151.08 1260.18 1150.8 C 1264.72 1155.27 1270.57 1174.22 1273.14 1180.43 L 1273.8 1179.05 C 1285.23 1204.48 1291.94 1259.67 1279.91 1286.09 C 1270.84 1306.03 1258.18 1339.87 1242.61 1355.13 L 1243.12 1342.02 C 1249.1 1329.7 1241.89 1265.64 1239.85 1250 L 1241.2 1250.01 L 1242.65 1246.67 C 1247.93 1250.58 1247.94 1265 1253.42 1266.3 L 1255.17 1265.29 L 1256.91 1266.23 C 1257.18 1267.62 1257.42 1268.91 1257.64 1270.3 C 1257.43 1265.54 1256.94 1262.01 1258.12 1257.39 C 1261.1 1266.99 1258.59 1283.92 1262.05 1291.07 L 1263.17 1287.7 C 1268.13 1272.52 1270.72 1240.15 1267.57 1224.66 C 1264.92 1211.59 1254.34 1174.93 1248.6 1163.62 z"/>
<path transform="translate(0,0)" fill="url(#Gradient3)" d="M 917.159 958.369 L 918.646 962.321 C 919.768 954.979 916.852 939.725 918.082 935.209 C 922.062 934.347 924.795 936.742 932 936.493 C 931.984 941.093 931.828 960.516 933.85 963.722 C 935.856 1005.1 937.898 1045.82 948.403 1086.21 C 955.061 1119.54 969.097 1152.9 984.545 1182.91 C 987.033 1187.74 989.595 1191.4 991.754 1196.58 C 964.607 1185.61 943.694 1169.78 913.119 1163.36 C 873.368 1155.01 853.444 1141.39 856.292 1194.72 C 858.452 1238.65 869.298 1281.72 888.205 1321.43 C 921.629 1393.48 974.68 1450.93 1050.53 1478.66 C 1058.68 1481.62 1066.88 1484.45 1075.12 1487.14 L 1076.13 1488.77 C 1091.01 1493.45 1134.4 1502.77 1148.5 1501.84 L 1149.45 1502.72 L 1147.74 1507.08 C 1135.91 1511.69 1094.26 1503.93 1081.93 1499.49 C 1081.37 1499.73 1080.7 1499.84 1080.28 1500.29 C 1076.68 1499.77 1070.51 1498.07 1067 1496.99 C 987.059 1472.43 917.061 1412.27 877.607 1338.95 C 853.97 1294.68 839.553 1244.93 836.218 1194.9 C 835.176 1179.26 831.707 1147.65 849.91 1141.39 C 876.152 1132.37 925.41 1148.22 950.143 1157.98 C 923.652 1109.57 917.987 1013.37 917.159 958.369 z"/>
<path transform="translate(0,0)" fill="rgb(232,253,80)" d="M 1139.57 1499.38 C 1128.8 1494.68 1117.55 1490.57 1106.56 1486.67 C 1009.95 1452.43 925.024 1386.13 895.887 1284.1 C 893.685 1276.39 887.767 1254.93 891.501 1247.9 C 918.07 1326.73 975.441 1391.44 1050.52 1427.26 C 1080.9 1442.1 1100.88 1448.19 1134.82 1452.65 C 1139.83 1460.47 1158.98 1502.14 1147.77 1508.69 C 1139.74 1513.38 1088.58 1505.29 1080.28 1500.29 C 1080.7 1499.84 1081.37 1499.73 1081.93 1499.49 C 1094.26 1503.93 1135.91 1511.69 1147.74 1507.08 L 1149.45 1502.72 L 1148.5 1501.84 C 1134.4 1502.77 1091.01 1493.45 1076.13 1488.77 L 1075.12 1487.14 C 1101.32 1493.98 1111.73 1496.55 1139.57 1499.38 z"/>
<path transform="translate(0,0)" fill="rgb(232,253,80)" d="M 967.107 1060.16 C 968.04 1054.2 963.871 1044.35 972.332 1041.53 C 972.829 1044.76 972.878 1044.96 975.142 1047.31 C 985.273 1100.89 993.536 1142.69 1015.44 1193.8 C 1024.04 1213.88 1034.72 1231.45 1042.61 1249.21 C 1031.13 1245.13 1021.54 1241.47 1010.32 1236.71 C 1010.68 1236.15 1012.13 1233.95 1012.16 1233.58 C 1012.54 1228.62 1002.29 1202.16 1000.63 1198.62 C 1000.09 1193.29 995.009 1178.38 993.353 1172.24 C 983.29 1134.97 973.361 1098.36 967.107 1060.16 z"/>
<path transform="translate(0,0)" fill="rgb(254,254,216)" d="M 917.159 958.369 C 916.947 950.325 915.802 927.692 918.72 921.496 C 927.872 902.065 967.377 923.413 981.627 927.266 C 986.834 928.673 995.885 932.754 1000.79 934.72 C 996.804 936.528 993.62 933.277 987.641 933.546 C 983.017 936.487 983.498 942.639 983.965 947.688 C 985.741 949.886 985.79 950.511 986.333 953.287 C 990.58 956.591 994.261 955.45 998.424 959.144 L 998.355 959.852 C 988.529 956.962 976.656 951.533 966.641 947.979 C 955.662 944.083 944.982 940.57 933.89 936.975 C 933.889 945.025 934.235 955.919 933.85 963.722 C 931.828 960.516 931.984 941.093 932 936.493 C 924.795 936.742 922.062 934.347 918.082 935.209 C 916.852 939.725 919.768 954.979 918.646 962.321 L 917.159 958.369 z"/>
<path transform="translate(0,0)" fill="rgb(181,240,42)" d="M 958.464 976.394 C 970.83 981.502 961.35 981.362 967.98 990.172 C 970.037 1008.69 973.409 1029.37 975.142 1047.31 C 972.878 1044.96 972.829 1044.76 972.332 1041.53 C 963.871 1044.35 968.04 1054.2 967.107 1060.16 C 959.658 1040.31 958.509 997.999 958.464 976.394 z"/>
<path transform="translate(0,0)" fill="rgb(134,204,18)" d="M 933.89 936.975 C 944.982 940.57 955.662 944.083 966.641 947.979 C 976.656 951.533 988.529 956.962 998.355 959.852 C 1014.1 968.468 1031.44 975.082 1047.02 984.397 C 1040.42 984.593 1010.81 967.46 1002.41 964.357 C 989.798 959.701 952.477 942.725 940.017 944.075 C 932.408 951.665 940.49 1040.28 943.961 1054.17 C 945.505 1060.35 949.572 1081.68 948.403 1086.21 C 937.898 1045.82 935.856 1005.1 933.85 963.722 C 934.235 955.919 933.889 945.025 933.89 936.975 z"/>
<path transform="translate(0,0)" fill="rgb(181,240,42)" d="M 1140.41 1085.4 L 1142.16 1084.94 C 1181.7 1118.87 1211.76 1162.46 1229.43 1211.48 L 1232.97 1210.85 L 1237.92 1217.04 L 1237.7 1218.61 C 1233.57 1221.07 1234.36 1219.78 1232.92 1223.52 L 1233.19 1224.03 L 1236.34 1222.24 L 1237.4 1223.03 C 1236.9 1231.52 1234.64 1224.69 1234.71 1228.99 C 1234.8 1234.64 1240.2 1244.51 1239.6 1249.5 L 1239.85 1250 C 1241.89 1265.64 1249.1 1329.7 1243.12 1342.02 L 1243.28 1315.21 C 1243.18 1237.9 1223.12 1175.07 1171.27 1116.77 C 1161.52 1105.8 1150.81 1095.79 1140.41 1085.4 z"/>
<path transform="translate(0,0)" fill="rgb(181,240,42)" d="M 1000.63 1198.62 C 1002.29 1202.16 1012.54 1228.62 1012.16 1233.58 C 1012.13 1233.95 1010.68 1236.15 1010.32 1236.71 C 1001.19 1233.16 992.151 1229.39 983.203 1225.4 C 986.508 1222.65 1001.96 1233.44 1006.49 1232.83 C 1008.65 1220.91 1001.3 1209.96 1000.63 1198.62 z"/>
<path transform="translate(0,0)" fill="rgb(134,204,18)" d="M 1137.17 1045.19 C 1152.05 1057.32 1166.04 1070.52 1179.02 1084.67 C 1178.08 1084.61 1176.44 1084.42 1175.87 1083.66 C 1170.45 1076.5 1138.5 1051.17 1137.17 1045.19 z"/>
<path transform="translate(0,0)" fill="url(#Gradient2)" d="M 1324.21 1456.8 C 1287.37 1439.97 1291.23 1389.6 1302.04 1357.57 C 1355.5 1199.25 1531.09 1135.12 1682.03 1112.5 C 1739.61 1104.15 1751.66 1095.61 1745.65 1161.29 C 1739.9 1224.1 1733.57 1287.44 1709.26 1346.63 C 1697.2 1382.82 1668.1 1435.46 1641.3 1462.7 C 1579.61 1540.93 1458.45 1578.23 1361.95 1559.76 L 1369.87 1550.57 C 1372.26 1547.13 1380.13 1538.73 1383.27 1535.21 L 1387.07 1530.72 C 1392.05 1525.03 1396.61 1519.92 1401.89 1514.51 C 1470.89 1512.19 1537.48 1481.63 1589.63 1436.88 C 1667.22 1370.32 1688.82 1262.65 1694.23 1164.4 C 1686.47 1166.68 1678.64 1168.7 1670.75 1170.48 L 1669.99 1170.76 C 1659.14 1174.63 1644.95 1177.94 1632.67 1180.9 C 1514.9 1209.25 1364.32 1269.33 1342.48 1405.16 C 1340.47 1417.64 1342.61 1436.13 1344.09 1448.5 C 1337.7 1454.16 1333.06 1458.75 1324.21 1456.8 z"/>
<path transform="translate(0,0)" fill="rgb(181,240,42)" d="M 1700.34 1133.52 L 1702.5 1134.61 C 1694.08 1137.28 1680.18 1138.46 1673.86 1140.79 L 1678.97 1141.76 C 1679.05 1149.39 1677.31 1159.59 1676.45 1167.51 C 1674.14 1168.16 1671.81 1168.79 1669.47 1169.39 L 1670.75 1170.48 L 1669.99 1170.76 C 1659.14 1174.63 1644.95 1177.94 1632.67 1180.9 C 1514.9 1209.25 1364.32 1269.33 1342.48 1405.16 C 1340.47 1417.64 1342.61 1436.13 1344.09 1448.5 C 1337.7 1454.16 1333.06 1458.75 1324.21 1456.8 C 1326.97 1449.75 1319.06 1428.13 1318.24 1419.45 C 1312.69 1361 1348.85 1299.51 1390.11 1260.69 C 1412.36 1237.6 1450.63 1210.64 1479.7 1197.31 C 1484.32 1193.44 1503.84 1185.45 1510.33 1182.74 C 1572.9 1156.57 1633.83 1144.36 1700.34 1133.52 z"/>
<path transform="translate(0,0)" fill="rgb(134,204,18)" d="M 1390.11 1260.69 C 1412.36 1237.6 1450.63 1210.64 1479.7 1197.31 C 1477.17 1201.66 1456.89 1212.96 1452.1 1214.33 C 1441.02 1217.51 1396.14 1259.67 1390.11 1260.69 z"/>
<path transform="translate(0,0)" fill="rgb(232,253,80)" d="M 1700.34 1133.52 C 1707.86 1131.5 1715.03 1131.25 1722.09 1129.51 C 1723.29 1209.15 1705.51 1345.44 1650.66 1409.27 C 1649.68 1410.42 1648.67 1410.95 1647.38 1411.59 C 1643.01 1412.98 1632.82 1426.99 1629.53 1431.16 C 1576.7 1489.16 1489.03 1534.03 1409.59 1533.19 C 1401.22 1532.68 1395.39 1531.99 1387.07 1530.72 C 1392.05 1525.03 1396.61 1519.92 1401.89 1514.51 C 1470.89 1512.19 1537.48 1481.63 1589.63 1436.88 C 1667.22 1370.32 1688.82 1262.65 1694.23 1164.4 C 1686.47 1166.68 1678.64 1168.7 1670.75 1170.48 L 1669.47 1169.39 C 1671.81 1168.79 1674.14 1168.16 1676.45 1167.51 C 1677.31 1159.59 1679.05 1149.39 1678.97 1141.76 L 1673.86 1140.79 C 1680.18 1138.46 1694.08 1137.28 1702.5 1134.61 L 1700.34 1133.52 z"/>
<path transform="translate(0,0)" fill="rgb(154,224,25)" d="M 1629.53 1431.16 L 1630.94 1432.78 C 1619.84 1446.24 1602.09 1472.76 1592.18 1483.41 C 1555.97 1522.31 1493.98 1546.05 1441.88 1551.05 C 1417.12 1553.43 1394.41 1552 1369.87 1550.57 C 1372.26 1547.13 1380.13 1538.73 1383.27 1535.21 L 1387.07 1530.72 C 1395.39 1531.99 1401.22 1532.68 1409.59 1533.19 C 1489.03 1534.03 1576.7 1489.16 1629.53 1431.16 z"/>
<path transform="translate(0,0)" fill="rgb(134,204,18)" d="M 1387.07 1530.72 C 1395.39 1531.99 1401.22 1532.68 1409.59 1533.19 L 1410.54 1533.41 C 1417.98 1535.07 1420.78 1532.18 1424.52 1535.24 C 1419.55 1536.82 1415.78 1535.55 1411.19 1535.2 C 1400.58 1534.4 1394.39 1537.18 1383.27 1535.21 L 1387.07 1530.72 z"/>
<path transform="translate(0,0)" fill="rgb(181,240,42)" d="M 1635.47 1453.66 C 1650.26 1429.33 1667.34 1406 1681.45 1381.04 C 1684.5 1375.65 1697.05 1345.87 1700 1344.06 L 1700.48 1346.58 C 1697.73 1349.27 1697.13 1350.79 1695.31 1354.12 C 1697.28 1356.37 1698.63 1357.9 1700.83 1359.99 C 1703.7 1359.09 1704.85 1351.04 1709.26 1346.63 C 1697.2 1382.82 1668.1 1435.46 1641.3 1462.7 C 1641.63 1457.46 1643.6 1459.88 1643.59 1455.07 C 1640.37 1453.66 1638.93 1453.82 1635.47 1453.66 z"/>
<path transform="translate(0,0)" fill="rgb(181,240,42)" d="M 1629.53 1431.16 C 1632.82 1426.99 1643.01 1412.98 1647.38 1411.59 C 1643.26 1417.82 1636.16 1427.53 1630.94 1432.78 L 1629.53 1431.16 z"/>
<path transform="translate(0,0)" fill="rgb(181,240,42)" d="M 1039.62 1084.37 C 1039.9 1080.7 1039.82 1079.83 1041.18 1076.3 C 1085.83 1118.07 1113.09 1176.41 1140.94 1230.13 C 1177.66 1300.95 1215.65 1373.5 1236.4 1450.84 C 1239.74 1463.48 1244.78 1484.78 1245.22 1497.34 C 1247.99 1504.42 1247.26 1525.72 1241.82 1532.17 C 1233.2 1542.36 1212.54 1540.05 1204.06 1531.1 C 1194.86 1521.4 1193.1 1500.45 1189 1488.02 C 1178.25 1448.9 1161.16 1409.74 1141.52 1374.23 C 1091.95 1284.59 1041.64 1191.05 1035.03 1086.43 L 1039.62 1084.37 z"/>
<path transform="translate(0,0)" fill="rgb(250,254,125)" d="M 1039.62 1084.37 C 1039.9 1080.7 1039.82 1079.83 1041.18 1076.3 C 1085.83 1118.07 1113.09 1176.41 1140.94 1230.13 C 1177.66 1300.95 1215.65 1373.5 1236.4 1450.84 C 1239.74 1463.48 1244.78 1484.78 1245.22 1497.34 L 1244.26 1498.41 C 1243.73 1493.45 1244.23 1490.8 1239.63 1488.5 C 1232.75 1489.28 1222.84 1498.88 1222.44 1505.54 C 1215.89 1489.17 1215.44 1469.09 1206.35 1450.98 C 1201.26 1433.46 1192.04 1412.25 1184.58 1395.76 L 1184.17 1395.37 C 1180.97 1385.87 1175.54 1375.13 1171.19 1365.92 C 1159.03 1337.01 1134.07 1288.28 1118.91 1259.44 C 1113.81 1247.49 1106.76 1233.76 1101.18 1221.76 L 1075.33 1164.86 C 1074.51 1161.64 1068.84 1150.26 1067.32 1146.48 C 1059.75 1127.69 1045.38 1103.3 1039.62 1084.37 z"/>
<path transform="translate(0,0)" fill="rgb(134,204,18)" d="M 1118.91 1259.44 L 1117.54 1259.33 C 1110.95 1247.05 1074.75 1174.32 1075.33 1164.86 L 1101.18 1221.76 C 1106.76 1233.76 1113.81 1247.49 1118.91 1259.44 z"/>
<path transform="translate(0,0)" fill="rgb(134,204,18)" d="M 1184.58 1395.76 C 1192.04 1412.25 1201.26 1433.46 1206.35 1450.98 L 1205.04 1451.37 C 1201.55 1444.94 1183.35 1400.34 1184.58 1395.76 z"/>
<path transform="translate(0,0)" fill="rgb(154,224,25)" d="M 1171.19 1365.92 C 1175.54 1375.13 1180.97 1385.87 1184.17 1395.37 C 1179.3 1391.42 1170.31 1371.64 1171.19 1365.92 z"/>
<path transform="translate(0,0)" fill="url(#Gradient1)" d="M 1297.35 1602.92 C 1290.47 1607.6 1276.47 1615.65 1268.34 1611.14 C 1243.33 1597.25 1275.43 1564.27 1286.22 1550.74 C 1301.45 1531.86 1316.9 1513.14 1332.56 1494.61 C 1411.23 1400.61 1487.22 1298.79 1608.34 1261.8 C 1596.18 1275 1584.16 1288.33 1572.27 1301.78 L 1388.42 1505.97 C 1361.16 1535.83 1326.29 1576.58 1297.35 1602.92 z"/>
<path transform="translate(0,0)" fill="rgb(232,253,80)" d="M 1524.25 1323.3 C 1529.11 1318.99 1542.91 1315.09 1548.69 1311.47 C 1555.21 1307.38 1559.64 1301.78 1566.91 1298.26 C 1568.65 1299.53 1570.42 1300.68 1572.27 1301.78 L 1388.42 1505.97 C 1361.16 1535.83 1326.29 1576.58 1297.35 1602.92 C 1296.78 1596.73 1302.69 1589.13 1296.31 1583.38 C 1287.07 1583.79 1285.98 1594.63 1276.18 1596.75 C 1283.48 1589.38 1295.23 1574.39 1302.53 1565.89 C 1321.74 1543.92 1340.76 1521.79 1359.57 1499.48 C 1408.91 1441.75 1464.42 1388.92 1515.33 1332.64 C 1517.8 1329.9 1523.63 1326.47 1526.85 1323.62 L 1524.25 1323.3 z"/>
<path transform="translate(0,0)" fill="rgb(181,240,42)" d="M 1524.25 1323.3 L 1526.85 1323.62 C 1523.63 1326.47 1517.8 1329.9 1515.33 1332.64 C 1464.42 1388.92 1408.91 1441.75 1359.57 1499.48 C 1340.76 1521.79 1321.74 1543.92 1302.53 1565.89 C 1295.23 1574.39 1283.48 1589.38 1276.18 1596.75 L 1274.28 1595.38 C 1273.8 1593.99 1273.48 1592.85 1273.69 1591.35 C 1274.99 1582.02 1315.17 1539.94 1324.23 1529.55 C 1367.95 1479.4 1410.42 1428.51 1457.57 1381.42 C 1478.1 1360.91 1499.8 1339.07 1524.25 1323.3 z"/>
<path transform="translate(0,0)" fill="rgb(232,253,80)" d="M 1033.64 1069.11 L 1041.18 1076.3 C 1039.82 1079.83 1039.9 1080.7 1039.62 1084.37 L 1035.03 1086.43 C 1035.11 1081.38 1034.16 1074.29 1033.64 1069.11 z"/>
</svg>