<svg version="1.1" xmlns="http://www.w3.org/2000/svg" style="display: block;" viewBox="0 0 2048 2048" width="1024" height="1024" preserveAspectRatio="none">
<defs>
	<linearGradient id="Gradient1" gradientUnits="userSpaceOnUse" x1="1308.19" y1="1389.17" x2="1253.49" y2="1335.94">
		<stop class="stop0" offset="0" stop-opacity="1" stop-color="rgb(254,255,81)"/>
		<stop class="stop1" offset="1" stop-opacity="1" stop-color="rgb(255,255,171)"/>
	</linearGradient>
	<linearGradient id="Gradient2" gradientUnits="userSpaceOnUse" x1="1537.29" y1="1445.04" x2="1339.28" y2="1047.33">
		<stop class="stop0" offset="0" stop-opacity="1" stop-color="rgb(250,255,85)"/>
		<stop class="stop1" offset="1" stop-opacity="1" stop-color="rgb(255,255,180)"/>
	</linearGradient>
	<linearGradient id="Gradient3" gradientUnits="userSpaceOnUse" x1="630.088" y1="1499.57" x2="700.806" y2="524.94">
		<stop class="stop0" offset="0" stop-opacity="1" stop-color="rgb(158,189,0)"/>
		<stop class="stop1" offset="1" stop-opacity="1" stop-color="rgb(181,253,55)"/>
	</linearGradient>
	<linearGradient id="Gradient4" gradientUnits="userSpaceOnUse" x1="1267.44" y1="950.955" x2="1146.13" y2="276.155">
		<stop class="stop0" offset="0" stop-opacity="1" stop-color="rgb(160,199,3)"/>
		<stop class="stop1" offset="1" stop-opacity="1" stop-color="rgb(194,255,57)"/>
	</linearGradient>
</defs>
<path transform="translate(0,0)" fill="rgb(39,68,7)" d="M 875.807 472.354 C 858.972 460.513 846.85 450.495 827.954 441.247 C 704.331 380.744 563.556 421.169 487.033 535.168 C 432.678 616.143 417.617 705.616 433.923 801.152 C 468.354 991.928 646.373 1191.42 787.18 1316.24 C 849.924 1370.76 915.467 1421.98 983.542 1469.69 C 1022 1496.63 1061.03 1510.83 1018.54 1556.9 C 971.422 1607.99 949.41 1587.36 901.331 1554.93 C 870.178 1533.49 839.521 1511.33 809.386 1488.48 C 604.085 1334.97 357.552 1072.37 318.345 809.463 C 299.619 683.898 322.199 551.571 399.696 448.502 C 460.961 368.614 550.835 315.615 650.394 300.663 C 752.727 286.465 856.507 313.513 938.891 375.853 C 978.931 406.14 998.151 429.913 1028.61 468.434 C 1158.31 294.679 1380.22 237.639 1563.21 368.038 C 1721.87 481.102 1764.22 705.593 1712.19 884.248 C 1706.83 902.794 1699.96 944.965 1674.43 945.748 C 1651.07 945.667 1614.85 946.897 1595.38 932.324 C 1573.14 915.668 1593.41 884.789 1598.98 864.923 C 1672.36 666.198 1563.75 392.351 1319.49 414.598 C 1219.9 423.668 1147.08 486.042 1096.46 567.782 C 1079.89 594.53 1063.69 637.496 1029.04 642.002 C 1015.1 643.814 993.606 632.141 986.445 619.936 C 979.881 613.598 962.632 581.523 957.16 572.191 C 934.195 533.017 910.829 501.618 875.807 472.354 z"/>
<path transform="translate(0,0)" fill="rgb(4,12,0)" d="M 875.807 472.354 L 878.375 471.672 C 885.419 475.833 897.146 487.723 902.951 493.755 C 922.601 514.099 939.806 536.671 954.215 561.011 C 964.752 578.841 975.637 599.993 986.966 617.007 C 987.078 619.324 987.497 618.524 986.445 619.936 C 979.881 613.598 962.632 581.523 957.16 572.191 C 934.195 533.017 910.829 501.618 875.807 472.354 z"/>
<path transform="translate(0,0)" fill="rgb(242,254,106)" d="M 1027.82 512.038 C 1031.92 507.231 1035.48 501.909 1039.09 496.727 C 1061.49 464.615 1086.59 433.656 1116.17 407.896 C 1186.52 345.649 1278.76 313.968 1372.51 319.849 C 1462.54 325.839 1546.37 367.772 1605.16 436.215 C 1676.22 518.396 1712.91 640.224 1705.07 747.821 C 1706.05 788.899 1691.5 839.874 1681.36 879.413 C 1672.66 913.297 1672.65 922.634 1634.26 915.292 C 1629.58 914.396 1616.16 913.204 1617.39 905.455 C 1622.64 883.632 1632.32 862.752 1637.87 840.892 C 1675.89 697.817 1638.91 529.289 1516.84 437.374 C 1410.22 356.949 1261.68 365.567 1159.38 448.807 C 1110.53 488.554 1078.5 534.236 1048.11 589.161 C 1043.73 597.084 1035.26 609.286 1025.42 609.634 C 1019.45 609.845 1010.99 603.277 1007.52 598.721 C 981.809 554.841 960.826 511.327 924.924 474.244 C 869.241 416.73 790.549 382.917 710.518 381.149 C 648.475 380.238 587.825 399.572 537.756 436.223 C 521.111 448.433 507.832 461.15 492.984 475.362 C 483.932 485.378 473.732 496.446 466.591 507.825 C 468.946 507.215 470.053 506.536 472.127 505.257 C 475.41 505.895 475.948 505.7 478.508 507.875 C 480.26 512.313 480.296 512.757 477.403 516.557 L 478.502 517.646 C 481.185 517.186 483.471 516.828 486.192 516.495 L 487.088 517.537 L 485.346 520.66 C 486.334 522.609 487.313 524.563 488.281 526.523 C 485.621 532.713 479.813 540.68 475.195 545.603 L 473.96 545.836 C 474.563 544.902 475.166 543.968 475.768 543.033 L 472.642 538.558 C 468.124 538.485 468.685 538.739 465.44 542.304 C 460.466 543.582 455.782 541.649 450.726 539.623 C 452.592 538.858 454.344 538.006 456.089 536.996 C 455.67 534.459 456.103 535.702 453.554 533.506 L 449.489 538.552 C 448.941 534.083 451.977 536.345 451.42 530.321 L 451.115 527.654 L 450.841 527.372 L 451.432 525.674 C 449.902 519.471 440.631 522.987 436.021 517.408 C 435.211 516.427 432.682 516.591 430.961 516.448 L 433.205 513.9 C 437.072 509.577 438.773 509.018 437.042 503.028 C 435.118 501.412 435.221 501.594 433.612 499.673 L 434.696 496.611 L 427.617 507.647 C 427.436 504.886 427.402 505.735 425.816 503.021 C 417.286 514.657 402.876 534.825 398.676 548.685 L 394.65 548.085 C 392.993 551.677 391.623 554.423 390.458 558.193 C 380.542 581.455 370.359 612.936 367.275 638.117 C 365.104 649.162 361.739 675.012 361.942 686.501 C 356.959 714.919 363.005 759.05 364.129 787.905 L 363.017 788.096 C 361.724 772.542 358.61 745.558 358.987 730.994 C 353.976 736.564 353.05 739.034 345.8 740.21 C 342.26 750.91 352.029 796.928 351.18 806.786 L 350.25 806.93 C 342.255 759.818 340.847 711.824 346.065 664.324 C 357.579 559.682 400.129 465.718 483.53 398.97 C 557.471 338.94 652.392 311.058 747.052 321.561 C 837.535 331.756 920.695 376.164 979.496 445.688 C 988.576 456.333 997.303 467.939 1005.39 479.338 C 1013.01 490.069 1019.41 501.895 1027.82 512.038 z"/>
<path transform="translate(0,0)" fill="rgb(248,254,156)" d="M 1027.82 512.038 C 1031.92 507.231 1035.48 501.909 1039.09 496.727 C 1061.49 464.615 1086.59 433.656 1116.17 407.896 C 1186.52 345.649 1278.76 313.968 1372.51 319.849 C 1462.54 325.839 1546.37 367.772 1605.16 436.215 C 1676.22 518.396 1712.91 640.224 1705.07 747.821 C 1701.32 757.596 1704.26 768.019 1700.47 777.084 C 1695.57 779.149 1693.87 776.775 1692.46 777.29 C 1689.25 778.455 1686.7 782.126 1681.79 782.269 C 1676.54 777.591 1683.03 764.994 1679.69 755.489 C 1680.52 747.478 1680.34 732.993 1680.3 724.701 C 1680.6 667.76 1669.35 611.35 1647.21 558.886 C 1639.91 541.778 1626.44 521.381 1620.73 505.075 C 1617.42 497.614 1610.75 487.718 1605.97 480.818 C 1576.64 438.453 1546.37 412.998 1503.65 385.76 C 1495.54 376.045 1443.13 356.673 1429.32 355.068 C 1416.11 353.534 1384.08 348.374 1370.49 348.165 C 1341.04 347.714 1300.2 349.236 1271.88 356.004 C 1247.71 360.811 1196.46 377.126 1176.04 390.023 C 1127.91 414.525 1087.18 451.418 1058.05 496.899 C 1049.14 510.56 1036.33 534.354 1026.13 545.811 C 1018.02 535.098 1018.01 531.383 1013.34 518.789 C 1007.19 502.227 996.417 489.918 986.227 476.142 C 961.242 442.363 916.868 398.035 878.18 380.616 C 876.783 379.624 875.676 378.864 874.083 378.208 C 797.597 346.742 714.8 342.076 634.05 357.853 C 616.151 361.35 593.555 370.127 576.143 376.977 C 530.782 397.981 476.537 428.114 452.86 474.043 C 449.076 481.382 437.384 491.849 439.352 500.293 L 441.252 501.705 C 442.357 499.833 442.355 499.858 443.163 497.986 C 446.425 498.021 458.176 504.864 459.81 507.084 C 452.521 507.636 447.47 501.748 444.135 504.551 C 443.695 509.183 443.773 508.82 447.658 512.004 C 446.597 515.856 444.696 513.308 444.014 518.45 C 446.893 519.495 452.991 519.06 456.331 519.008 C 458.568 515.397 459.628 513.659 462.324 510.43 L 462.303 508.849 L 460.977 508.006 C 462.81 504.959 490.109 475.929 492.984 475.362 C 483.932 485.378 473.732 496.446 466.591 507.825 C 468.946 507.215 470.053 506.536 472.127 505.257 C 475.41 505.895 475.948 505.7 478.508 507.875 C 480.26 512.313 480.296 512.757 477.403 516.557 L 478.502 517.646 C 481.185 517.186 483.471 516.828 486.192 516.495 L 487.088 517.537 L 485.346 520.66 C 486.334 522.609 487.313 524.563 488.281 526.523 C 485.621 532.713 479.813 540.68 475.195 545.603 L 473.96 545.836 C 474.563 544.902 475.166 543.968 475.768 543.033 L 472.642 538.558 C 468.124 538.485 468.685 538.739 465.44 542.304 C 460.466 543.582 455.782 541.649 450.726 539.623 C 452.592 538.858 454.344 538.006 456.089 536.996 C 455.67 534.459 456.103 535.702 453.554 533.506 L 449.489 538.552 C 448.941 534.083 451.977 536.345 451.42 530.321 L 451.115 527.654 L 450.841 527.372 L 451.432 525.674 C 449.902 519.471 440.631 522.987 436.021 517.408 C 435.211 516.427 432.682 516.591 430.961 516.448 L 433.205 513.9 C 437.072 509.577 438.773 509.018 437.042 503.028 C 435.118 501.412 435.221 501.594 433.612 499.673 L 434.696 496.611 L 427.617 507.647 C 427.436 504.886 427.402 505.735 425.816 503.021 C 417.286 514.657 402.876 534.825 398.676 548.685 L 394.65 548.085 C 392.993 551.677 391.623 554.423 390.458 558.193 C 380.542 581.455 370.359 612.936 367.275 638.117 C 365.104 649.162 361.739 675.012 361.942 686.501 C 356.959 714.919 363.005 759.05 364.129 787.905 L 363.017 788.096 C 361.724 772.542 358.61 745.558 358.987 730.994 C 353.976 736.564 353.05 739.034 345.8 740.21 C 342.26 750.91 352.029 796.928 351.18 806.786 L 350.25 806.93 C 342.255 759.818 340.847 711.824 346.065 664.324 C 357.579 559.682 400.129 465.718 483.53 398.97 C 557.471 338.94 652.392 311.058 747.052 321.561 C 837.535 331.756 920.695 376.164 979.496 445.688 C 988.576 456.333 997.303 467.939 1005.39 479.338 C 1013.01 490.069 1019.41 501.895 1027.82 512.038 z"/>
<path transform="translate(0,0)" fill="rgb(97,124,46)" d="M 466.591 507.825 C 468.946 507.215 470.053 506.536 472.127 505.257 C 475.41 505.895 475.948 505.7 478.508 507.875 C 480.26 512.313 480.296 512.757 477.403 516.557 L 478.502 517.646 C 481.185 517.186 483.471 516.828 486.192 516.495 L 487.088 517.537 L 485.346 520.66 C 486.334 522.609 487.313 524.563 488.281 526.523 C 485.621 532.713 479.813 540.68 475.195 545.603 L 473.96 545.836 C 474.563 544.902 475.166 543.968 475.768 543.033 L 472.642 538.558 C 468.124 538.485 468.685 538.739 465.44 542.304 C 460.466 543.582 455.782 541.649 450.726 539.623 C 452.592 538.858 454.344 538.006 456.089 536.996 C 455.67 534.459 456.103 535.702 453.554 533.506 L 449.489 538.552 C 448.941 534.083 451.977 536.345 451.42 530.321 L 451.115 527.654 C 454.451 525.535 454.922 523.446 459.026 521.251 C 464.747 521.771 461.866 527.529 467.572 531.055 L 468.712 530.053 C 467.079 527.555 467.353 528.336 466.474 525.576 C 468.92 524.971 469.089 524.792 471.344 523.591 L 471.49 522.019 C 467.826 519.552 465.524 518.511 463.27 514.873 C 463.375 511.044 463.895 511.631 466.591 507.825 z"/>
<path transform="translate(0,0)" fill="rgb(208,240,38)" d="M 425.816 503.021 C 434.315 491.033 441.802 481.266 452.019 470.499 L 452.615 470.754 C 447.256 479.987 440.564 487.663 434.696 496.611 L 427.617 507.647 C 427.436 504.886 427.402 505.735 425.816 503.021 z"/>
<path transform="translate(0,0)" fill="url(#Gradient4)" d="M 1271.88 356.004 C 1300.2 349.236 1341.04 347.714 1370.49 348.165 C 1384.08 348.374 1416.11 353.534 1429.32 355.068 C 1443.13 356.673 1495.54 376.045 1503.65 385.76 C 1546.37 412.998 1576.64 438.453 1605.97 480.818 C 1610.75 487.718 1617.42 497.614 1620.73 505.075 C 1626.44 521.381 1639.91 541.778 1647.21 558.886 C 1669.35 611.35 1680.6 667.76 1680.3 724.701 C 1680.34 732.993 1680.52 747.478 1679.69 755.489 C 1675.97 791.999 1672.54 829.981 1658.45 864.107 C 1654.78 872.981 1651.35 882.013 1648.12 891.052 C 1651.6 868.479 1657.66 848.818 1662.69 826.865 C 1667.82 803.862 1671.26 780.516 1672.99 757.011 C 1678.96 671.159 1659.86 578.104 1610.7 506.085 C 1604.33 496.758 1596.42 488.247 1588.99 479.73 C 1564.76 463.42 1547.41 437.033 1523.06 420.439 C 1518.31 417.197 1511.51 411.139 1506.99 407.247 C 1481.32 391.379 1440.35 376.979 1410.64 369.845 C 1405.3 368.563 1391.53 368.28 1385.3 367.2 C 1383.1 366.818 1375.46 365.48 1373.84 365.462 C 1366.17 365.377 1357.05 367.768 1349.28 367.444 C 1325.5 366.453 1299.44 369.464 1275.66 371.511 C 1273.55 371.692 1253.79 378.133 1250.22 379.115 C 1192.01 395.11 1134.63 432.452 1096.02 478.859 C 1088.38 488.043 1080.02 496.469 1073.37 506.867 C 1054.87 535.79 1043.2 568.376 1023.33 596.493 C 1025.04 591.811 1026.39 588.414 1027.47 583.508 C 1024.14 576.988 1024.82 584.928 1022.72 580.607 C 1019.98 574.957 1014.59 563.457 1011.9 558.443 C 1000.09 536.517 986.082 514.722 972.74 493.84 C 961.843 476.785 951.176 466.558 935.889 454.036 C 931.35 450.318 925.327 442.7 920.499 438.569 C 881.575 405.272 827.839 379.624 777.655 369.102 C 759.937 365.386 743.418 364.543 725.594 363.214 C 717.527 362.613 716.12 360.802 708.76 359.231 C 706.532 358.755 700.261 359.638 697.952 359.484 C 694.594 359.259 692.809 360.021 690.961 358.114 C 692.878 356.816 697.833 357.332 701.243 356.943 C 695.327 354.548 679.856 357.944 673.034 357.299 C 668.5 356.87 661.622 360.796 656.029 358.703 C 663.087 355.633 701.782 355.058 711.287 354.824 C 787.442 352.948 863.245 376.975 922.886 424.55 C 932.763 432.429 935.413 431.6 946.199 442.364 L 945.717 442.124 L 947.778 442.327 C 940.973 429.581 905.133 406.727 901.715 400.296 L 902.537 399.807 C 908.757 403.375 914.921 410.482 919.388 411.792 L 920.693 410.649 L 920.083 408.567 C 912.232 405.434 897.165 392.546 888.955 387.748 C 885.327 385.628 881.726 383.975 878.027 381.924 L 878.18 380.616 C 916.868 398.035 961.242 442.363 986.227 476.142 C 996.417 489.918 1007.19 502.227 1013.34 518.789 C 1018.01 531.383 1018.02 535.098 1026.13 545.811 C 1036.33 534.354 1049.14 510.56 1058.05 496.899 C 1087.18 451.418 1127.91 414.525 1176.04 390.023 C 1196.46 377.126 1247.71 360.811 1271.88 356.004 z"/>
<path transform="translate(0,0)" fill="rgb(242,254,106)" d="M 1271.88 356.004 C 1300.2 349.236 1341.04 347.714 1370.49 348.165 C 1384.08 348.374 1416.11 353.534 1429.32 355.068 C 1443.13 356.673 1495.54 376.045 1503.65 385.76 C 1546.37 412.998 1576.64 438.453 1605.97 480.818 C 1610.75 487.718 1617.42 497.614 1620.73 505.075 C 1613.62 505.024 1603.3 486.204 1598.79 479.802 C 1594.2 473.342 1589.27 467.124 1584.04 461.174 C 1547.71 419.148 1501.05 387.318 1448.67 368.823 C 1437.42 364.878 1425.65 362.683 1414.33 359.422 C 1375.5 353.26 1320.32 352.671 1281.71 359.529 C 1280.56 359.344 1280.25 359.087 1279.16 358.608 C 1282.81 357.906 1289.41 357.367 1291.51 355.3 C 1288.88 353.98 1278.12 357.301 1271.88 356.004 z"/>
<path transform="translate(0,0)" fill="rgb(208,240,38)" d="M 1271.88 356.004 C 1278.12 357.301 1288.88 353.98 1291.51 355.3 C 1289.41 357.367 1282.81 357.906 1279.16 358.608 C 1280.25 359.087 1280.56 359.344 1281.71 359.529 C 1255.69 364.822 1205.3 381.823 1180.57 392.552 C 1182.31 391.511 1183.05 391.149 1184.49 389.731 C 1180.25 391.34 1180.87 391.831 1177.01 391.229 L 1176.04 390.023 C 1196.46 377.126 1247.71 360.811 1271.88 356.004 z"/>
<path transform="translate(0,0)" fill="rgb(208,240,38)" d="M 1506.99 407.247 C 1531.08 418.363 1575.56 456.632 1588.99 479.73 C 1564.76 463.42 1547.41 437.033 1523.06 420.439 C 1518.31 417.197 1511.51 411.139 1506.99 407.247 z"/>
<path transform="translate(0,0)" fill="rgb(242,254,106)" d="M 427.617 507.647 L 434.696 496.611 L 433.612 499.673 C 435.221 501.594 435.118 501.412 437.042 503.028 C 438.773 509.018 437.072 509.577 433.205 513.9 L 430.961 516.448 C 432.682 516.591 435.211 516.427 436.021 517.408 C 440.631 522.987 449.902 519.471 451.432 525.674 L 450.841 527.372 L 451.115 527.654 L 451.42 530.321 C 446.478 534.773 439.754 548.167 436.669 554.371 C 414.063 599.827 402.977 648.571 400.296 699.13 C 389.822 896.623 523.546 1078.77 649.317 1218.51 C 729.86 1308 850.717 1409.53 949.166 1479.51 L 987.889 1507.12 C 992.229 1510.26 1006.47 1518.55 1005.46 1524.01 C 1003.44 1534.91 978.478 1555.25 968.843 1558.8 C 948.377 1551.49 885.077 1506.85 865.807 1492.81 C 677.084 1355.29 503.543 1179 401.006 966.991 C 378.222 919.881 358.108 858.209 350.25 806.93 L 351.18 806.786 C 352.029 796.928 342.26 750.91 345.8 740.21 C 353.05 739.034 353.976 736.564 358.987 730.994 C 358.61 745.558 361.724 772.542 363.017 788.096 L 364.129 787.905 C 363.005 759.05 356.959 714.919 361.942 686.501 C 361.739 675.012 365.104 649.162 367.275 638.117 C 370.359 612.936 380.542 581.455 390.458 558.193 C 391.623 554.423 392.993 551.677 394.65 548.085 L 398.676 548.685 C 402.876 534.825 417.286 514.657 425.816 503.021 C 427.402 505.735 427.436 504.886 427.617 507.647 z"/>
<path transform="translate(0,0)" fill="url(#Gradient3)" d="M 425.816 503.021 C 427.402 505.735 427.436 504.886 427.617 507.647 C 370.76 621.404 361.667 753.151 402.355 873.64 C 475.19 1093.53 644.413 1273.3 819.474 1418.39 C 847.354 1441.04 875.731 1463.07 904.584 1484.46 C 918.742 1494.83 950.699 1516.84 961.638 1527.69 C 923.087 1508.44 883.511 1474.78 848.737 1447.22 C 658.79 1296.73 479.128 1107.37 391.616 877.549 C 388.395 869.091 369.887 803.659 371.227 798.358 L 369.247 793.898 L 367.871 793.776 C 366.61 801.008 370.579 812.586 368.145 815.784 C 367.54 809.715 366.052 793.234 364.129 787.905 C 363.005 759.05 356.959 714.919 361.942 686.501 C 361.739 675.012 365.104 649.162 367.275 638.117 C 370.359 612.936 380.542 581.455 390.458 558.193 C 391.623 554.423 392.993 551.677 394.65 548.085 L 398.676 548.685 C 402.876 534.825 417.286 514.657 425.816 503.021 z"/>
<path transform="translate(0,0)" fill="rgb(208,240,38)" d="M 364.129 787.905 C 363.005 759.05 356.959 714.919 361.942 686.501 C 364.679 692.976 361.397 712.699 362.468 722.257 L 364.647 719.542 C 366.47 719.898 365.569 719.557 367.306 720.674 L 366.915 713.055 L 367.704 712.59 C 367.982 732.422 367.784 752.035 368.538 771.974 C 368.755 777.7 371.406 795.205 371.227 798.358 L 369.247 793.898 L 367.871 793.776 C 366.61 801.008 370.579 812.586 368.145 815.784 C 367.54 809.715 366.052 793.234 364.129 787.905 z"/>
<path transform="translate(0,0)" fill="rgb(208,240,38)" d="M 394.65 548.085 L 398.676 548.685 L 391.566 567.201 C 389.367 576.785 383.911 589.374 381.033 600.092 C 376.016 618.776 374.011 635.056 370.495 653.854 L 368.845 652.722 C 367.971 647.293 369.804 641.357 368.362 638.425 L 367.275 638.117 C 370.359 612.936 380.542 581.455 390.458 558.193 C 391.623 554.423 392.993 551.677 394.65 548.085 z"/>
<path transform="translate(0,0)" fill="rgb(39,68,7)" d="M 1590.06 957.432 C 1623.27 955.554 1659.8 957.842 1693.16 958.61 C 1697.17 958.703 1706.17 961.383 1709.71 963.039 C 1744.87 979.485 1732.24 1030.6 1730.61 1060.97 C 1721.26 1152.79 1704.05 1245.98 1662.91 1329.25 C 1615.37 1425.49 1534.11 1503.67 1431.4 1537.72 C 1363.38 1560.54 1269.68 1565.84 1204.44 1533.36 C 1177.79 1564.36 1143.85 1599.08 1115.62 1629.69 C 1104.02 1641.2 1094.32 1652.45 1077.89 1658.35 C 1047.15 1670.66 986.051 1631.94 1003.79 1596.64 C 1013.29 1577.73 1038.8 1551.88 1053.41 1535.43 L 1090.8 1492.61 C 1097.91 1484.6 1111.17 1470.92 1116.04 1461.88 C 1101.36 1430.99 1093.13 1397.44 1091.84 1363.27 C 1088.74 1266.03 1125.51 1187.61 1190.17 1116.51 C 1292.49 1003.99 1441.04 961.837 1590.06 957.432 z"/>
<path transform="translate(0,0)" fill="rgb(242,254,106)" d="M 1155.97 1454.58 C 1127.49 1409.22 1121 1345.57 1133.08 1294.04 C 1155.38 1198.95 1222.62 1115.7 1305.03 1064.95 C 1401.49 1005.55 1509.1 990.699 1620.36 986.27 C 1640.17 985.481 1669.71 984.267 1688.96 986.757 C 1694.31 987.449 1698.69 991.615 1701.86 995.926 C 1705.17 1012.18 1702.78 1030.74 1700.8 1047.21 C 1687.71 1156.01 1667.53 1265.04 1606.02 1357.89 C 1552.16 1439.4 1468.18 1496.23 1372.48 1515.92 C 1361.83 1518.11 1351.06 1519.67 1340.22 1520.59 C 1337.55 1520.88 1334.87 1521.15 1332.18 1521.39 C 1304.11 1523.76 1254.25 1522.96 1230.27 1506.86 C 1217.2 1498.08 1243.48 1474.37 1249.59 1467.21 C 1257 1458.52 1258.84 1455.52 1270.77 1455.01 C 1276.21 1452.77 1327.28 1451.67 1331.45 1454.72 C 1337.74 1455.32 1358.35 1451.45 1364.5 1450.19 C 1419.6 1438.71 1470.77 1413.1 1512.98 1375.88 C 1535.48 1356.35 1555 1333.65 1570.93 1308.48 C 1615.73 1237.26 1639.05 1125.57 1644.32 1042.6 C 1588.4 1049.1 1529.63 1056.66 1474.55 1067.29 C 1334.61 1094.3 1183.44 1208.25 1179.98 1361.53 C 1179.63 1377.31 1184.07 1397.5 1187.4 1413.07 C 1186.55 1415.17 1184.55 1418.3 1182.6 1419.47 C 1180.72 1422.14 1176.81 1428.06 1174.68 1430.1 L 1167.24 1440.05 C 1164.65 1443.95 1156.93 1452.28 1155.97 1454.58 z"/>
<path transform="translate(0,0)" fill="url(#Gradient2)" d="M 1155.97 1454.58 C 1127.49 1409.22 1121 1345.57 1133.08 1294.04 C 1155.38 1198.95 1222.62 1115.7 1305.03 1064.95 C 1401.49 1005.55 1509.1 990.699 1620.36 986.27 C 1640.17 985.481 1669.71 984.267 1688.96 986.757 C 1694.31 987.449 1698.69 991.615 1701.86 995.926 C 1705.17 1012.18 1702.78 1030.74 1700.8 1047.21 C 1687.71 1156.01 1667.53 1265.04 1606.02 1357.89 C 1552.16 1439.4 1468.18 1496.23 1372.48 1515.92 C 1361.83 1518.11 1351.06 1519.67 1340.22 1520.59 L 1340.5 1518.85 C 1357.35 1520.37 1427.26 1501.36 1442.02 1492.09 C 1454.06 1484.52 1492.59 1450.46 1500.95 1438.41 C 1501.09 1438.31 1501.23 1438.21 1501.37 1438.11 C 1508.36 1437.53 1516.49 1429.99 1520.43 1424.19 C 1523.38 1419.85 1527.47 1416.21 1529.89 1411.31 C 1532.02 1407.98 1545.23 1396.05 1550.13 1389.2 C 1552.65 1387.44 1559.69 1378.87 1562.05 1376.11 C 1636.99 1288.71 1663.71 1170.71 1675.57 1059.02 C 1676.65 1048.83 1680.97 1022.98 1678.26 1014.23 L 1675.91 1013.05 C 1667.36 1010.85 1636.37 1014.61 1626.27 1015.45 C 1562.03 1019.02 1452.02 1029.99 1392.94 1052.89 C 1380.45 1056.79 1318.07 1082.18 1313.84 1090.22 C 1310.19 1095.2 1292.03 1106.6 1285.87 1111 C 1278.85 1115.95 1272.17 1121.37 1265.87 1127.22 C 1193.74 1194.68 1147.81 1272.93 1153.93 1375.92 C 1154.18 1380.22 1156.59 1391.62 1158.28 1395.42 L 1158.3 1394.13 C 1160.78 1402.58 1165.99 1424.36 1171.25 1429.57 L 1174.68 1430.1 L 1167.24 1440.05 C 1164.65 1443.95 1156.93 1452.28 1155.97 1454.58 z"/>
<path transform="translate(0,0)" fill="rgb(159,193,10)" d="M 1167.24 1440.05 C 1168.63 1431.94 1158.62 1407.9 1155.96 1397.5 C 1127.18 1284.73 1215.61 1143.28 1313.84 1090.22 C 1310.19 1095.2 1292.03 1106.6 1285.87 1111 C 1278.85 1115.95 1272.17 1121.37 1265.87 1127.22 C 1193.74 1194.68 1147.81 1272.93 1153.93 1375.92 C 1154.18 1380.22 1156.59 1391.62 1158.28 1395.42 L 1158.3 1394.13 C 1160.78 1402.58 1165.99 1424.36 1171.25 1429.57 L 1174.68 1430.1 L 1167.24 1440.05 z"/>
<path transform="translate(0,0)" fill="rgb(191,224,22)" d="M 1626.27 1015.45 C 1636.37 1014.61 1667.36 1010.85 1675.91 1013.05 L 1678.26 1014.23 C 1680.97 1022.98 1676.65 1048.83 1675.57 1059.02 C 1663.71 1170.71 1636.99 1288.71 1562.05 1376.11 C 1559.69 1378.87 1552.65 1387.44 1550.13 1389.2 C 1545.23 1396.05 1532.02 1407.98 1529.89 1411.31 C 1527.47 1416.21 1523.38 1419.85 1520.43 1424.19 C 1516.49 1429.99 1508.36 1437.53 1501.37 1438.11 C 1501.23 1438.21 1501.09 1438.31 1500.95 1438.41 C 1446.13 1475.42 1392.78 1502.03 1325.64 1506.76 C 1313.35 1507.62 1267.45 1511.2 1258.62 1504.08 C 1251.86 1503.3 1243.66 1501.2 1236.87 1499.67 C 1240.98 1493.05 1247.04 1480.45 1254.93 1479.12 C 1277.88 1482.37 1292.63 1484.17 1316.25 1484.18 C 1375 1484.18 1426.49 1466.43 1475.88 1436.97 C 1580.24 1374.69 1623.62 1282.02 1650.41 1167.4 C 1654.98 1147.87 1675.85 1040.65 1667.65 1027.17 C 1658.3 1023.02 1613.38 1031.74 1600.85 1033.16 C 1560.31 1037.75 1519.57 1043.04 1479.49 1050.63 C 1460.43 1054.23 1440.4 1056.67 1421.99 1062.61 C 1328.65 1092.81 1241.42 1146.24 1195.29 1235.94 C 1165.18 1294.5 1154.22 1352.38 1174.2 1416.5 C 1175.27 1419.93 1175.52 1420.14 1178.49 1421.66 C 1180.33 1420.36 1180.49 1420.32 1182.6 1419.47 C 1180.72 1422.14 1176.81 1428.06 1174.68 1430.1 L 1171.25 1429.57 C 1165.99 1424.36 1160.78 1402.58 1158.3 1394.13 L 1158.28 1395.42 C 1156.59 1391.62 1154.18 1380.22 1153.93 1375.92 C 1147.81 1272.93 1193.74 1194.68 1265.87 1127.22 C 1272.17 1121.37 1278.85 1115.95 1285.87 1111 C 1292.03 1106.6 1310.19 1095.2 1313.84 1090.22 C 1318.07 1082.18 1380.45 1056.79 1392.94 1052.89 C 1452.02 1029.99 1562.03 1019.02 1626.27 1015.45 z"/>
<path transform="translate(0,0)" fill="rgb(208,240,38)" d="M 1626.27 1015.45 C 1630.8 1017.6 1657.49 1016.13 1662.82 1014.82 L 1663.82 1015.55 C 1660.55 1018.14 1640.47 1017.97 1635.25 1017.73 C 1624.7 1017.03 1604.25 1022.71 1594.83 1022.05 C 1575.42 1020.7 1561.61 1025.35 1543.32 1026.63 C 1489.01 1030.44 1440.93 1042.36 1388.93 1057.61 L 1388.19 1056.97 L 1393.45 1054.63 L 1392.94 1052.89 C 1452.02 1029.99 1562.03 1019.02 1626.27 1015.45 z"/>
<path transform="translate(0,0)" fill="rgb(159,193,10)" d="M 1675.91 1013.05 L 1678.26 1014.23 C 1680.97 1022.98 1676.65 1048.83 1675.57 1059.02 C 1663.71 1170.71 1636.99 1288.71 1562.05 1376.11 C 1559.69 1378.87 1552.65 1387.44 1550.13 1389.2 C 1550.19 1386.23 1549.92 1387.72 1552.68 1384.71 L 1551.4 1382.62 L 1551.95 1381 C 1554.44 1381.13 1553.68 1381.22 1555.94 1380.68 C 1571.61 1361 1585.15 1345.01 1598.15 1322.78 C 1634.57 1260.65 1653.72 1191.21 1666.03 1120.7 C 1670.4 1095.65 1672.35 1066.88 1675.54 1041.63 C 1676.81 1031.58 1675.73 1022.96 1675.91 1013.05 z"/>
<path transform="translate(0,0)" fill="rgb(248,254,156)" d="M 1529.89 1411.31 C 1527.47 1416.21 1523.38 1419.85 1520.43 1424.19 C 1516.49 1429.99 1508.36 1437.53 1501.37 1438.11 C 1501.23 1438.21 1501.09 1438.31 1500.95 1438.41 C 1446.13 1475.42 1392.78 1502.03 1325.64 1506.76 C 1313.35 1507.62 1267.45 1511.2 1258.62 1504.08 C 1265.33 1504.82 1272.06 1505.4 1278.8 1505.81 C 1374.97 1511.63 1459.12 1474.14 1529.89 1411.31 z"/>
<path transform="translate(0,0)" fill="rgb(159,193,10)" d="M 1254.93 1479.12 C 1277.88 1482.37 1292.63 1484.17 1316.25 1484.18 L 1316.71 1484.9 L 1315.58 1485.86 C 1303.54 1487.2 1265.31 1485.66 1254.93 1479.12 z"/>
<path transform="translate(0,0)" fill="rgb(16,35,4)" d="M 1270.77 1455.01 C 1276.21 1452.77 1327.28 1451.67 1331.45 1454.72 C 1309.22 1457.19 1292.67 1456.68 1270.77 1455.01 z"/>
<path transform="translate(0,0)" fill="url(#Gradient1)" d="M 1187.4 1413.07 C 1214.1 1381.27 1239.6 1350.06 1267.99 1319.56 C 1318.24 1265.21 1374.84 1217.08 1436.56 1176.21 C 1467.36 1155.71 1510.64 1131.06 1545.91 1119.39 C 1539.37 1129.8 1525.34 1142.38 1517.04 1151.81 C 1499.73 1171.51 1474.19 1197.16 1459.68 1218.38 C 1464.79 1221.39 1466.64 1222.58 1471.3 1226.33 C 1466.96 1230.25 1460.92 1234.57 1456.07 1237.99 C 1439.39 1249.73 1424.08 1262.86 1408.12 1275.49 C 1375.91 1303.91 1343.96 1333.09 1314.57 1364.45 C 1286.68 1394.2 1259.23 1425.74 1231.85 1456.1 C 1198.65 1492.35 1165.13 1528.31 1131.32 1563.99 C 1120.37 1575.5 1109.51 1587.09 1098.73 1598.75 C 1090.13 1608.08 1075.4 1628.02 1062.66 1628.17 C 1054.16 1628 1023.48 1620 1030.97 1606.99 C 1045.8 1581.25 1152.65 1472.75 1155.97 1454.58 C 1156.93 1452.28 1164.65 1443.95 1167.24 1440.05 L 1174.68 1430.1 C 1176.81 1428.06 1180.72 1422.14 1182.6 1419.47 C 1184.55 1418.3 1186.55 1415.17 1187.4 1413.07 z"/>
<path transform="translate(0,0)" fill="rgb(248,254,156)" d="M 1062.34 1599.72 L 1063.16 1603.01 L 1065.05 1603.09 C 1070.34 1599.18 1075.61 1591.08 1080.53 1585.8 L 1117.41 1546.03 L 1256.42 1394.13 C 1265.08 1384.63 1272.61 1374.23 1281.27 1364.67 C 1331.12 1309.68 1389.05 1264.62 1442.85 1214.06 C 1429.03 1235.72 1398.57 1253.32 1381.13 1272.43 C 1379.42 1274.3 1379.8 1275.44 1379.62 1277.8 C 1387.4 1291.05 1393.48 1271.38 1408.12 1275.49 C 1375.91 1303.91 1343.96 1333.09 1314.57 1364.45 C 1286.68 1394.2 1259.23 1425.74 1231.85 1456.1 C 1198.65 1492.35 1165.13 1528.31 1131.32 1563.99 C 1120.37 1575.5 1109.51 1587.09 1098.73 1598.75 C 1090.13 1608.08 1075.4 1628.02 1062.66 1628.17 C 1060.39 1615.86 1050.26 1614.89 1062.34 1599.72 z"/>
<path transform="translate(0,0)" fill="rgb(208,240,38)" d="M 1474.45 1175.01 L 1475.1 1176.82 C 1459.61 1192.07 1455.78 1198.07 1442.85 1214.06 C 1389.05 1264.62 1331.12 1309.68 1281.27 1364.67 C 1272.61 1374.23 1265.08 1384.63 1256.42 1394.13 L 1117.41 1546.03 L 1080.53 1585.8 C 1075.61 1591.08 1070.34 1599.18 1065.05 1603.09 L 1063.16 1603.01 L 1062.34 1599.72 C 1071.74 1583.99 1108.57 1544.73 1122.57 1528.2 C 1169.51 1472.76 1215.61 1415.8 1264.67 1362.27 C 1290.39 1334.69 1316.95 1307.91 1344.33 1281.96 C 1350.56 1275.99 1382.68 1246.06 1388.89 1242.66 C 1394.16 1236.99 1400.46 1232.36 1406.56 1227.59 L 1407.23 1227.39 C 1412.15 1221.96 1422.7 1214.07 1428.78 1209.27 C 1443.55 1197.25 1458.78 1185.82 1474.45 1175.01 z"/>
<path transform="translate(0,0)" fill="rgb(191,224,22)" d="M 1428.78 1209.27 C 1427.22 1214.96 1413.07 1225.93 1407.23 1227.39 C 1412.15 1221.96 1422.7 1214.07 1428.78 1209.27 z"/>
<path transform="translate(0,0)" fill="rgb(191,224,22)" d="M 1406.56 1227.59 C 1405.51 1233.04 1394.12 1240.9 1388.89 1242.66 C 1394.16 1236.99 1400.46 1232.36 1406.56 1227.59 z"/>
<path transform="translate(0,0)" fill="rgb(248,254,156)" d="M 1474.45 1175.01 C 1479 1171.13 1490.58 1162.54 1496.26 1161.49 C 1491.87 1165.26 1479.83 1176.81 1475.1 1176.82 L 1474.45 1175.01 z"/>
</svg>