<svg version="1.1" xmlns="http://www.w3.org/2000/svg" style="display: block;" viewBox="0 0 2048 2048" width="1024" height="1024" preserveAspectRatio="none">
<defs>
	<linearGradient id="Gradient1" gradientUnits="userSpaceOnUse" x1="1177.15" y1="611.883" x2="1291.77" y2="719.689">
		<stop class="stop0" offset="0" stop-opacity="1" stop-color="rgb(132,210,46)"/>
		<stop class="stop1" offset="1" stop-opacity="1" stop-color="rgb(204,253,93)"/>
	</linearGradient>
	<linearGradient id="Gradient2" gradientUnits="userSpaceOnUse" x1="1204.05" y1="407.704" x2="1341.06" y2="644.832">
		<stop class="stop0" offset="0" stop-opacity="1" stop-color="rgb(142,220,48)"/>
		<stop class="stop1" offset="1" stop-opacity="1" stop-color="rgb(196,248,90)"/>
	</linearGradient>
	<linearGradient id="Gradient3" gradientUnits="userSpaceOnUse" x1="1302.35" y1="710.798" x2="1248.11" y2="347.358">
		<stop class="stop0" offset="0" stop-opacity="1" stop-color="rgb(210,254,104)"/>
		<stop class="stop1" offset="1" stop-opacity="1" stop-color="rgb(249,255,168)"/>
	</linearGradient>
	<linearGradient id="Gradient4" gradientUnits="userSpaceOnUse" x1="841.466" y1="716.567" x2="834.982" y2="651.877">
		<stop class="stop0" offset="0" stop-opacity="1" stop-color="rgb(119,202,40)"/>
		<stop class="stop1" offset="1" stop-opacity="1" stop-color="rgb(181,236,75)"/>
	</linearGradient>
	<linearGradient id="Gradient5" gradientUnits="userSpaceOnUse" x1="872.936" y1="423.515" x2="779.315" y2="520.238">
		<stop class="stop0" offset="0" stop-opacity="1" stop-color="rgb(152,228,51)"/>
		<stop class="stop1" offset="1" stop-opacity="1" stop-color="rgb(220,255,116)"/>
	</linearGradient>
	<linearGradient id="Gradient6" gradientUnits="userSpaceOnUse" x1="731.613" y1="701.912" x2="811.326" y2="352.773">
		<stop class="stop0" offset="0" stop-opacity="1" stop-color="rgb(210,251,108)"/>
		<stop class="stop1" offset="1" stop-opacity="1" stop-color="rgb(244,254,161)"/>
	</linearGradient>
	<linearGradient id="Gradient7" gradientUnits="userSpaceOnUse" x1="1169.28" y1="1315.14" x2="944.804" y2="821.889">
		<stop class="stop0" offset="0" stop-opacity="1" stop-color="rgb(219,255,133)"/>
		<stop class="stop1" offset="1" stop-opacity="1" stop-color="rgb(255,254,177)"/>
	</linearGradient>
</defs>
<path transform="translate(0,0)" fill="rgb(21,75,12)" d="M 758.855 753.282 C 598.13 688.331 555.521 527.515 544.948 370.155 C 540.316 301.21 565.099 303.242 623.592 301.928 C 794.165 298.095 946.929 364.261 1006.85 534.469 C 1009.21 541.17 1022.59 585.767 1024.01 587.016 C 1027.57 584.633 1030.51 568.184 1032.01 562.882 C 1040.43 533.002 1052.49 504.271 1067.92 477.337 C 1135.84 361.073 1251.75 311.173 1381.74 303.803 C 1410.46 302.175 1442.25 300.209 1470.93 303.848 C 1488.35 306.058 1505.85 321.406 1505.67 340.276 C 1505.15 395.277 1497.02 451.888 1486.59 505.883 C 1468.3 595.01 1422.57 677.125 1344.53 726.783 C 1296.28 757.576 1240.63 772.504 1183.62 774.674 C 1175 775.001 1153.86 776.075 1146.08 774.221 C 1126.67 774.559 1096.82 768.871 1075.98 766.597 L 1075.49 907.801 C 1075.47 915.366 1076.4 948.682 1075.25 954.333 C 1094.22 953.434 1122.76 953.472 1141.87 954.12 C 1154.29 953.72 1176.51 953.43 1188.93 954.099 C 1195.26 954.028 1202.99 953.75 1209.2 954.086 C 1272.03 953.275 1335.04 954.369 1397.89 953.961 C 1407.1 953.902 1416.99 953.758 1426.17 954.119 C 1452.31 953.788 1481.11 951.181 1501.06 971.92 C 1501.76 972.644 1502.87 973.851 1503.32 974.825 C 1530.36 1001.27 1516.74 1055.38 1519.91 1089.84 C 1520.44 1095.58 1519.47 1102.7 1519.88 1108.59 C 1518.36 1143.67 1527.32 1185.55 1499.47 1213.07 C 1486.84 1225.54 1470.05 1230.52 1452.67 1230.05 L 1451.7 1230.02 L 1426.48 1230.4 C 1410.34 1318.09 1395.77 1407.42 1380.58 1495.43 L 1368.35 1566.96 C 1362.72 1598.47 1358.54 1629.95 1329.86 1649.56 C 1300.71 1669.49 1255.37 1664.1 1220.99 1664.04 L 1088.63 1663.9 L 888.166 1664.04 C 859.381 1664.04 816.629 1665.37 789.017 1663.85 C 763.593 1664.13 742.953 1664.66 721.234 1649.22 C 691.814 1628.32 688.905 1596.8 682.72 1564.18 L 668.517 1488.92 C 652.678 1404.53 634.751 1314.53 621.11 1230.1 C 619.54 1230.19 617.969 1230.23 616.396 1230.25 C 592.078 1230.65 568.674 1230.9 550.067 1212.57 C 541.651 1204.22 535.733 1193.69 532.982 1182.17 C 528.597 1164.34 530.062 1124.73 530.099 1104.02 L 529.852 1024.96 C 529.877 1004.07 532.508 987.786 547.883 972.135 C 570.558 949.053 601.432 953.837 631.409 953.896 L 704.975 953.974 C 738.018 953.926 774.696 953.125 807.449 954.064 C 822.661 953.874 968.83 954.63 971.781 953.309 L 972.914 949.897 C 971.406 942.51 972.127 906.294 972.062 895.976 C 971.788 852.616 972.521 809.009 971.91 765.635 C 965.308 766.163 957.208 767.798 950.587 768.937 C 885.821 780.074 820.461 777.349 758.855 753.282 z M 561.726 1022.6 L 562.039 1109.59 C 562.134 1133.09 558.083 1174.38 574.806 1191.45 C 593.154 1210.17 624.343 1198.06 645.852 1205.21 C 648.329 1206.05 653.288 1238.25 654.167 1243.03 L 666.522 1309.67 L 702.853 1504.74 C 706.134 1522.47 711.405 1545.7 713.592 1563.04 C 723.171 1638.99 756.812 1632.02 820.144 1631.95 L 883.97 1631.92 L 1067.78 1631.8 L 1190.79 1631.6 C 1215.7 1631.63 1240.65 1631.82 1265.56 1631.53 C 1284.48 1631.31 1303.64 1628.74 1317.46 1614.46 C 1322.95 1608.76 1327.1 1601.9 1329.61 1594.4 C 1333.17 1583.82 1339.67 1540.64 1342.07 1527.19 L 1376.71 1331.39 C 1383.31 1293.24 1389.93 1255.02 1396.5 1216.85 C 1396.87 1214.71 1398.69 1206.92 1400.2 1205.61 C 1402.14 1203.93 1409.08 1203.64 1411.6 1203.48 C 1424.28 1202.67 1451.85 1204.76 1463.18 1199.31 C 1472.06 1196.75 1479.08 1191.56 1483.67 1183.45 C 1486.86 1177.79 1488.6 1171.28 1489.3 1164.85 C 1491.09 1148.52 1491.51 1016.87 1488.29 1006.14 C 1485.84 997.957 1479.67 990.973 1472.05 987.24 C 1466.24 984.389 1460.87 984.053 1454.51 983.893 C 1400.86 982.536 1346.9 983.808 1293.21 983.568 L 881.868 983.064 L 692.952 983.081 C 673.232 983.094 595.634 980.944 582.519 985.749 C 573.31 989.122 567.14 996.254 563.079 1004.96 C 561.567 1010.65 561.796 1016.69 561.726 1022.6 z M 911.658 677.152 C 880.743 630.175 827.824 590.853 786.809 553.531 C 770.489 537.222 748.616 513.409 759.171 488.588 C 795.888 458.332 892.056 550.234 919.602 574.436 C 906.545 515.922 861.36 462.482 810.332 432.729 C 762.609 404.903 699.669 389.946 644.417 389.207 C 642.154 391.694 642.002 393.051 642.304 396.56 C 649.472 480.107 677.293 568.191 741.048 625.218 C 783.748 662.777 839.576 681.912 896.338 678.446 C 901.07 678.162 906.995 677.82 911.658 677.152 z M 1127.24 592.845 C 1138.01 583.926 1148.24 573.069 1159.06 564.736 C 1205.65 528.851 1254.57 488.82 1311.5 471.19 C 1327.97 466.092 1331.48 481.424 1328.63 494.016 C 1326.79 501.596 1322.03 511.545 1318.16 518.6 C 1287.01 567.633 1251.56 588.331 1208.83 624.219 C 1189.46 640.7 1171.23 658.47 1154.26 677.408 C 1169.79 678.52 1184.5 678.876 1200 677.001 C 1241.26 672.01 1281.44 654.769 1312.95 627.489 C 1379.79 569.62 1399.9 479.347 1409.15 395.398 C 1409.29 394.179 1409.02 392.285 1408.87 391.079 C 1407.11 389.912 1408.04 390.085 1406.12 390.379 C 1328.95 397.768 1225.06 427.264 1174.68 489.106 C 1152.5 516.329 1129.71 557.176 1127.24 592.845 z"/>
<path transform="translate(0,0)" fill="rgb(0,4,0)" d="M 621.11 1230.1 L 623.272 1230.89 C 626.463 1242 629.12 1258.05 631.252 1269.66 L 643.048 1335.33 C 654.75 1402.39 667.314 1469.31 680.739 1536.05 C 684.568 1555.36 691.204 1599.38 698.241 1615.66 C 704.894 1630.69 716.218 1643.18 730.532 1651.26 C 745.712 1659.68 760.926 1660.57 777.806 1661.46 C 781.779 1661.67 785.59 1661.73 789.017 1663.85 C 763.593 1664.13 742.953 1664.66 721.234 1649.22 C 691.814 1628.32 688.905 1596.8 682.72 1564.18 L 668.517 1488.92 C 652.678 1404.53 634.751 1314.53 621.11 1230.1 z"/>
<path transform="translate(0,0)" fill="rgb(0,4,0)" d="M 758.855 753.282 C 767.776 752.06 793.03 762.038 803.6 764.269 C 852.03 774.49 900.589 774.676 949.286 766.197 C 956.409 764.957 966.106 763.258 973.313 764.938 C 976.908 768.239 974.524 887.341 975.234 899.751 C 975.633 906.741 975.354 940.546 974.442 948.415 L 972.914 949.897 C 971.406 942.51 972.127 906.294 972.062 895.976 C 971.788 852.616 972.521 809.009 971.91 765.635 C 965.308 766.163 957.208 767.798 950.587 768.937 C 885.821 780.074 820.461 777.349 758.855 753.282 z"/>
<path transform="translate(0,0)" fill="rgb(0,20,0)" d="M 1503.32 974.825 C 1530.36 1001.27 1516.74 1055.38 1519.91 1089.84 C 1520.44 1095.58 1519.47 1102.7 1519.88 1108.59 C 1518.36 1143.67 1527.32 1185.55 1499.47 1213.07 C 1486.84 1225.54 1470.05 1230.52 1452.67 1230.05 L 1451.7 1230.02 C 1454.48 1228.47 1459.97 1227.3 1463.22 1226.6 C 1479.34 1223.17 1489.93 1219.52 1501.06 1206.45 C 1507.39 1198.98 1514.08 1185.5 1515.04 1175.7 C 1519.01 1135.14 1515.98 1093.44 1517.36 1052.67 C 1517.87 1037.48 1517.48 1023.14 1516.7 1008.08 C 1516.1 996.619 1503.22 981.901 1503.32 974.825 z"/>
<path transform="translate(0,0)" fill="rgb(0,4,0)" d="M 1075.25 954.333 L 1074.37 954.399 C 1070.79 950.005 1072.2 780.919 1073.42 767.457 C 1077.49 762.028 1141.1 770.618 1146.08 774.221 C 1126.67 774.559 1096.82 768.871 1075.98 766.597 L 1075.49 907.801 C 1075.47 915.366 1076.4 948.682 1075.25 954.333 z"/>
<path transform="translate(0,0)" fill="rgb(0,20,0)" d="M 1209.2 954.086 C 1272.03 953.275 1335.04 954.369 1397.89 953.961 C 1407.1 953.902 1416.99 953.758 1426.17 954.119 L 1425.34 956.049 C 1408.57 958.855 1352.89 957.085 1335.22 956.242 C 1314.68 955.264 1220.4 960.107 1209.2 954.086 z"/>
<path transform="translate(0,0)" fill="rgb(14,55,7)" d="M 704.975 953.974 C 738.018 953.926 774.696 953.125 807.449 954.064 C 807.124 954.32 806.821 954.607 806.474 954.833 C 799.732 959.227 715.881 956.556 704.975 953.974 z"/>
<path transform="translate(0,0)" fill="rgb(0,20,0)" d="M 1141.87 954.12 C 1154.29 953.72 1176.51 953.43 1188.93 954.099 C 1183.97 958.154 1147.19 957.358 1141.87 954.12 z"/>
<path transform="translate(0,0)" fill="rgb(173,237,71)" d="M 563.079 1004.96 C 567.14 996.254 573.31 989.122 582.519 985.749 C 595.634 980.944 673.232 983.094 692.952 983.081 L 881.868 983.064 L 1293.21 983.568 C 1346.9 983.808 1400.86 982.536 1454.51 983.893 C 1460.87 984.053 1466.24 984.389 1472.05 987.24 C 1479.67 990.973 1485.84 997.957 1488.29 1006.14 C 1491.51 1016.87 1491.09 1148.52 1489.3 1164.85 C 1488.6 1171.28 1486.86 1177.79 1483.67 1183.45 C 1479.08 1191.56 1472.06 1196.75 1463.18 1199.31 C 1451.85 1204.76 1424.28 1202.67 1411.6 1203.48 C 1409.08 1203.64 1402.14 1203.93 1400.2 1205.61 C 1398.69 1206.92 1396.87 1214.71 1396.5 1216.85 C 1389.93 1255.02 1383.31 1293.24 1376.71 1331.39 L 1342.07 1527.19 C 1339.67 1540.64 1333.17 1583.82 1329.61 1594.4 C 1327.1 1601.9 1322.95 1608.76 1317.46 1614.46 C 1303.64 1628.74 1284.48 1631.31 1265.56 1631.53 C 1240.65 1631.82 1215.7 1631.63 1190.79 1631.6 L 1067.78 1631.8 L 883.97 1631.92 L 820.144 1631.95 C 756.812 1632.02 723.171 1638.99 713.592 1563.04 C 711.405 1545.7 706.134 1522.47 702.853 1504.74 L 666.522 1309.67 L 654.167 1243.03 C 653.288 1238.25 648.329 1206.05 645.852 1205.21 C 624.343 1198.06 593.154 1210.17 574.806 1191.45 C 558.083 1174.38 562.134 1133.09 562.039 1109.59 L 561.726 1022.6 C 561.796 1016.69 561.567 1010.65 563.079 1004.96 z M 1426.16 1143.47 C 1424.96 1119.5 1425.88 1085.1 1426.1 1060.35 C 1426 1054.11 1425.97 1047.87 1426.01 1041.63 C 1379.55 1040 1327.48 1041.17 1280.57 1041.16 L 1013.21 1041.18 L 761.254 1041.17 C 717.422 1041.15 666.455 1039.89 622.986 1041.54 L 623.625 1113.94 C 623.678 1118.69 623.593 1140.33 624.544 1143.78 L 625.801 1144.51 C 642.705 1143.01 676.061 1144.05 694.153 1144.05 L 826.464 1144.04 L 1247.56 1144 L 1367.94 1144.04 C 1380.08 1144.05 1416.42 1144.92 1426.16 1143.47 z M 725.48 1262.57 L 740.998 1344.2 C 744.374 1354.3 749.943 1390.65 752.692 1403.18 C 764.265 1455.92 772.748 1510.12 784.632 1562.76 L 1109.58 1562.68 L 1205.67 1562.63 C 1222.19 1562.71 1254.2 1563.72 1269.19 1561.74 C 1273.03 1536.07 1279.2 1506.75 1283.9 1480.85 L 1313.18 1320.24 L 1324.32 1259.94 C 1326.48 1248.25 1329.54 1233.92 1330.49 1222.34 C 1268.79 1223.53 1202.63 1222.68 1140.71 1222.54 L 874.902 1222.52 C 824.465 1222.52 767.695 1221.16 717.829 1222.75 C 720.183 1236.06 722.734 1249.34 725.48 1262.57 z"/>
<path transform="translate(0,0)" fill="rgb(21,75,12)" d="M 616.98 1022.55 C 625.138 1023.75 650.725 1023.11 660.253 1023.09 L 746.75 1022.96 L 964.699 1023.02 C 1002.23 1023.03 1041.16 1022.46 1078.55 1023.08 L 1305.12 1023.01 L 1383.94 1023.03 C 1394.71 1023.03 1437.44 1021.58 1445.23 1026.36 C 1449.47 1037.57 1445.21 1141.23 1446.21 1162.38 C 1443.97 1162.82 1440.26 1163.69 1438.12 1163.78 C 1373.29 1165.25 1302.83 1163.92 1237.39 1163.92 L 845.022 1163.88 L 692.088 1163.91 C 680.082 1163.92 613.82 1164.99 606.175 1162.44 C 605.225 1162.06 604.482 1161.28 603.619 1160.57 C 601.132 1154.02 599.959 1041.93 602.275 1028.61 C 604.21 1025.66 604.517 1025.81 607.645 1024.34 C 610.45 1023.4 614.002 1023.01 616.98 1022.55 z M 625.801 1144.51 C 642.705 1143.01 676.061 1144.05 694.153 1144.05 L 826.464 1144.04 L 1247.56 1144 L 1367.94 1144.04 C 1380.08 1144.05 1416.42 1144.92 1426.16 1143.47 C 1424.96 1119.5 1425.88 1085.1 1426.1 1060.35 C 1426 1054.11 1425.97 1047.87 1426.01 1041.63 C 1379.55 1040 1327.48 1041.17 1280.57 1041.16 L 1013.21 1041.18 L 761.254 1041.17 C 717.422 1041.15 666.455 1039.89 622.986 1041.54 L 623.625 1113.94 C 623.678 1118.69 623.593 1140.33 624.544 1143.78 L 625.801 1144.51 z"/>
<path transform="translate(0,0)" fill="rgb(0,20,0)" d="M 606.175 1162.44 C 614.743 1159.09 800.765 1161.08 822.413 1161.07 L 1421.92 1160.93 C 1425.72 1160.95 1435.72 1160.56 1438.64 1162.44 L 1438.12 1163.78 C 1373.29 1165.25 1302.83 1163.92 1237.39 1163.92 L 845.022 1163.88 L 692.088 1163.91 C 680.082 1163.92 613.82 1164.99 606.175 1162.44 z"/>
<path transform="translate(0,0)" fill="rgb(14,55,7)" d="M 616.98 1022.55 C 625.138 1023.75 650.725 1023.11 660.253 1023.09 L 746.75 1022.96 L 964.699 1023.02 C 1002.23 1023.03 1041.16 1022.46 1078.55 1023.08 C 1060.59 1027.94 1039.4 1023.88 1020.52 1024.11 L 743.924 1025.79 L 664.728 1025.89 C 649.508 1025.95 622.056 1026.86 607.645 1024.34 C 610.45 1023.4 614.002 1023.01 616.98 1022.55 z"/>
<path transform="translate(0,0)" fill="rgb(0,4,0)" d="M 1426.16 1143.47 L 1428.62 1143.76 C 1427.65 1144.91 1426.03 1146.86 1424.51 1146.94 C 1410.27 1147.66 1393.99 1147.52 1379.92 1147.6 L 1246.57 1147.41 L 757.59 1147.31 C 742.255 1147.27 628.516 1148.57 623.897 1145.59 L 625.801 1144.51 C 642.705 1143.01 676.061 1144.05 694.153 1144.05 L 826.464 1144.04 L 1247.56 1144 L 1367.94 1144.04 C 1380.08 1144.05 1416.42 1144.92 1426.16 1143.47 z"/>
<path transform="translate(0,0)" fill="rgb(14,55,7)" d="M 1426.1 1060.35 C 1430.83 1073.03 1429.52 1129 1428.62 1143.76 L 1426.16 1143.47 C 1424.96 1119.5 1425.88 1085.1 1426.1 1060.35 z"/>
<path transform="translate(0,0)" fill="url(#Gradient7)" d="M 563.079 1004.96 C 567.14 996.254 573.31 989.122 582.519 985.749 C 595.634 980.944 673.232 983.094 692.952 983.081 L 881.868 983.064 L 1293.21 983.568 C 1346.9 983.808 1400.86 982.536 1454.51 983.893 C 1460.87 984.053 1466.24 984.389 1472.05 987.24 C 1479.67 990.973 1485.84 997.957 1488.29 1006.14 C 1491.51 1016.87 1491.09 1148.52 1489.3 1164.85 C 1488.6 1171.28 1486.86 1177.79 1483.67 1183.45 C 1479.08 1191.56 1472.06 1196.75 1463.18 1199.31 L 1463.73 1197.62 C 1465.19 1197.14 1466.63 1196.63 1468.05 1196.06 C 1476.9 1192.49 1482.23 1183.07 1485.69 1174.75 L 1483.77 1164.67 L 1481.22 1167.63 C 1475.11 1168.38 1474.49 1168.94 1468.72 1166.9 C 1465.34 1172.77 1468 1185.44 1460.13 1187.67 C 1462.07 1184.2 1463.81 1181.44 1465.97 1178.1 C 1467.19 1137.24 1465.91 1095.81 1466.85 1054.89 C 1467.12 1043.44 1468.17 1023.17 1463.3 1013.21 C 1453.71 1007.31 1390.55 1009.51 1374.5 1009.54 L 1251.28 1009.19 L 793.809 1009.75 L 683.851 1009.82 C 662.93 1009.92 639.967 1010.58 619.22 1010.03 C 610.706 1009.42 592.046 1015.01 587.527 1008.57 C 582.936 1005.19 577.844 1001.89 572.439 1005.41 C 568.015 1007.66 567.178 1007.9 563.079 1004.96 z"/>
<path transform="translate(0,0)" fill="rgb(237,254,149)" d="M 587.527 1008.57 C 592.046 1015.01 610.706 1009.42 619.22 1010.03 C 612.603 1012.96 608.921 1012.28 601.902 1012.52 C 603.694 1016.16 604.9 1019.99 608.367 1021.75 C 611.429 1021.95 613.928 1022.19 616.98 1022.55 C 614.002 1023.01 610.45 1023.4 607.645 1024.34 C 604.517 1025.81 604.21 1025.66 602.275 1028.61 C 599.959 1041.93 601.132 1154.02 603.619 1160.57 C 604.482 1161.28 605.225 1162.06 606.175 1162.44 C 613.82 1164.99 680.082 1163.92 692.088 1163.91 L 845.022 1163.88 L 1237.39 1163.92 C 1302.83 1163.92 1373.29 1165.25 1438.12 1163.78 C 1440.26 1163.69 1443.97 1162.82 1446.21 1162.38 C 1448.12 1165.28 1447.56 1168.61 1446.19 1171.51 C 1438.29 1178.28 1410.63 1175.85 1399.41 1175.84 L 1328.02 1175.84 L 1110.47 1176.02 L 786.961 1176.33 C 724.502 1176.36 659.256 1177.19 596.982 1175.92 C 593.287 1173.76 588.482 1171 586.688 1166.89 C 582.517 1157.35 581.809 1040.58 583.038 1025.79 C 583.578 1019.29 584.999 1014.5 587.527 1008.57 z"/>
<path transform="translate(0,0)" fill="rgb(237,254,149)" d="M 561.726 1022.6 C 561.796 1016.69 561.567 1010.65 563.079 1004.96 C 567.178 1007.9 568.015 1007.66 572.439 1005.41 C 569.702 1011.66 566.491 1017.65 561.726 1022.6 z"/>
<path transform="translate(0,0)" fill="rgb(21,75,12)" d="M 693.504 1203.38 C 713.048 1201.65 734.38 1202.04 754.117 1202.02 L 836.949 1202 L 1106.29 1201.99 L 1276.39 1201.96 C 1292.56 1201.96 1344.13 1200.92 1356.44 1203.82 C 1362.93 1201.96 1373.28 1211.71 1373.47 1216.96 C 1374.29 1240.33 1366.43 1272.93 1362.5 1295.7 L 1337.27 1438.43 C 1336.04 1445.3 1329.58 1476.32 1329.47 1481.75 C 1332.03 1490.43 1323.22 1528.59 1320.96 1538.77 C 1317.79 1553.02 1315.81 1578.52 1308.24 1589.55 L 1306.71 1589.8 C 1304.61 1591.9 1302.41 1593.89 1300.1 1595.77 C 1278.1 1613.58 1232.62 1608.87 1204.8 1608.85 C 1168.03 1608.72 1131.26 1608.8 1094.48 1609.09 C 1025.24 1609.93 956.001 1610.19 886.758 1609.86 L 825.633 1609.8 C 810.74 1609.77 795.283 1609.92 780.468 1608.41 C 736.297 1603.91 735.547 1555.15 728.937 1520.88 L 710.952 1428.15 C 706.191 1403.76 667.322 1219.86 669.42 1205.84 C 674.243 1204.39 688.572 1202.34 693.504 1203.38 z M 725.48 1262.57 L 740.998 1344.2 C 744.374 1354.3 749.943 1390.65 752.692 1403.18 C 764.265 1455.92 772.748 1510.12 784.632 1562.76 L 1109.58 1562.68 L 1205.67 1562.63 C 1222.19 1562.71 1254.2 1563.72 1269.19 1561.74 C 1273.03 1536.07 1279.2 1506.75 1283.9 1480.85 L 1313.18 1320.24 L 1324.32 1259.94 C 1326.48 1248.25 1329.54 1233.92 1330.49 1222.34 C 1268.79 1223.53 1202.63 1222.68 1140.71 1222.54 L 874.902 1222.52 C 824.465 1222.52 767.695 1221.16 717.829 1222.75 C 720.183 1236.06 722.734 1249.34 725.48 1262.57 z"/>
<path transform="translate(0,0)" fill="rgb(237,254,149)" d="M 1306.71 1589.8 C 1304.61 1591.9 1302.41 1593.89 1300.1 1595.77 C 1278.1 1613.58 1232.62 1608.87 1204.8 1608.85 C 1168.03 1608.72 1131.26 1608.8 1094.48 1609.09 C 1025.24 1609.93 956.001 1610.19 886.758 1609.86 L 825.633 1609.8 C 810.74 1609.77 795.283 1609.92 780.468 1608.41 C 736.297 1603.91 735.547 1555.15 728.937 1520.88 L 710.952 1428.15 C 706.191 1403.76 667.322 1219.86 669.42 1205.84 C 674.243 1204.39 688.572 1202.34 693.504 1203.38 C 692.028 1206.8 692.137 1208.38 692.83 1212.17 C 697.668 1238.61 703.007 1265.06 708.116 1291.45 L 739.544 1453.38 L 754.69 1531.94 C 757.2 1544.85 759.255 1558.48 763.191 1570.96 C 767.112 1583.39 780.96 1588.49 792.913 1588.69 C 819.203 1589.15 845.535 1588.92 871.837 1588.87 L 1014.14 1588.7 L 1171.4 1588.48 C 1200.94 1588.46 1230.66 1588.75 1260.18 1588.11 C 1266.41 1587.98 1270.31 1587.48 1275.93 1585.09 C 1282.45 1582.31 1289.82 1575.98 1291.64 1568.86 C 1295 1555.72 1297.39 1540.25 1299.81 1526.81 L 1315.91 1437.34 L 1343.74 1283.72 C 1346.74 1267.19 1356.51 1218.79 1356.44 1203.82 C 1362.93 1201.96 1373.28 1211.71 1373.47 1216.96 C 1374.29 1240.33 1366.43 1272.93 1362.5 1295.7 L 1337.27 1438.43 C 1336.04 1445.3 1329.58 1476.32 1329.47 1481.75 C 1332.03 1490.43 1323.22 1528.59 1320.96 1538.77 C 1317.79 1553.02 1315.81 1578.52 1308.24 1589.55 L 1306.71 1589.8 z"/>
<path transform="translate(0,0)" fill="rgb(138,208,49)" d="M 1329.47 1481.75 C 1332.03 1490.43 1323.22 1528.59 1320.96 1538.77 C 1317.79 1553.02 1315.81 1578.52 1308.24 1589.55 L 1306.71 1589.8 C 1318.07 1559.97 1323.49 1514.39 1329.47 1481.75 z"/>
<path transform="translate(0,0)" fill="rgb(14,55,7)" d="M 740.998 1344.2 C 739.293 1343.85 739.825 1343.93 738.273 1342.87 C 736.119 1336.29 722.197 1266.44 723.654 1262.78 L 725.48 1262.57 L 740.998 1344.2 z"/>
<path transform="translate(0,0)" fill="rgb(21,75,12)" d="M 724.984 699.539 C 699.187 686.621 668.202 653.075 651.305 629.792 C 601.095 560.604 583.966 477.013 573.846 393.698 C 571.924 377.872 566.84 354.811 569.717 339.388 C 570.766 333.764 573.419 329.871 578.284 326.823 C 603.418 311.073 726.003 331.197 758.3 339.577 C 841.547 361.175 907.26 408.533 950.971 483.101 C 989.387 548.635 998.839 618.221 979.755 691.405 C 986.268 701.02 1005.37 725.183 1001.82 734.287 C 993.959 754.43 976.584 738.378 970.781 728.056 C 965.545 727.745 957.765 729.934 952.67 731.34 C 890.413 748.519 821.099 746.567 761.734 720.004 C 749.802 714.666 735.654 707.788 724.984 699.539 z M 911.658 677.152 C 880.743 630.175 827.824 590.853 786.809 553.531 C 770.489 537.222 748.616 513.409 759.171 488.588 C 795.888 458.332 892.056 550.234 919.602 574.436 C 906.545 515.922 861.36 462.482 810.332 432.729 C 762.609 404.903 699.669 389.946 644.417 389.207 C 642.154 391.694 642.002 393.051 642.304 396.56 C 649.472 480.107 677.293 568.191 741.048 625.218 C 783.748 662.777 839.576 681.912 896.338 678.446 C 901.07 678.162 906.995 677.82 911.658 677.152 z"/>
<path transform="translate(0,0)" fill="url(#Gradient6)" d="M 724.984 699.539 C 699.187 686.621 668.202 653.075 651.305 629.792 C 601.095 560.604 583.966 477.013 573.846 393.698 C 571.924 377.872 566.84 354.811 569.717 339.388 C 570.766 333.764 573.419 329.871 578.284 326.823 C 603.418 311.073 726.003 331.197 758.3 339.577 C 841.547 361.175 907.26 408.533 950.971 483.101 C 989.387 548.635 998.839 618.221 979.755 691.405 L 976.84 688.163 C 968.688 678.505 957.413 657.621 953.382 645.706 C 952.021 641.684 948.63 638.567 947.846 633.877 C 952.916 589.689 936.129 538.918 912.668 502.936 C 857.185 417.841 759.245 378.432 661.381 370.844 C 652.275 370.138 637.794 370.362 629.145 368.327 C 623.816 369.116 624.414 368.176 621.132 371.185 C 618.464 378.238 619.001 381.542 619.547 388.706 C 628.107 500.989 668.325 613.956 772.722 671.073 C 768.871 675.022 768.649 674.711 763.477 676.785 L 761.772 677.485 L 760.743 677.89 C 747.093 671.191 737.996 664.422 725.628 655.666 C 732.379 663.203 757.057 682.023 765.009 685.03 L 766.176 687.465 C 763.124 692.801 751.348 694.774 745.576 694.928 C 734.387 703.88 737.77 702.667 724.984 699.539 z"/>
<path transform="translate(0,0)" fill="url(#Gradient5)" d="M 687.781 355.955 C 696.931 356.326 727.254 354.657 733.074 357.77 C 736.727 360.354 747.452 362.473 752.306 363.689 C 795.711 374.56 836.487 394.882 870.862 423.596 C 874.269 426.441 877.725 429.888 882.027 430.89 C 887.638 432.866 909.24 456.952 913.57 462.717 C 915.272 464.771 917.988 467.86 919.396 469.958 C 930.82 484.621 943.47 504.464 950.59 521.765 C 961.871 543.339 971.603 583.242 973.842 606.998 C 975.028 619.587 974.309 634.561 975.792 647.603 C 974.538 644.503 973.347 641.584 972.249 638.425 C 967.188 643.622 960.935 643.571 958.941 652.359 C 957.032 660.775 978.484 683.335 976.84 688.163 C 968.688 678.505 957.413 657.621 953.382 645.706 C 952.021 641.684 948.63 638.567 947.846 633.877 C 952.916 589.689 936.129 538.918 912.668 502.936 C 857.185 417.841 759.245 378.432 661.381 370.844 C 652.275 370.138 637.794 370.362 629.145 368.327 L 622.404 367.262 C 624.011 365.464 625.58 363.633 627.11 361.769 C 649.394 359.801 664.398 356.223 687.781 355.955 z"/>
<path transform="translate(0,0)" fill="rgb(138,208,49)" d="M 950.59 521.765 L 949.44 521.305 C 943.431 514.06 927.862 482.273 919.894 472.939 C 919.404 472.366 919.429 470.877 919.396 469.958 C 930.82 484.621 943.47 504.464 950.59 521.765 z"/>
<path transform="translate(0,0)" fill="rgb(138,208,49)" d="M 882.027 430.89 C 887.638 432.866 909.24 456.952 913.57 462.717 C 911.047 462.151 883.509 434.265 882.027 430.89 z"/>
<path transform="translate(0,0)" fill="rgb(254,254,237)" d="M 614.834 363.22 C 604.076 357.303 597.762 355.798 586.11 352.801 C 583.874 348.923 580.861 343.041 581.978 338.395 C 582.386 336.699 582.756 335.902 584.197 334.983 C 594.02 328.722 678.571 334.8 692.767 337.961 C 694.061 338.249 695.355 338.502 696.658 338.751 C 692.594 339.341 686.206 337.853 681.933 337.113 C 677.644 339.822 671.611 350.028 675.243 355.162 C 680.579 356.937 685.16 353.024 694.182 354.08 C 691.622 355.607 690.822 355.407 687.781 355.955 C 664.398 356.223 649.394 359.801 627.11 361.769 C 623.402 361.88 618.59 362.698 614.834 363.22 z"/>
<path transform="translate(0,0)" fill="rgb(138,208,49)" d="M 733.074 357.77 C 776.989 363.64 825.761 385.932 861.038 412.519 C 866.916 416.949 877.632 425.179 882.027 430.89 C 877.725 429.888 874.269 426.441 870.862 423.596 C 836.487 394.882 795.711 374.56 752.306 363.689 C 747.452 362.473 736.727 360.354 733.074 357.77 z"/>
<path transform="translate(0,0)" fill="rgb(237,254,149)" d="M 782.024 519.739 C 791.799 515.773 794.611 523.295 803.976 523.449 C 805.529 522.316 806.952 520.746 808.496 520.942 C 813.482 521.575 829.478 535.202 833.164 531.59 C 833.639 531.125 836.072 528.172 836.744 527.314 C 873.997 552.527 918.934 599.316 947.846 633.877 C 948.63 638.567 952.021 641.684 953.382 645.706 C 957.413 657.621 968.688 678.505 976.84 688.163 L 979.755 691.405 C 986.268 701.02 1005.37 725.183 1001.82 734.287 C 993.959 754.43 976.584 738.378 970.781 728.056 C 971.688 718.83 958.063 697.253 951.606 690.622 C 945.465 680.502 936.112 666.178 929.121 656.661 C 897.607 609.714 871.184 590.379 827.106 556.138 C 826.103 554.355 816.007 546.198 813.584 544.692 C 808.475 541.52 809.327 541.959 804.414 542.872 C 795.978 534.88 789.179 528.95 782.024 519.739 z"/>
<path transform="translate(0,0)" fill="rgb(173,237,71)" d="M 765.009 685.03 C 820.708 711.62 883.939 724.392 942.743 702.64 C 944.375 702.037 944.214 702.145 945.294 700.738 C 945.709 696.245 944.104 691.717 945.306 688.25 L 947.575 687.68 C 949.631 689.805 949.557 690.516 951.606 690.622 C 958.063 697.253 971.688 718.83 970.781 728.056 C 965.545 727.745 957.765 729.934 952.67 731.34 C 890.413 748.519 821.099 746.567 761.734 720.004 C 749.802 714.666 735.654 707.788 724.984 699.539 C 737.77 702.667 734.387 703.88 745.576 694.928 C 751.348 694.774 763.124 692.801 766.176 687.465 L 765.009 685.03 z"/>
<path transform="translate(0,0)" fill="url(#Gradient4)" d="M 929.121 656.661 C 936.112 666.178 945.465 680.502 951.606 690.622 C 949.557 690.516 949.631 689.805 947.575 687.68 L 945.306 688.25 C 944.104 691.717 945.709 696.245 945.294 700.738 C 944.214 702.145 944.375 702.037 942.743 702.64 C 883.939 724.392 820.708 711.62 765.009 685.03 C 757.057 682.023 732.379 663.203 725.628 655.666 C 737.996 664.422 747.093 671.191 760.743 677.89 L 761.772 677.485 L 763.477 676.785 C 768.649 674.711 768.871 675.022 772.722 671.073 C 780.412 674.892 788.277 678.346 796.293 681.423 C 836.248 696.441 875.833 701.145 918.08 695.122 C 921.728 694.353 942.413 692.91 942.697 687.767 C 943.096 680.525 929.772 665.088 925.376 659.361 C 927.366 658.36 927.376 658.129 929.121 656.661 z"/>
<path transform="translate(0,0)" fill="rgb(138,208,49)" d="M 830.553 566.606 C 828.682 559.746 826.023 561.427 827.106 556.138 C 871.184 590.379 897.607 609.714 929.121 656.661 C 927.376 658.129 927.366 658.36 925.376 659.361 C 923.931 658.18 914.269 646.9 912.001 644.337 C 903.133 634.185 893.939 624.322 884.433 614.766 C 868.451 599.009 845.159 581.786 830.553 566.606 z"/>
<path transform="translate(0,0)" fill="rgb(249,253,186)" d="M 782.024 519.739 C 778.218 514.255 767.796 501.59 775.283 496.515 C 790.592 494.33 821.409 515.823 833.408 524.764 C 834.53 525.601 835.642 526.451 836.744 527.314 C 836.072 528.172 833.639 531.125 833.164 531.59 C 829.478 535.202 813.482 521.575 808.496 520.942 C 806.952 520.746 805.529 522.316 803.976 523.449 C 794.611 523.295 791.799 515.773 782.024 519.739 z"/>
<path transform="translate(0,0)" fill="rgb(173,237,71)" d="M 804.414 542.872 C 809.327 541.959 808.475 541.52 813.584 544.692 C 816.007 546.198 826.103 554.355 827.106 556.138 C 826.023 561.427 828.682 559.746 830.553 566.606 C 822.518 559.943 812.337 550.087 804.414 542.872 z"/>
<path transform="translate(0,0)" fill="url(#Gradient3)" d="M 1061.21 644.528 C 1055.46 567.954 1080.43 497.962 1130.08 439.926 C 1196.12 362.735 1296.44 333.389 1394.35 326.16 C 1406.25 325.282 1464.32 319.022 1472.33 325.101 C 1477.03 328.669 1478.04 336.076 1478.23 341.521 C 1479.02 364.81 1475.04 390.547 1472.3 413.671 C 1461.85 501.527 1441.44 591.659 1377.89 657.383 C 1361.98 673.839 1333.62 699.396 1312.15 707.622 C 1306.83 706.848 1305.6 711.198 1298.53 711.416 C 1295.7 709.775 1275.1 694.142 1274.21 692.368 C 1281.89 689.313 1299.9 679.317 1305.45 673.681 C 1301.79 675.671 1298.55 677.253 1294.78 679.021 L 1294.8 677.815 C 1299.64 674.393 1307.71 669.15 1313.57 668.339 C 1302.5 661.476 1305.98 661.031 1295.25 667.288 L 1293.67 666.316 C 1303.42 659.146 1315.04 653.329 1324.69 645.149 C 1366.66 609.575 1387.55 572.265 1406.41 522.371 C 1418.17 483.172 1433.24 410.177 1430.58 369.938 C 1409.49 369.653 1376.87 374.696 1356.2 378.978 C 1289.97 392.695 1218.24 416.426 1169.58 465.582 C 1118.54 517.145 1102.34 566.454 1099.43 636.304 C 1092.3 646.406 1076.62 666.936 1068.47 677.084 C 1065.33 668.614 1060.76 653.512 1061.21 644.528 z"/>
<path transform="translate(0,0)" fill="url(#Gradient2)" d="M 1105.24 510.963 C 1109.56 500.872 1119.71 485.983 1126.32 477.337 C 1158.71 435.262 1201.96 402.81 1251.41 383.469 C 1268.7 376.473 1286.45 370.636 1304.52 365.999 C 1325.96 360.458 1441.45 338.04 1457.16 343.858 C 1460.01 347.891 1458.83 356.144 1457.87 360.995 C 1451.62 392.649 1450.27 423.862 1445.11 455.807 C 1437.11 505.374 1420.18 556.495 1393.53 599.269 C 1389.39 605.904 1370.64 627.115 1364.8 632.945 C 1360.94 636.57 1360.08 637.873 1355.29 639.667 C 1346.69 647.456 1325.09 670.143 1313.57 668.339 C 1302.5 661.476 1305.98 661.031 1295.25 667.288 L 1293.67 666.316 C 1303.42 659.146 1315.04 653.329 1324.69 645.149 C 1366.66 609.575 1387.55 572.265 1406.41 522.371 C 1418.17 483.172 1433.24 410.177 1430.58 369.938 C 1409.49 369.653 1376.87 374.696 1356.2 378.978 C 1289.97 392.695 1218.24 416.426 1169.58 465.582 C 1118.54 517.145 1102.34 566.454 1099.43 636.304 C 1092.3 646.406 1076.62 666.936 1068.47 677.084 C 1065.33 668.614 1060.76 653.512 1061.21 644.528 C 1061.58 642.297 1061.87 640.931 1062.45 638.743 C 1065.19 636.25 1066.84 636.285 1070.47 635.554 L 1071.25 641.458 C 1073.77 610.366 1079.1 565.149 1093.44 536.72 C 1096.55 527.78 1100.5 519.156 1105.24 510.963 z"/>
<path transform="translate(0,0)" fill="rgb(237,254,149)" d="M 1406.41 522.371 C 1409.16 527.976 1407.84 536.428 1412.14 546.105 C 1402.91 569.28 1381.37 612.295 1363.78 629.794 L 1364.8 632.945 C 1360.94 636.57 1360.08 637.873 1355.29 639.667 C 1346.69 647.456 1325.09 670.143 1313.57 668.339 C 1302.5 661.476 1305.98 661.031 1295.25 667.288 L 1293.67 666.316 C 1303.42 659.146 1315.04 653.329 1324.69 645.149 C 1366.66 609.575 1387.55 572.265 1406.41 522.371 z"/>
<path transform="translate(0,0)" fill="rgb(173,237,71)" d="M 1363.78 629.794 L 1364.8 632.945 C 1360.94 636.57 1360.08 637.873 1355.29 639.667 L 1363.78 629.794 z"/>
<path transform="translate(0,0)" fill="rgb(138,208,49)" d="M 1105.24 510.963 C 1104.47 518.262 1098.73 528.934 1095.24 535.603 L 1093.44 536.72 C 1096.55 527.78 1100.5 519.156 1105.24 510.963 z"/>
<path transform="translate(0,0)" fill="url(#Gradient1)" d="M 1083.8 727.622 C 1079.25 735.184 1076.95 740.816 1068.32 744.489 C 1054.55 750.356 1039.89 738.682 1048.74 724.461 C 1076.66 679.573 1110.59 637.373 1147.58 599.612 C 1152.55 594.535 1157.92 589.61 1163.18 584.842 C 1190.82 560.94 1219.24 537.897 1249.82 517.83 C 1260.08 511.179 1303.12 483.064 1312.82 489.303 C 1314.18 495.81 1304.5 511.636 1301.1 517.457 C 1282.65 547.321 1228.35 584.43 1201.05 606.557 C 1174.25 628.281 1136.1 662.984 1115.77 689.963 C 1167.91 707.019 1237.09 695.201 1285.6 670.537 C 1288.3 669.158 1291 667.751 1293.67 666.316 L 1295.25 667.288 C 1305.98 661.031 1302.5 661.476 1313.57 668.339 C 1307.71 669.15 1299.64 674.393 1294.8 677.815 L 1294.78 679.021 C 1298.55 677.253 1301.79 675.671 1305.45 673.681 C 1299.9 679.317 1281.89 689.313 1274.21 692.368 C 1275.1 694.142 1295.7 709.775 1298.53 711.416 C 1305.6 711.198 1306.83 706.848 1312.15 707.622 C 1307.89 711.483 1295.27 716.73 1289.57 719.144 C 1221.92 747.765 1153.26 748.782 1083.8 727.622 z"/>
<path transform="translate(0,0)" fill="rgb(237,254,149)" d="M 1083.8 727.622 C 1079.25 735.184 1076.95 740.816 1068.32 744.489 C 1054.55 750.356 1039.89 738.682 1048.74 724.461 C 1076.66 679.573 1110.59 637.373 1147.58 599.612 C 1152.55 594.535 1157.92 589.61 1163.18 584.842 C 1190.82 560.94 1219.24 537.897 1249.82 517.83 C 1260.08 511.179 1303.12 483.064 1312.82 489.303 C 1314.18 495.81 1304.5 511.636 1301.1 517.457 L 1298.69 515.489 C 1296.33 515.823 1281.19 529.626 1276.86 532.785 C 1219.04 574.964 1162.55 617.974 1118.81 675.462 C 1112.41 683.873 1086.61 719.011 1083.8 727.622 z"/>
<path transform="translate(0,0)" fill="rgb(138,208,49)" d="M 1294.78 679.021 C 1298.55 677.253 1301.79 675.671 1305.45 673.681 C 1299.9 679.317 1281.89 689.313 1274.21 692.368 C 1263.04 696.673 1251.58 700.909 1240.11 704.221 C 1235.73 705.485 1231.75 706.742 1228.06 704.192 C 1227.35 703.7 1225.13 705.944 1222.25 704.294 C 1226.28 702.37 1228.26 702.708 1232.53 701.812 C 1255.29 697.027 1274.33 690.987 1294.78 679.021 z"/>
<path transform="translate(0,0)" fill="rgb(237,254,149)" d="M 1016.25 759.97 C 1032.35 759.533 1042.94 763.385 1043.54 782.579 C 1045.2 835.821 1043.16 889.362 1044.08 942.668 C 1044.47 964.795 1035.76 977.282 1012 969.053 L 1011.53 970.284 L 1010.08 970.062 C 1007.45 967.412 1001.89 962.47 1001.59 959.081 C 1000.83 950.34 1000.82 940.472 1000.69 931.718 C 1000.37 907.202 1000.39 882.682 1000.76 858.166 C 1000.89 840.193 997.501 778.276 1005.44 765.669 L 1006.98 765.777 L 1016.25 759.97 z"/>
<path transform="translate(0,0)" fill="rgb(14,55,7)" d="M 1012 969.053 L 1011.53 970.284 L 1010.08 970.062 C 1007.45 967.412 1001.89 962.47 1001.59 959.081 C 1000.83 950.34 1000.82 940.472 1000.69 931.718 C 1000.37 907.202 1000.39 882.682 1000.76 858.166 C 1000.89 840.193 997.501 778.276 1005.44 765.669 L 1006.98 765.777 C 1006.59 766.84 1006.23 767.911 1005.85 768.978 C 1005.73 769.319 1005.6 769.654 1005.48 769.994 C 1001.53 781.177 1002.07 929.363 1003.13 950.651 C 1003.31 954.307 1003.41 958.596 1005.22 961.851 C 1006.8 964.712 1009.52 967.002 1012 969.053 z"/>
<path transform="translate(0,0)" fill="rgb(173,237,71)" d="M 1020.71 779.631 C 1024.54 780.232 1029.17 781.139 1029.56 786.03 C 1030.19 793.98 1030.01 802.182 1030.02 810.17 L 1030.07 857.953 L 1030.09 920.409 C 1030.09 930.495 1030.34 941.269 1029.69 951.343 C 1029.47 954.766 1026.9 957.755 1024.8 960.425 C 1016.29 956.033 1016.25 952.203 1016.24 942.871 C 1016.16 890.807 1014.92 838.39 1016.96 786.406 C 1017.07 783.704 1019.01 781.492 1020.71 779.631 z"/>
</svg>