<svg version="1.1" xmlns="http://www.w3.org/2000/svg" style="display: block;" viewBox="0 0 2048 2048" width="1024" height="1024" preserveAspectRatio="none">
<defs>
	<linearGradient id="Gradient1" gradientUnits="userSpaceOnUse" x1="1454.97" y1="1125.53" x2="1575.7" y2="655.878">
		<stop class="stop0" offset="0" stop-opacity="1" stop-color="rgb(239,255,126)"/>
		<stop class="stop1" offset="1" stop-opacity="1" stop-color="rgb(255,255,189)"/>
	</linearGradient>
	<linearGradient id="Gradient2" gradientUnits="userSpaceOnUse" x1="1651.82" y1="1154" x2="1728.47" y2="1117.13">
		<stop class="stop0" offset="0" stop-opacity="1" stop-color="rgb(215,249,71)"/>
		<stop class="stop1" offset="1" stop-opacity="1" stop-color="rgb(255,255,154)"/>
	</linearGradient>
	<linearGradient id="Gradient3" gradientUnits="userSpaceOnUse" x1="1261.12" y1="1021.1" x2="1753.52" y2="980.605">
		<stop class="stop0" offset="0" stop-opacity="1" stop-color="rgb(232,254,100)"/>
		<stop class="stop1" offset="1" stop-opacity="1" stop-color="rgb(251,255,164)"/>
	</linearGradient>
	<linearGradient id="Gradient4" gradientUnits="userSpaceOnUse" x1="1059.6" y1="550.724" x2="1200.29" y2="150.215">
		<stop class="stop0" offset="0" stop-opacity="1" stop-color="rgb(228,255,100)"/>
		<stop class="stop1" offset="1" stop-opacity="1" stop-color="rgb(255,255,182)"/>
	</linearGradient>
	<linearGradient id="Gradient5" gradientUnits="userSpaceOnUse" x1="899.065" y1="314.05" x2="969.103" y2="391.043">
		<stop class="stop0" offset="0" stop-opacity="1" stop-color="rgb(138,209,29)"/>
		<stop class="stop1" offset="1" stop-opacity="1" stop-color="rgb(184,239,65)"/>
	</linearGradient>
	<linearGradient id="Gradient6" gradientUnits="userSpaceOnUse" x1="1031.79" y1="446.771" x2="988.43" y2="213.261">
		<stop class="stop0" offset="0" stop-opacity="1" stop-color="rgb(221,252,98)"/>
		<stop class="stop1" offset="1" stop-opacity="1" stop-color="rgb(251,255,163)"/>
	</linearGradient>
	<linearGradient id="Gradient7" gradientUnits="userSpaceOnUse" x1="665.932" y1="864.356" x2="545.813" y2="377.448">
		<stop class="stop0" offset="0" stop-opacity="1" stop-color="rgb(225,255,139)"/>
		<stop class="stop1" offset="1" stop-opacity="1" stop-color="rgb(255,255,221)"/>
	</linearGradient>
</defs>
<path transform="translate(0,0)" fill="rgb(40,92,12)" d="M 849.46 316.577 C 859.148 301 867.647 285.054 880.048 271.304 C 929.953 215.973 1002.37 187.498 1072.93 171.012 C 1096.59 165.492 1120.48 160.999 1144.53 157.546 C 1168.79 154.093 1270.61 142.88 1289.01 155.034 C 1292.79 157.536 1293.91 161.1 1294.64 165.368 C 1298.58 188.436 1274.25 306.726 1264.32 330.366 C 1288.91 305.115 1299.63 299.243 1333.65 314.356 C 1406.96 346.914 1472.77 397.563 1529.97 453.261 C 1550.11 473.006 1569.21 493.789 1587.18 515.524 C 1604.56 536.429 1670.43 623.691 1671.41 647.774 C 1671.55 651.051 1670.82 654.055 1668.43 656.453 C 1658.95 665.978 1605.52 686.214 1592.22 685.615 C 1587.87 685.419 1585.12 683.285 1582.35 680.121 C 1573.1 669.555 1567.1 654.559 1559.74 642.559 C 1548.87 625.048 1537.2 608.048 1524.76 591.613 C 1472.85 521.681 1405.38 460.901 1329.3 418.005 C 1303.38 403.389 1281.08 395.3 1255.7 382.759 C 1251.88 389.907 1249.27 399.576 1246.61 407.35 C 1243.28 416.98 1239.59 426.484 1235.56 435.844 C 1187.32 548.378 1087.96 590.958 970.306 577.727 C 990.195 672.213 946.389 752.186 863.193 797.739 C 822.557 819.988 778.9 827.336 735.413 841.44 C 731.423 842.74 726.784 845.834 725.525 850.076 C 734.004 873.468 771.344 891.905 792.872 902.876 C 822.373 917.91 877.607 933.139 890.699 966.287 C 892.48 970.796 894.152 978.027 896.164 983.161 C 907.218 990.519 920.158 996.278 931.06 1003.43 C 966.093 1026.43 991.992 1052.81 1000.56 1094.76 C 1014.95 1165.24 940.101 1185.31 974.302 1260.3 C 982.208 1277.84 996.505 1294.42 1012.46 1305.13 C 1034.5 1319.91 1062.88 1324.81 1089 1323.78 C 1096.8 1323.48 1104.65 1322.7 1112.45 1321.51 C 1117.27 1320.78 1122.19 1320.11 1127.14 1319.06 C 1165.46 1310.94 1226.24 1298.87 1241.25 1348.63 C 1251.5 1389.85 1161.32 1414.93 1133.25 1418.7 C 1066.64 1429.34 997.872 1416.93 943.852 1375.57 C 878.619 1327.28 843.54 1242.23 873.455 1163.83 C 878.469 1150.69 887.202 1139.1 891.166 1125.62 C 899.656 1098.66 863.911 1066.26 844.577 1051.56 C 773.007 997.138 706.674 1007.82 643.454 933.868 C 622.777 909.698 609.578 880.034 605.468 848.493 C 602.275 825.666 607.295 798.209 621.595 779.62 C 655.294 735.813 718.872 731.787 767.732 715.229 C 819.527 697.676 888.382 661.702 879.498 596.817 C 875.79 569.735 862.638 554.397 852.674 530.754 C 838.625 497.42 832.995 452.343 832.099 416.139 C 831.823 404.977 833.546 392.227 834.053 381.114 C 739.594 423.536 652.445 477.854 588.636 561.203 C 570.194 585.292 550.583 613.287 547.567 643.368 C 543.224 686.694 547.775 680.168 514.218 700.696 C 480.186 721.516 470.594 790.761 464.038 827.418 C 447.134 938.632 458.691 1058.7 506.181 1161.33 C 571.415 1304.72 702.323 1419.05 848.968 1473.84 C 986.134 1525.09 1144.66 1516.4 1277.29 1455.38 C 1377.46 1408.48 1463.3 1335.7 1525.95 1244.55 C 1484.07 1246.51 1452.42 1239.71 1414.18 1223.26 C 1403.92 1233 1395.32 1245.91 1385.72 1256.31 C 1369.44 1273.95 1352.73 1291.69 1332.34 1304.62 C 1306.67 1321.87 1286.66 1318.46 1265.14 1297.42 C 1254.34 1286.85 1250.81 1271.28 1260.72 1259.08 C 1268.21 1249.35 1277.27 1241.24 1285.6 1232.22 C 1312.55 1204.18 1331.41 1180.38 1348.55 1145.44 C 1346.67 1144.13 1340.84 1140.3 1339.64 1138.87 C 1326.83 1131.43 1311.31 1104.12 1305.08 1091.05 C 1282.63 1043.96 1279.48 980.29 1297.27 931.172 C 1320.49 855.79 1388.47 806.392 1455.8 772.395 C 1531.33 734.253 1611.52 703.86 1692.67 680.053 C 1706.25 676.071 1740.16 661.427 1746.7 679.087 C 1754.7 700.713 1755.99 726.161 1759.01 749.054 C 1768.79 843.113 1775.89 979.117 1745.38 1069.62 C 1743.75 1074.32 1742.04 1078.99 1740.26 1083.64 C 1746.96 1091.06 1757.98 1101.93 1756.21 1112.38 C 1752.22 1135.94 1723.41 1165.41 1706.85 1179.51 C 1672.43 1208.78 1617.23 1233 1572.49 1237.23 C 1584.79 1242.36 1601.95 1246.27 1609.11 1258.33 C 1614.51 1267.43 1613.14 1278.44 1608.71 1287.72 C 1597.4 1311.39 1582.26 1333.86 1567.02 1355.2 C 1492.98 1456.52 1401.54 1526.45 1285.51 1572.88 C 1123.03 1638.64 941.02 1636.77 779.928 1567.68 C 717.044 1540.68 646.848 1497.79 595.947 1451.75 C 543.831 1408.88 496.635 1351 460.626 1295.02 C 390.755 1186.41 355.081 1060.48 357.919 931.457 C 358.744 893.992 361.677 843.483 369.964 806.605 C 370.33 798.756 376.433 772.67 378.422 764.491 C 396.89 686.683 429.581 612.958 474.846 547.032 C 481.719 537.053 493.537 519.754 501.657 511.042 C 505.42 503.691 522.846 485.115 528.641 478.62 C 583.656 416.711 649.407 365.255 722.724 326.733 C 737.132 319.303 760.677 308.261 776.059 303.623 C 806.66 287.781 825.591 296.937 849.46 316.577 z"/>
<path transform="translate(0,0)" fill="url(#Gradient7)" d="M 677.298 372.635 C 688.518 366.647 699.502 358.93 710.876 352.807 C 737.695 338.37 764.811 324.881 793.854 315.376 C 809.944 310.111 821.933 311.43 830.877 327.532 C 834.007 333.361 830.163 340.825 827.408 346.116 C 815.275 364.202 772.209 379.817 749.949 392.637 C 658.802 445.13 566.664 518.62 520.494 615.541 C 514.917 627.247 514.503 652.789 512.456 666.289 C 503.506 674.316 490.669 679.556 483.073 689.116 C 467.397 708.842 459.006 732.993 452.241 757.17 C 441.31 796.239 435.668 836.155 432.356 876.558 C 430.885 894.505 431.299 914.455 429.204 932.037 L 416.114 930.151 C 409.763 928.75 391.417 927.204 383.843 926.151 C 383.641 922.591 383.677 919.546 383.764 915.976 C 384.969 874.032 389.698 832.263 397.899 791.111 C 424.738 653.151 485.094 539.155 587.232 441.654 C 603.802 427.513 620.224 413.087 637.696 400.05 C 650.478 390.513 664.339 381.966 677.298 372.635 z"/>
<path transform="translate(0,0)" fill="rgb(179,234,57)" d="M 491.417 607.829 C 495.305 598.111 505.876 582.604 511.504 573.688 C 535.344 535.917 561.672 501.422 594.276 470.688 C 649.178 419.496 712.559 378.234 781.59 348.746 C 791.714 344.335 805.374 337.522 816.543 337.081 C 821.397 336.89 823.154 342.012 826.18 344.945 L 827.408 346.116 C 815.275 364.202 772.209 379.817 749.949 392.637 C 658.802 445.13 566.664 518.62 520.494 615.541 C 514.917 627.247 514.503 652.789 512.456 666.289 C 503.506 674.316 490.669 679.556 483.073 689.116 C 467.397 708.842 459.006 732.993 452.241 757.17 C 441.31 796.239 435.668 836.155 432.356 876.558 C 430.885 894.505 431.299 914.455 429.204 932.037 L 416.114 930.151 C 412.927 917.556 417.259 851.868 420.532 839.202 C 421.537 826.577 425.55 804.251 428.033 791.488 C 440.195 728.967 459.935 663.548 491.417 607.829 z"/>
<path transform="translate(0,0)" fill="rgb(140,208,31)" d="M 491.417 607.829 C 491.801 613.561 469.669 657.042 465.932 666.893 C 446.869 717.146 433.443 768.522 425.288 821.659 C 424.457 827.077 423.74 835.198 421.9 840.015 C 420.56 839.321 420.85 839.584 420.532 839.202 C 421.537 826.577 425.55 804.251 428.033 791.488 C 440.195 728.967 459.935 663.548 491.417 607.829 z"/>
<path transform="translate(0,0)" fill="rgb(90,155,29)" d="M 501.657 511.042 C 505.42 503.691 522.846 485.115 528.641 478.62 C 583.656 416.711 649.407 365.255 722.724 326.733 C 737.132 319.303 760.677 308.261 776.059 303.623 L 776.258 305.269 C 778.176 304.733 735.865 323.989 738.923 321.556 C 729.331 329.187 698.275 338.215 695.918 349.029 L 694.82 349.065 L 693.865 347.178 L 693.187 347.916 C 693.406 351.614 691.354 359.712 689.239 362.031 L 686.884 361.642 C 685.266 363.94 684.98 364.794 682.278 365.712 L 680.281 365.21 L 680.748 368.318 C 678.971 370.069 678.109 370.456 677.298 372.635 C 664.339 381.966 650.478 390.513 637.696 400.05 C 620.224 413.087 603.802 427.513 587.232 441.654 L 585.815 440.932 C 578.663 446.894 574.868 451.333 565.409 451.026 L 563.929 450.168 C 564.247 448.626 564.308 447.918 564.242 446.281 C 552.005 456.663 545.349 462.327 535.848 475.016 C 531.773 480.459 494.828 527.29 492.613 528.539 L 492.146 527.711 C 495.446 522.951 500.747 516.408 501.657 511.042 z"/>
<path transform="translate(0,0)" fill="rgb(10,32,3)" d="M 595.947 1451.75 C 543.831 1408.88 496.635 1351 460.626 1295.02 C 390.755 1186.41 355.081 1060.48 357.919 931.457 C 358.744 893.992 361.677 843.483 369.964 806.605 C 371.575 815.7 367.543 837.261 366.662 847.625 C 365.024 866.884 362.886 885.898 361.6 905.291 C 348.442 1103.8 433.436 1298.66 578.517 1432.74 C 582.811 1436.71 595.495 1446.5 595.947 1451.75 z"/>
<path transform="translate(0,0)" fill="rgb(10,32,3)" d="M 1297.27 931.172 C 1299.82 937.897 1291.01 964.834 1290.12 973.949 C 1287.47 1001.2 1288.38 1026.2 1294.78 1052.94 C 1300.66 1077.48 1311.63 1103.73 1327.94 1123.21 C 1330.51 1126.27 1340.33 1135.6 1339.64 1138.87 C 1326.83 1131.43 1311.31 1104.12 1305.08 1091.05 C 1282.63 1043.96 1279.48 980.29 1297.27 931.172 z"/>
<path transform="translate(0,0)" fill="rgb(179,234,57)" d="M 1080.25 194.492 C 1108.91 186.216 1245.05 165.501 1270.24 172.724 C 1270.98 175.258 1270.88 175.571 1270.94 178.252 C 1272.98 183.243 1266.67 222.85 1264.96 232.023 C 1252.83 297.236 1239.32 364.74 1214.14 426.313 C 1209.64 437.311 1192.44 469.03 1183.96 475.566 L 1182.69 475.85 C 1175.73 483.311 1168.93 491.096 1161.91 498.441 L 1162.18 500.545 C 1138.17 529.092 1075.85 551.012 1038.81 553.553 C 1033.66 553.907 1012.23 555.894 1008.2 554.779 C 1009.61 554.022 1016.68 553.985 1020.07 553.019 L 1001.39 552.847 C 973.549 553.093 949.597 545.269 924.249 535.138 C 956.816 584.721 953.179 662.406 918.499 710.047 C 913.506 716.905 908.726 723.235 903.291 729.75 L 904.124 731.562 C 898.894 739.328 892.397 743.878 885.158 749.945 C 853.641 776.362 814.932 793.906 774.972 803.007 C 772.111 803.659 770.625 803.593 767.784 803.199 C 745.65 808.072 687.914 819.587 697.349 852.36 C 705.414 880.371 736.972 900.206 761.045 913.537 C 773.228 920.256 785.767 926.309 798.606 931.668 C 807.97 935.663 838.005 947.762 845.271 953.64 C 879.059 971.706 855.366 991.059 876.46 1000.78 C 916.544 1019.27 956.635 1044.35 970.809 1088.81 C 974.444 1100.32 972.873 1109.09 974.483 1115.38 C 978.576 1130.84 960.598 1155.01 954.352 1169.18 C 949.373 1180.48 944.302 1190.65 941.732 1203.3 C 938.768 1217.9 941.264 1232.66 943.228 1247.24 C 943.418 1248.66 946.587 1254.26 947.019 1255.98 C 951.161 1272.44 956.546 1281.37 966.941 1294.47 C 971.72 1300.49 988.206 1314.05 989.685 1318.62 C 992.044 1320.54 993.279 1321.78 995.962 1323.24 C 1001.31 1323.45 1009 1328.72 1014.4 1330.99 C 1060.92 1350.56 1115.58 1340.91 1163.7 1332.87 C 1173.42 1331.25 1201.6 1327.58 1207.72 1336.78 L 1206.46 1337.25 C 1210.57 1341.54 1211.78 1342.79 1215.04 1347.93 C 1222.38 1369.75 1170.59 1384.55 1156.39 1389.07 C 1028.25 1429.88 870.2 1337.64 894.109 1192.29 C 899.376 1160.27 927.2 1132.35 917.415 1099.05 C 902.004 1051.66 853.856 1023.03 813.211 999.604 C 805.771 997.112 793.239 991.068 785.231 987.889 C 761.775 978.574 736.982 970.297 715.122 957.732 C 679.425 937.214 648.694 904.168 638.069 863.677 C 632.917 844.046 630.841 816.494 642.101 798.611 C 662.627 766.011 709.154 756.154 743.827 747.296 C 758.788 743.474 773.13 739.413 787.847 735.629 C 794.657 732.228 808.076 728.528 815.817 725.456 C 887.387 697.057 929.987 631.145 896.458 556.195 C 890.392 542.634 878.715 528.78 878.008 513.762 L 877.362 512.842 C 877.928 507.254 911.318 477.12 917.362 470.521 C 947.799 437.289 974.094 399.907 1006.83 369.097 C 1013.11 363.191 1011.58 361.493 1020.75 356.57 L 1021.46 357.788 C 1058.62 326.991 1077.62 317.661 1121.87 302.286 C 1107.23 318.229 1092.86 334.412 1078.76 350.83 C 1076.04 353.934 1062.44 369.839 1060.57 371.293 C 1055.41 377.779 1049.92 383.882 1044.5 390.148 C 1014.26 425.103 983.139 460.411 956.054 497.924 C 957.534 498.178 959.015 498.423 960.498 498.658 C 1159.68 530.188 1191 374.578 1214.84 219.158 C 1161.31 229.044 1066.44 253.235 1017.65 275.841 C 996.258 285.757 976.003 297.968 957.245 312.259 C 937.657 329.95 920.857 347.825 911.18 373.017 C 903.256 401.712 903.878 424.017 902.739 453.266 C 896.968 461.124 890.76 465.665 882.913 471.38 C 876.416 475.869 873.827 477.343 866.697 480.757 C 855.141 420.631 851.673 358.334 887.367 305.283 C 917.178 260.976 961.603 234.273 1010.55 215.398 C 1021.18 211.298 1036.48 205.465 1047.49 203.2 C 1055.67 200.13 1071.64 196.324 1080.25 194.492 z"/>
<path transform="translate(0,0)" fill="url(#Gradient6)" d="M 1080.25 194.492 L 1081.12 195.588 L 1076.27 197.407 C 1083.82 197.701 1086.85 201.111 1092.55 201.451 C 1111.34 202.576 1131.39 195.674 1149.9 199.432 C 1150.36 199.525 1154.36 204.513 1157.36 205.638 L 1158 207.153 L 1158.76 207.629 C 1086.55 225.461 1008.9 250.142 954.965 306.008 C 953.732 307.285 954.405 308.672 954.826 309.973 L 957.245 312.259 C 937.657 329.95 920.857 347.825 911.18 373.017 C 903.256 401.712 903.878 424.017 902.739 453.266 C 896.968 461.124 890.76 465.665 882.913 471.38 C 876.416 475.869 873.827 477.343 866.697 480.757 C 855.141 420.631 851.673 358.334 887.367 305.283 C 917.178 260.976 961.603 234.273 1010.55 215.398 C 1021.18 211.298 1036.48 205.465 1047.49 203.2 C 1055.67 200.13 1071.64 196.324 1080.25 194.492 z"/>
<path transform="translate(0,0)" fill="url(#Gradient5)" d="M 882.913 471.38 C 880.668 467.824 879.845 454.924 878.994 449.801 C 872.216 409.003 877.183 368.281 894.927 330.785 C 915.732 286.818 957.96 260.306 1002.46 244.661 C 974.292 268.32 946.726 288.462 926.22 320.035 C 920.772 328.422 900.114 366.069 911.18 373.017 C 903.256 401.712 903.878 424.017 902.739 453.266 C 896.968 461.124 890.76 465.665 882.913 471.38 z"/>
<path transform="translate(0,0)" fill="rgb(250,254,165)" d="M 1080.25 194.492 L 1081.12 195.588 L 1076.27 197.407 C 1070.3 201.623 1054.3 205.904 1047.49 203.2 C 1055.67 200.13 1071.64 196.324 1080.25 194.492 z"/>
<path transform="translate(0,0)" fill="url(#Gradient4)" d="M 1080.25 194.492 C 1108.91 186.216 1245.05 165.501 1270.24 172.724 C 1270.98 175.258 1270.88 175.571 1270.94 178.252 C 1272.98 183.243 1266.67 222.85 1264.96 232.023 C 1252.83 297.236 1239.32 364.74 1214.14 426.313 C 1209.64 437.311 1192.44 469.03 1183.96 475.566 L 1182.69 475.85 C 1175.73 483.311 1168.93 491.096 1161.91 498.441 L 1162.18 500.545 C 1138.17 529.092 1075.85 551.012 1038.81 553.553 C 1033.66 553.907 1012.23 555.894 1008.2 554.779 C 1009.61 554.022 1016.68 553.985 1020.07 553.019 L 1001.39 552.847 C 1004.49 550.43 1036.64 551.534 1046.95 548.777 C 1048.92 546.462 1048.36 546.577 1049.04 543.232 C 1041.59 522.263 1037.57 522.799 1016.62 524.954 C 1011.74 525.455 1004.54 525.073 999.497 524.917 L 999.015 524.176 C 1051.29 523.406 1092.42 518.648 1135.98 485.989 C 1216.28 425.778 1231.78 287.487 1245.59 193.742 C 1214.74 196.718 1189.06 201.472 1158.76 207.629 L 1158 207.153 L 1157.36 205.638 C 1154.36 204.513 1150.36 199.525 1149.9 199.432 C 1131.39 195.674 1111.34 202.576 1092.55 201.451 C 1086.85 201.111 1083.82 197.701 1076.27 197.407 L 1081.12 195.588 L 1080.25 194.492 z"/>
<path transform="translate(0,0)" fill="rgb(10,32,3)" d="M 1270.94 178.252 C 1272.98 183.243 1266.67 222.85 1264.96 232.023 C 1252.83 297.236 1239.32 364.74 1214.14 426.313 C 1209.64 437.311 1192.44 469.03 1183.96 475.566 L 1182.69 475.85 C 1183.64 473.228 1194.91 459.246 1197.21 454.936 C 1205.76 438.853 1214.23 422.369 1220.1 405.086 C 1240.58 344.745 1253.77 281.77 1264.28 218.999 C 1266.46 205.999 1267.85 192.284 1270.67 179.473 L 1270.94 178.252 z"/>
<path transform="translate(0,0)" fill="rgb(10,32,3)" d="M 1161.91 498.441 L 1162.18 500.545 C 1138.17 529.092 1075.85 551.012 1038.81 553.553 C 1033.66 553.907 1012.23 555.894 1008.2 554.779 C 1009.61 554.022 1016.68 553.985 1020.07 553.019 C 1077.62 549.464 1118.25 535.186 1161.91 498.441 z"/>
<path transform="translate(0,0)" fill="rgb(221,250,93)" d="M 845.271 953.64 C 879.059 971.706 855.366 991.059 876.46 1000.78 C 916.544 1019.27 956.635 1044.35 970.809 1088.81 C 974.444 1100.32 972.873 1109.09 974.483 1115.38 C 978.576 1130.84 960.598 1155.01 954.352 1169.18 C 949.373 1180.48 944.302 1190.65 941.732 1203.3 C 938.768 1217.9 941.264 1232.66 943.228 1247.24 C 943.418 1248.66 946.587 1254.26 947.019 1255.98 C 951.161 1272.44 956.546 1281.37 966.941 1294.47 C 971.72 1300.49 988.206 1314.05 989.685 1318.62 C 992.044 1320.54 993.279 1321.78 995.962 1323.24 C 1001.31 1323.45 1009 1328.72 1014.4 1330.99 C 1060.92 1350.56 1115.58 1340.91 1163.7 1332.87 C 1173.42 1331.25 1201.6 1327.58 1207.72 1336.78 L 1206.46 1337.25 C 1210.57 1341.54 1211.78 1342.79 1215.04 1347.93 C 1207.72 1348.68 1200.88 1349.47 1193.72 1351.58 C 1168.12 1359.13 1142.02 1367.69 1115.15 1368.95 C 1113.64 1369.02 1113.92 1369.09 1112.33 1369.76 C 1083.35 1371.6 1065.28 1371.08 1036.8 1365.55 C 1029.77 1362.58 1020.77 1361.23 1013.57 1357.84 C 966.031 1335.47 942.421 1311.04 924.006 1263.07 C 917.398 1240.08 916.553 1227.08 918.388 1203.75 C 919.309 1201.8 922.047 1183.46 923.671 1179.19 C 932.91 1154.91 951.441 1131.62 947.55 1104.45 C 940.965 1058.48 900.134 1032.4 866.597 1006.67 L 866.711 1005.66 L 870.637 1006.73 C 872.338 1004.05 872.059 1003.75 872.718 1000.54 C 871.841 999.989 866.456 996.065 866.347 995.695 C 863.578 986.32 866.095 978.424 860.901 969.468 C 855.748 960.582 851.454 961.016 845.708 954.796 C 845.562 954.411 845.417 954.026 845.271 953.64 z"/>
<path transform="translate(0,0)" fill="rgb(10,32,3)" d="M 995.962 1323.24 C 1001.31 1323.45 1009 1328.72 1014.4 1330.99 C 1060.92 1350.56 1115.58 1340.91 1163.7 1332.87 C 1173.42 1331.25 1201.6 1327.58 1207.72 1336.78 L 1206.46 1337.25 C 1186.56 1327.74 1159.29 1335.91 1138.18 1339.51 C 1091.55 1347.47 1037.02 1351.24 995.962 1323.24 z"/>
<path transform="translate(0,0)" fill="rgb(19,56,7)" d="M 974.483 1115.38 C 978.576 1130.84 960.598 1155.01 954.352 1169.18 C 949.373 1180.48 944.302 1190.65 941.732 1203.3 C 938.768 1217.9 941.264 1232.66 943.228 1247.24 C 943.418 1248.66 946.587 1254.26 947.019 1255.98 C 951.161 1272.44 956.546 1281.37 966.941 1294.47 C 971.72 1300.49 988.206 1314.05 989.685 1318.62 C 943.517 1283.38 923.745 1226.32 950.136 1172.17 C 960.207 1151.51 970.894 1138.42 974.483 1115.38 z"/>
<path transform="translate(0,0)" fill="rgb(221,250,93)" d="M 813.211 999.604 C 805.771 997.112 793.239 991.068 785.231 987.889 C 761.775 978.574 736.982 970.297 715.122 957.732 C 679.425 937.214 648.694 904.168 638.069 863.677 C 632.917 844.046 630.841 816.494 642.101 798.611 C 662.627 766.011 709.154 756.154 743.827 747.296 C 758.788 743.474 773.13 739.413 787.847 735.629 L 787.932 736.824 C 781.892 738.939 775.726 740.426 769.587 742.238 C 769.447 744.355 769.897 758.197 770.523 759.849 C 773.698 758.954 776.281 757.661 778.999 758.688 C 748.606 767.435 679.013 782.97 665.531 809.66 C 641.891 856.46 689.966 916.933 731.539 935.736 C 750.884 944.485 766.149 952.802 786.517 958.339 C 792.754 960.324 814.37 964.471 817.239 966.148 C 816.991 966.191 789.972 961.068 789.31 960.589 C 778.906 953.057 771.852 962.76 769.115 961.712 C 759.509 958.035 756.284 969.043 746.545 968.97 C 746.436 967.343 746.354 965.714 746.298 964.084 C 743.233 965.584 741.367 966.452 738.173 967.62 C 759.377 979.267 791.277 986.21 814.173 998.417 L 814.64 999.211 L 813.211 999.604 z"/>
<path transform="translate(0,0)" fill="rgb(221,250,93)" d="M 1021.46 357.788 C 1058.62 326.991 1077.62 317.661 1121.87 302.286 C 1107.23 318.229 1092.86 334.412 1078.76 350.83 C 1076.04 353.934 1062.44 369.839 1060.57 371.293 L 1059.04 370.658 C 1064.59 364.631 1074.54 357.176 1067.67 350.448 C 1066.88 349.677 1066.81 348.784 1066.47 347.66 L 1065.15 347.217 C 1039.55 360.457 972.976 439.099 950.025 461.554 C 942.006 469.4 928.699 485.654 919.3 491.724 C 923.491 485.717 933.986 478.214 936.667 473.175 C 934.998 470.206 933.839 467.043 930.941 465.722 C 920.221 466.394 912.247 486.769 903.453 487.752 C 895.566 494.244 884.434 505.803 878.008 513.762 L 877.362 512.842 C 877.928 507.254 911.318 477.12 917.362 470.521 C 947.799 437.289 974.094 399.907 1006.83 369.097 C 1013.11 363.191 1011.58 361.493 1020.75 356.57 L 1021.46 357.788 z"/>
<path transform="translate(0,0)" fill="rgb(19,56,7)" d="M 878.008 513.762 L 877.362 512.842 C 877.928 507.254 911.318 477.12 917.362 470.521 C 947.799 437.289 974.094 399.907 1006.83 369.097 C 1013.11 363.191 1011.58 361.493 1020.75 356.57 L 1021.46 357.788 C 1011.38 367.419 996.044 381.742 987.055 392.257 C 959.424 424.579 933.418 457.363 903.453 487.752 C 895.566 494.244 884.434 505.803 878.008 513.762 z"/>
<path transform="translate(0,0)" fill="rgb(10,32,3)" d="M 903.291 729.75 L 904.124 731.562 C 898.894 739.328 892.397 743.878 885.158 749.945 C 853.641 776.362 814.932 793.906 774.972 803.007 C 772.111 803.659 770.625 803.593 767.784 803.199 C 823.022 787.55 861.941 772.389 903.291 729.75 z"/>
<path transform="translate(0,0)" fill="rgb(140,208,31)" d="M 1036.8 1365.55 C 1065.28 1371.08 1083.35 1371.6 1112.33 1369.76 L 1113.41 1370.33 C 1096.77 1377.83 1054.72 1372.07 1036.87 1367.22 L 1036.8 1365.55 z"/>
<path transform="translate(0,0)" fill="rgb(140,208,31)" d="M 924.006 1263.07 L 922.787 1263.01 C 914.867 1252.73 912.293 1212.66 917.504 1201.63 L 918.388 1203.75 C 916.553 1227.08 917.398 1240.08 924.006 1263.07 z"/>
<path transform="translate(0,0)" fill="rgb(221,250,93)" d="M 1658.01 714.341 C 1668.58 711.063 1719.4 692.58 1725.84 693.126 C 1731.96 699.764 1737.93 762.325 1738.13 773.492 C 1741.21 790.796 1740.97 812.338 1742.29 829.953 C 1742.52 833.125 1743 847.343 1743.73 849.832 L 1745.35 850.032 C 1746.18 857.032 1745.87 863.575 1746.12 870.731 C 1748.01 925.614 1744.05 982.341 1731.16 1035.78 C 1726.54 1054.95 1717.57 1075.42 1708.93 1093 C 1708.07 1094.75 1705.86 1098.51 1707.43 1099.61 C 1713.47 1103.81 1726.71 1104.38 1730.43 1111.08 C 1730.51 1118.96 1710.23 1139.61 1705.11 1145.18 C 1689.17 1162.48 1670.35 1174.66 1650.47 1186.57 C 1645.71 1189.42 1643.14 1190.67 1637.95 1192.8 C 1636.5 1192.41 1637.03 1192.82 1636.27 1191.71 C 1572.11 1217.89 1508.28 1231.66 1441.12 1203.74 C 1434.66 1201.06 1428.36 1198.02 1422.23 1194.64 C 1417.83 1192.04 1412.56 1189.14 1408.48 1186.17 C 1400.73 1196.75 1393.74 1206.15 1385.38 1216.22 C 1382.72 1219.42 1371.45 1232.43 1369.79 1235.07 L 1369.45 1237.89 C 1355.51 1255.26 1334.51 1274.43 1315.77 1286.05 C 1298.76 1296.6 1285.86 1290.46 1276.98 1274.09 C 1283.5 1254.79 1307.52 1233.09 1320.33 1215.77 C 1330.12 1202.53 1340.92 1189.36 1350.01 1175.28 C 1377.84 1132.17 1399.15 1084.97 1427.9 1042.57 C 1432.39 1035.94 1438.72 1025.4 1443.58 1019.93 L 1444.61 1020.65 C 1483.2 970.872 1510.41 935.478 1561.97 896.904 C 1579.26 883.967 1606.86 867.101 1621.6 855.142 C 1578.26 927.868 1526.74 998.599 1481.05 1070.02 C 1462.89 1098.42 1450.7 1121.15 1434.17 1149.72 C 1439.39 1150.94 1444.9 1151.44 1450.22 1152.16 C 1520.95 1161.79 1597.97 1142.08 1644.44 1085.19 C 1709.72 1005.25 1703.62 895.378 1692.77 799.107 C 1691.12 784.511 1689.07 770.063 1687.72 755.439 C 1645.46 773.454 1603.63 792.447 1562.25 812.404 C 1545 820.921 1519.12 833.822 1503.18 844.226 L 1504.04 845.439 C 1499.27 848.9 1492.26 852.893 1487.07 855.987 C 1472.94 864.418 1459.94 873.917 1446.8 883.741 C 1434.01 893.305 1423.8 905.143 1412.49 916.298 L 1411.77 917.505 C 1409.18 921.729 1405.47 925.423 1402.68 929.444 C 1375.47 968.737 1371.29 1012.23 1373.95 1058.99 C 1374.87 1075.08 1393.97 1110.07 1367.53 1119.68 C 1366.12 1120.19 1364.97 1119.86 1363.87 1118.98 C 1351.2 1114.75 1343.3 1100.71 1337.43 1089.27 C 1314.06 1042.7 1310.04 988.788 1326.23 939.267 C 1355.65 849.198 1435.85 810.752 1512.95 771.921 L 1512.6 770.911 C 1517.06 764.078 1642.38 716.524 1656.4 713.295 L 1658.01 714.341 z"/>
<path transform="translate(0,0)" fill="url(#Gradient3)" d="M 1710.43 733.389 C 1711.05 728.48 1709.47 721.516 1711.09 717.779 C 1733.74 700.247 1734.7 765.97 1738.13 773.492 C 1741.21 790.796 1740.97 812.338 1742.29 829.953 C 1742.52 833.125 1743 847.343 1743.73 849.832 L 1745.35 850.032 C 1746.18 857.032 1745.87 863.575 1746.12 870.731 C 1748.01 925.614 1744.05 982.341 1731.16 1035.78 C 1726.54 1054.95 1717.57 1075.42 1708.93 1093 C 1708.07 1094.75 1705.86 1098.51 1707.43 1099.61 C 1713.47 1103.81 1726.71 1104.38 1730.43 1111.08 C 1730.51 1118.96 1710.23 1139.61 1705.11 1145.18 C 1689.17 1162.48 1670.35 1174.66 1650.47 1186.57 C 1645.71 1189.42 1643.14 1190.67 1637.95 1192.8 C 1636.5 1192.41 1637.03 1192.82 1636.27 1191.71 C 1572.11 1217.89 1508.28 1231.66 1441.12 1203.74 C 1434.66 1201.06 1428.36 1198.02 1422.23 1194.64 C 1417.83 1192.04 1412.56 1189.14 1408.48 1186.17 C 1400.73 1196.75 1393.74 1206.15 1385.38 1216.22 C 1382.72 1219.42 1371.45 1232.43 1369.79 1235.07 L 1369.45 1237.89 C 1355.51 1255.26 1334.51 1274.43 1315.77 1286.05 C 1298.76 1296.6 1285.86 1290.46 1276.98 1274.09 C 1283.5 1254.79 1307.52 1233.09 1320.33 1215.77 C 1330.12 1202.53 1340.92 1189.36 1350.01 1175.28 C 1377.84 1132.17 1399.15 1084.97 1427.9 1042.57 C 1432.39 1035.94 1438.72 1025.4 1443.58 1019.93 L 1444.61 1020.65 C 1483.2 970.872 1510.41 935.478 1561.97 896.904 C 1579.26 883.967 1606.86 867.101 1621.6 855.142 C 1578.26 927.868 1526.74 998.599 1481.05 1070.02 C 1462.89 1098.42 1450.7 1121.15 1434.17 1149.72 C 1432.06 1152.23 1426.59 1162.94 1426.99 1165.81 C 1430.74 1167.57 1433.82 1166.42 1438.01 1167.22 C 1481.5 1175.48 1526.23 1174.62 1569.38 1164.7 C 1616.68 1153.84 1658.57 1131.92 1684.04 1089.11 C 1726.17 1018.29 1725.44 908.795 1720.55 828.299 C 1719.14 805.066 1716.27 765.796 1711.24 744.065 L 1710.43 733.389 z"/>
<path transform="translate(0,0)" fill="rgb(179,234,57)" d="M 1666.59 1143.44 C 1664.98 1148.87 1659.55 1151.05 1659.49 1151.94 C 1659.11 1157.56 1659.71 1170.06 1661.71 1175.34 C 1658.9 1177.33 1645.66 1185.07 1642.03 1187.13 L 1643.67 1187.61 L 1636.27 1191.71 C 1572.11 1217.89 1508.28 1231.66 1441.12 1203.74 C 1434.66 1201.06 1428.36 1198.02 1422.23 1194.64 C 1422.55 1192.44 1422.76 1191.81 1423.43 1189.67 C 1426.62 1188.35 1451.87 1192.74 1457.73 1193.32 C 1532.79 1200.78 1606.26 1191.83 1666.59 1143.44 z"/>
<path transform="translate(0,0)" fill="url(#Gradient2)" d="M 1703.66 1102.01 C 1712.63 1104.48 1720.96 1106.78 1729.32 1110.96 C 1715.06 1136.98 1670.2 1178.03 1643.67 1187.61 L 1642.03 1187.13 C 1645.66 1185.07 1658.9 1177.33 1661.71 1175.34 C 1659.71 1170.06 1659.11 1157.56 1659.49 1151.94 C 1659.55 1151.05 1664.98 1148.87 1666.59 1143.44 C 1672.83 1134.83 1688.47 1122.54 1694.99 1112.72 C 1698.19 1107.91 1702.41 1109.23 1703.66 1102.01 z"/>
<path transform="translate(0,0)" fill="rgb(19,56,7)" d="M 1743.73 849.832 L 1745.35 850.032 C 1746.18 857.032 1745.87 863.575 1746.12 870.731 C 1748.01 925.614 1744.05 982.341 1731.16 1035.78 C 1726.54 1054.95 1717.57 1075.42 1708.93 1093 C 1708.07 1094.75 1705.86 1098.51 1707.43 1099.61 C 1713.47 1103.81 1726.71 1104.38 1730.43 1111.08 C 1730.51 1118.96 1710.23 1139.61 1705.11 1145.18 C 1689.17 1162.48 1670.35 1174.66 1650.47 1186.57 C 1645.71 1189.42 1643.14 1190.67 1637.95 1192.8 C 1636.5 1192.41 1637.03 1192.82 1636.27 1191.71 L 1643.67 1187.61 C 1670.2 1178.03 1715.06 1136.98 1729.32 1110.96 C 1720.96 1106.78 1712.63 1104.48 1703.66 1102.01 C 1703.36 1098.35 1714.9 1075.15 1717.12 1069.4 C 1744.34 999.115 1744.63 924.378 1743.73 849.832 z"/>
<path transform="translate(0,0)" fill="rgb(10,32,3)" d="M 1276.98 1274.09 C 1283.5 1254.79 1307.52 1233.09 1320.33 1215.77 C 1330.12 1202.53 1340.92 1189.36 1350.01 1175.28 C 1377.84 1132.17 1399.15 1084.97 1427.9 1042.57 C 1432.39 1035.94 1438.72 1025.4 1443.58 1019.93 L 1444.61 1020.65 L 1444.22 1021.37 C 1435.89 1036.3 1423.83 1050.56 1415.14 1065.67 C 1388.33 1111.91 1364.98 1160.16 1332.81 1203.13 C 1320.16 1220.03 1303.83 1239.41 1289.17 1255.73 C 1270.97 1275.99 1286.39 1292.98 1306 1287.74 C 1325.96 1282.39 1354.7 1251.02 1369.79 1235.07 L 1369.45 1237.89 C 1355.51 1255.26 1334.51 1274.43 1315.77 1286.05 C 1298.76 1296.6 1285.86 1290.46 1276.98 1274.09 z"/>
<path transform="translate(0,0)" fill="rgb(140,208,31)" d="M 1554.65 922.275 L 1555.85 925.357 C 1519.67 968.657 1487.48 1020.78 1456.38 1068.18 C 1410.71 1137.79 1370.92 1227.12 1294.51 1269.11 C 1294.67 1268.86 1294.82 1268.61 1294.97 1268.35 L 1295.77 1267.11 C 1298.66 1262.47 1301.55 1258.64 1305.3 1254.68 C 1369.64 1186.74 1409.05 1102.25 1463.05 1026.75 C 1490.34 988.586 1521.61 955.584 1554.65 922.275 z"/>
<path transform="translate(0,0)" fill="rgb(179,234,57)" d="M 1573.44 904.587 C 1568.11 912.137 1562.1 918.558 1555.85 925.357 L 1554.65 922.275 C 1561.24 915.355 1566.19 910.88 1573.44 904.587 z"/>
<path transform="translate(0,0)" fill="url(#Gradient1)" d="M 1658.01 714.341 C 1668.58 711.063 1719.4 692.58 1725.84 693.126 C 1731.96 699.764 1737.93 762.325 1738.13 773.492 C 1734.7 765.97 1733.74 700.247 1711.09 717.779 C 1709.47 721.516 1711.05 728.48 1710.43 733.389 C 1709.84 729.939 1709.79 728.027 1707.91 725.046 C 1704.23 724.435 1703.15 725.722 1699 727.406 C 1687.09 730.997 1675.26 735.662 1663.49 739.797 C 1626.98 752.425 1590.85 766.112 1555.13 780.841 C 1548.87 783.387 1525.35 792.695 1521.64 795.537 C 1521.47 795.822 1521.3 796.107 1521.12 796.392 C 1505.83 806.536 1483.21 821.434 1468.78 831.647 C 1400.03 880.321 1348.23 951.734 1352.99 1039.36 C 1353.67 1051.78 1354.8 1060.66 1357.27 1072.9 C 1358.15 1077.24 1361.22 1090.66 1361.23 1094.06 L 1362.23 1097.45 L 1363.04 1097.4 L 1363.27 1093.44 L 1364.37 1095.33 C 1364.45 1098.16 1364.88 1099.39 1363.29 1101.63 C 1359.79 1098.73 1361.6 1093.51 1356.22 1090.02 C 1352.07 1091.85 1353.9 1092.13 1351.56 1095.43 C 1350.86 1096.43 1347.16 1096.56 1345.37 1099.67 C 1348.29 1104.73 1357.17 1115.63 1362.87 1116.89 C 1380.94 1109.96 1379.1 1102.32 1375.47 1085.62 L 1376.41 1084.22 C 1381.53 1101.31 1382.31 1110.46 1363.87 1118.98 C 1351.2 1114.75 1343.3 1100.71 1337.43 1089.27 C 1314.06 1042.7 1310.04 988.788 1326.23 939.267 C 1355.65 849.198 1435.85 810.752 1512.95 771.921 L 1512.6 770.911 C 1517.06 764.078 1642.38 716.524 1656.4 713.295 L 1658.01 714.341 z"/>
<path transform="translate(0,0)" fill="rgb(140,208,31)" d="M 1521.64 795.537 C 1521.47 795.822 1521.3 796.107 1521.12 796.392 C 1505.83 806.536 1483.21 821.434 1468.78 831.647 C 1400.03 880.321 1348.23 951.734 1352.99 1039.36 C 1353.67 1051.78 1354.8 1060.66 1357.27 1072.9 C 1358.15 1077.24 1361.22 1090.66 1361.23 1094.06 C 1334.3 1034.79 1329.16 991.621 1355.15 929.507 C 1384.88 858.445 1453.92 822.695 1521.64 795.537 z"/>
<path transform="translate(0,0)" fill="rgb(19,56,7)" d="M 1512.95 771.921 L 1512.6 770.911 C 1517.06 764.078 1642.38 716.524 1656.4 713.295 L 1658.01 714.341 C 1629.1 725.255 1599.7 735.182 1571.13 746.962 C 1558.29 752.251 1545.51 757.697 1532.8 763.297 C 1527.87 765.466 1517.24 770.59 1512.95 771.921 z"/>
<path transform="translate(0,0)" fill="rgb(19,56,7)" d="M 1411.75 914.811 L 1412.49 916.298 L 1411.77 917.505 C 1409.18 921.729 1405.47 925.423 1402.68 929.444 C 1375.47 968.737 1371.29 1012.23 1373.95 1058.99 C 1374.87 1075.08 1393.97 1110.07 1367.53 1119.68 C 1366.12 1120.19 1364.97 1119.86 1363.87 1118.98 C 1382.31 1110.46 1381.53 1101.31 1376.41 1084.22 C 1366.53 1018.65 1367.54 968.223 1411.75 914.811 z"/>
<path transform="translate(0,0)" fill="rgb(10,32,3)" d="M 1503.18 844.226 L 1504.04 845.439 C 1499.27 848.9 1492.26 852.893 1487.07 855.987 C 1472.94 864.418 1459.94 873.917 1446.8 883.741 C 1434.01 893.305 1423.8 905.143 1412.49 916.298 L 1411.75 914.811 C 1434.78 886.877 1470.72 860.892 1503.18 844.226 z"/>
<path transform="translate(0,0)" fill="rgb(179,234,57)" d="M 394.702 952.882 C 409.201 954.257 420.658 954.181 430.823 965.226 C 432.957 974.634 435.249 1008.19 437.677 1013.85 L 439.464 1013.77 L 440.3 1015.37 L 439.479 1017.63 C 439.662 1017.99 439.844 1018.35 440.027 1018.72 C 455.515 1121.09 498.5 1217.56 563.977 1297.9 C 568.297 1303.21 583.988 1319.86 584.559 1324.99 C 643.201 1389.88 723.791 1447.36 803.917 1483.13 C 808.648 1485.24 832.113 1495.31 835.508 1495.61 C 839.743 1494.6 848.202 1498.17 852.562 1499.72 C 947.189 1533.32 1051.85 1538.04 1150.31 1520.55 C 1156.49 1519.45 1176.11 1513.91 1180.32 1516.61 C 1185.05 1516.04 1193.55 1513.64 1198.42 1512.35 C 1337.58 1475.7 1457.54 1385.28 1540.69 1268.97 C 1559.75 1242.3 1591.38 1261.73 1589.04 1270.63 C 1582.98 1293.79 1535.49 1356.18 1519.68 1372.11 C 1515.57 1377.89 1503.28 1390.71 1497.91 1396.31 C 1376.75 1523.66 1211.53 1592.02 1036 1594.44 C 707.122 1598.98 392.077 1304.19 385.113 973.943 C 382.827 961.92 384.526 959.611 394.702 952.882 z"/>
<path transform="translate(0,0)" fill="rgb(250,254,165)" d="M 394.702 952.882 C 409.201 954.257 420.658 954.181 430.823 965.226 C 432.957 974.634 435.249 1008.19 437.677 1013.85 L 439.464 1013.77 L 440.3 1015.37 L 439.479 1017.63 C 439.662 1017.99 439.844 1018.35 440.027 1018.72 C 455.515 1121.09 498.5 1217.56 563.977 1297.9 C 568.297 1303.21 583.988 1319.86 584.559 1324.99 C 643.201 1389.88 723.791 1447.36 803.917 1483.13 C 808.648 1485.24 832.113 1495.31 835.508 1495.61 C 839.743 1494.6 848.202 1498.17 852.562 1499.72 C 947.189 1533.32 1051.85 1538.04 1150.31 1520.55 C 1156.49 1519.45 1176.11 1513.91 1180.32 1516.61 C 1185.05 1516.04 1193.55 1513.64 1198.42 1512.35 C 1337.58 1475.7 1457.54 1385.28 1540.69 1268.97 C 1559.75 1242.3 1591.38 1261.73 1589.04 1270.63 C 1582.98 1293.79 1535.49 1356.18 1519.68 1372.11 C 1515.74 1373.82 1514.12 1376.73 1509.68 1377.27 L 1509.37 1376.36 C 1512.64 1369.53 1514.35 1358.6 1517.53 1353.82 C 1524.79 1342.93 1542.83 1321.05 1544.51 1308.61 C 1544.64 1307.64 1544.67 1304.13 1545.18 1301.47 L 1545.35 1300.61 L 1544.44 1299.29 C 1540.24 1302.9 1535.35 1310.2 1531.47 1314.92 C 1523.13 1325.09 1514.53 1335.03 1505.67 1344.75 C 1473.5 1379.45 1426.65 1421.24 1388.3 1449.04 C 1291.3 1519.23 1175.6 1558.96 1055.94 1563.16 C 741.645 1574.59 423 1301.49 411.384 982.115 C 399.257 981.535 395.254 980.055 385.113 973.943 C 382.827 961.92 384.526 959.611 394.702 952.882 z"/>
<path transform="translate(0,0)" fill="rgb(19,56,7)" d="M 835.508 1495.61 C 839.743 1494.6 848.202 1498.17 852.562 1499.72 C 947.189 1533.32 1051.85 1538.04 1150.31 1520.55 C 1156.49 1519.45 1176.11 1513.91 1180.32 1516.61 C 1166.44 1520.67 1142.37 1524.56 1127.77 1526.82 C 1036.68 1540.86 921.269 1531.93 835.508 1495.61 z"/>
<path transform="translate(0,0)" fill="rgb(19,56,7)" d="M 437.677 1013.85 L 439.464 1013.77 L 440.3 1015.37 L 439.479 1017.63 C 439.662 1017.99 439.844 1018.35 440.027 1018.72 C 455.515 1121.09 498.5 1217.56 563.977 1297.9 C 568.297 1303.21 583.988 1319.86 584.559 1324.99 C 511.497 1247.95 447.298 1120.45 437.677 1013.85 z"/>
<path transform="translate(0,0)" fill="rgb(250,254,165)" d="M 1280.53 358.053 C 1279.68 348.488 1281.27 343.855 1287.32 336.231 C 1303.28 316.11 1329.81 331.935 1347.43 341.283 C 1458.47 400.199 1552.39 490.967 1621.13 595.74 C 1627.89 606.04 1641.87 622.744 1641.87 634.78 C 1639.31 641.543 1628.8 644.353 1622.3 646.772 C 1614.95 649.92 1607.51 652.883 1600.01 655.659 C 1593.94 649.47 1583.78 631.285 1578.63 623.099 C 1569.42 608.39 1559.66 594.032 1549.37 580.054 C 1484.36 492.622 1399.37 416.961 1298.53 372.842 C 1288.74 368.561 1284.63 368.049 1280.53 358.053 z"/>
<path transform="translate(0,0)" fill="rgb(221,250,93)" d="M 1280.53 358.053 C 1285.58 356.424 1292.07 353.808 1297.09 352.976 C 1310.15 350.809 1327.76 359.901 1338.98 365.905 C 1456.35 428.727 1554.94 527.117 1621.71 641.991 C 1622.25 642.923 1622.29 645.651 1622.3 646.772 C 1614.95 649.92 1607.51 652.883 1600.01 655.659 C 1593.94 649.47 1583.78 631.285 1578.63 623.099 C 1569.42 608.39 1559.66 594.032 1549.37 580.054 C 1484.36 492.622 1399.37 416.961 1298.53 372.842 C 1288.74 368.561 1284.63 368.049 1280.53 358.053 z"/>
</svg>